<?xml version="1.0" encoding="utf-8"?>
<!-- Generator: Adobe Illustrator 16.0.0, SVG Export Plug-In . SVG Version: 6.00 Build 0)  -->
<!DOCTYPE svg PUBLIC "-//W3C//DTD SVG 1.1//EN" "http://www.w3.org/Graphics/SVG/1.1/DTD/svg11.dtd">
<svg version="1.1" id="Layer_1" xmlns="http://www.w3.org/2000/svg" xmlns:xlink="http://www.w3.org/1999/xlink" x="0px" y="0px"
	 width="400px" height="400px" viewBox="0 0 400 400" enable-background="new 0 0 400 400" xml:space="preserve">
<g>
	<path fill-rule="evenodd" clip-rule="evenodd" fill="#E64112" d="M179.483,337.412c0.874,28.41,9.204,11.871-4.921,32.702
		c-0.016,0.021,3.678-2.586,6.668-0.495c0.927,0.651,0.088,3.682,1.221,4.915c1.851,2.022,1.895-3.174,6.299-3.468
		c1.171-0.079,2.545,3.105,4.477,3.387c0.63,0.094-0.138-3.481,1.306-5.72c1.443-2.244,5.106-3.162,5.047-3.215
		c-6.716-5.808-8.355-5.138-9.752-7.782c-1.215-2.305-2.157-9.38-1.822-20.7C188.149,332.385,179.478,337.062,179.483,337.412z"/>
	<path fill-rule="evenodd" clip-rule="evenodd" fill="#E64112" d="M235.239,337.049c-0.873,28.416-9.197,11.877,4.921,32.709
		c0.02,0.021-3.678-2.586-6.668-0.492c-0.927,0.648-0.088,3.679-1.221,4.915c-1.847,2.02-1.895-3.178-6.299-3.472
		c-1.171-0.078-2.539,3.105-4.477,3.387c-0.633,0.095,0.138-3.48-1.303-5.716c-1.446-2.248-5.108-3.168-5.046-3.222
		c6.712-5.807,8.353-5.131,9.748-7.779c1.215-2.301,2.16-9.379,1.819-20.702C226.574,332.027,235.245,336.708,235.239,337.049z"/>
	<path fill-rule="evenodd" clip-rule="evenodd" fill="#FCE387" d="M80.275,149.136c9.461,8.171,34.139,16.295,59.55,16.651
		c4.133,0.057,7.843,19.354,12.379,66.813c37.238,0,42.988,1.703,54.785-3.907c-9.007-46.533-18.314-75.738-17.598-76.268
		c20.896-15.48,24.103-68.716,7.52-92.465C117.68-39.328,17.795,99.325,80.275,149.136z"/>
	<path fill-rule="evenodd" clip-rule="evenodd" fill="#F4AFB3" d="M71.782,124.846c-6.021,9.379,10.775,15.465,15.387,8.597
		C95.503,121.021,76.65,117.257,71.782,124.846z"/>
	<path fill-rule="evenodd" clip-rule="evenodd" fill="#F4AFB3" d="M156.681,125.09c-6.018,9.379,10.775,15.472,15.39,8.597
		C180.397,121.265,161.552,117.501,156.681,125.09z"/>
	<path fill-rule="evenodd" clip-rule="evenodd" fill="#31302F" d="M73.714,115.654c4.602,3.337,9.379-3.7,6.026-6.229
		C73.676,104.848,69.994,112.956,73.714,115.654z"/>
	<path fill-rule="evenodd" clip-rule="evenodd" fill="#31302F" d="M170.881,118.801c3.819,3.049,7.779-3.385,4.996-5.694
		C170.85,108.911,167.791,116.33,170.881,118.801z"/>
	<path fill-rule="evenodd" clip-rule="evenodd" fill="#EF7E00" d="M115.356,117.852c-14.031,7.545-41.969,14.163-40.222,18.774
		c1.653,4.439,25.361,18.437,53.477,12.525C140.326,130.929,124.692,112.83,115.356,117.852z"/>
	<path fill-rule="evenodd" clip-rule="evenodd" fill="#FCE387" d="M143.397,222.573c-37.721,38.71-29.469,93.607,13.518,112.666
		c69.352,30.749,126.974-3.653,152.5-47.985c23.711-41.186,18.354-92.039,3.726-79.397c-27.029,23.354-76.104,4.646-108.394-2.586
		C185.056,200.854,157.094,208.52,143.397,222.573z"/>
	<path fill-rule="evenodd" clip-rule="evenodd" fill="#694926" d="M303.855,201.477c3.929,1.509,22.584,1.327,24.844,7.053
		c-2.529,2.855-14.476-1.099-17.271-2.42c-1.794-0.846-8.896-0.714-8.593-3.155C302.863,202.719,302.863,201.094,303.855,201.477z"
		/>
	<path fill-rule="evenodd" clip-rule="evenodd" fill="#694926" d="M299.507,197.764c-3.415,0.801-4.107,7.791,2.36,5.635
		C304.03,202.672,303.687,196.78,299.507,197.764z"/>
	<path fill-rule="evenodd" clip-rule="evenodd" fill="#4CBAC9" d="M305.063,174.409c9.636-4.564,27.096,2.805,24.181,14.175
		c-0.67,2.611-6.781,12.413-9.398,13.48c-3.042,1.24-4.02,2.01-7.779,2.01C302.29,204.074,297.412,178.021,305.063,174.409z"/>
	<path fill-rule="evenodd" clip-rule="evenodd" fill="#92D0D8" d="M317.617,203.718c1.778-5.146,11.902-15.822,17.318-14.964
		c11.689,1.862-2.511,15.815-12.469,16.053C319.164,204.882,317.485,204.112,317.617,203.718z"/>
	<path fill-rule="evenodd" clip-rule="evenodd" fill="#FFF0B1" d="M308.119,224.599c5.606-2.066,2.016,3.65-1.205,10.612
		c-38.184,82.604-103.456,42.094-108.71,2.746C192.476,194.949,257.241,243.351,308.119,224.599z"/>
</g>
<rect x="-1495" y="-102" fill-rule="evenodd" clip-rule="evenodd" fill="none" stroke="#00A651" stroke-width="10" stroke-miterlimit="10" width="2843" height="1848"/>
</svg>
