<?xml version="1.0" encoding="utf-8"?>
<!-- Generator: Adobe Illustrator 16.0.0, SVG Export Plug-In . SVG Version: 6.00 Build 0)  -->
<!DOCTYPE svg PUBLIC "-//W3C//DTD SVG 1.1//EN" "http://www.w3.org/Graphics/SVG/1.1/DTD/svg11.dtd">
<svg version="1.1" id="Layer_1" xmlns="http://www.w3.org/2000/svg" xmlns:xlink="http://www.w3.org/1999/xlink" x="0px" y="0px"
	 width="400px" height="400px" viewBox="0 0 400 400" enable-background="new 0 0 400 400" xml:space="preserve">
<g>
	<path fill-rule="evenodd" clip-rule="evenodd" fill="#008E9F" d="M181.217,254.264c-3.984,5.09-8.793,17.559-14.336,18.459
		c10.203,8.82,44.09,7.729,38.952-27.029C203.487,230.162,184.866,249.609,181.217,254.264z"/>
	<path fill-rule="evenodd" clip-rule="evenodd" fill="#52BBC9" d="M231.151,80.104c-77.409,0-96.926,57.936-94.311,90.508
		c2.51,31.34,25.777,62.34,55.157,70.561c18.842,0.195,31.883,61.967-35.911,74.064c-60.17,10.746-67.678-40.18-67.836-39.58
		c-13.252,49.531,29.234,100.244,92.354,99.332c31.586-0.459,94.92-16.162,126.823-57.818
		C373.669,230.664,359.325,80.107,231.151,80.104z"/>
	<path fill-rule="evenodd" clip-rule="evenodd" fill="#008E9F" d="M85.864,291.613c0.578-1.473-23.631-4.006-33.877-21.271
		c-6.182-10.416-2.725-33.566,1.369-44.168c12.176-3.637,29.928,37.643,33.604,47.273c1.115,2.939,4.463,19.543,0.375,18.357
		L85.864,291.613z"/>
	<path fill-rule="evenodd" clip-rule="evenodd" fill="#008E9F" d="M92.252,292.031c-0.576-1.475,23.619-4.012,33.869-21.27
		c6.189-10.422,2.725-33.572-1.355-44.174c-12.184-3.633-29.941,37.654-33.605,47.271c-1.123,2.943-4.475,19.547-0.381,18.357
		L92.252,292.031z"/>
	<path fill-rule="evenodd" clip-rule="evenodd" fill="#3B3A39" d="M147.004,193.064c4.561,2.51,7.557-4.957,4.217-6.887
		C145.188,182.689,143.317,191.035,147.004,193.064z"/>
	<path fill-rule="evenodd" clip-rule="evenodd" fill="#F5B0B4" d="M147.659,211.516c9.639,4.961,15.969-9.791,8.91-13.602
		C143.809,191.031,139.864,207.506,147.659,211.516z"/>
	<path fill-rule="evenodd" clip-rule="evenodd" fill="#3B3A39" d="M243.472,190.875c4.561,2.506,7.551-4.963,4.213-6.891
		C241.647,180.5,239.78,188.84,243.472,190.875z"/>
	<path fill-rule="evenodd" clip-rule="evenodd" fill="#F5B0B4" d="M244.12,209.322c9.637,4.957,15.967-9.799,8.912-13.6
		C240.272,188.836,236.327,205.311,244.12,209.322z"/>
	<path fill-rule="evenodd" clip-rule="evenodd" fill="#92D0D8" d="M189.847,240.525c84.887-8.672,85.426,47.242,57.791,73.877
		c-27.414,26.414-63.774,28.857-95.43,1.453c6.902-0.502,22.391-4.182,33.149-11.385c14.4-9.646,23.408-24.912,21.646-40.775
		C205.927,253.959,200.884,243.74,189.847,240.525z"/>
	<path fill-rule="evenodd" clip-rule="evenodd" fill="#3B3A39" d="M208.522,207.014c-1.016,0.43-0.965,3.162-2.432,4.623
		c-1.555,1.535-4.428,2.854-6.551,2.572c-2.615-0.359-4.654-1.328-6.996-6.021c-1.268-0.168,0.252,3.688,1.277,4.887
		c3.104,3.648,11.086,3.762,13.836-1.266C208.345,210.564,209.442,206.629,208.522,207.014z"/>
	<path fill-rule="evenodd" clip-rule="evenodd" fill="#E7D29A" d="M194.499,149.16c-19.729-7.967-53.543-87.566-59.846-113.143
		c-7.043-28.553,16.137,6.197,27.08,16.662c8.82,8.432,62.911,80.734,47.952,89.016C206.419,143.508,197.54,150.391,194.499,149.16z
		"/>
	<path fill-rule="evenodd" clip-rule="evenodd" fill="#008E9F" d="M335.239,252.771c4.494,5.736,9.91,19.768,16.143,20.785
		c-11.488,9.934-49.639,8.699-43.854-30.432C310.171,225.637,331.136,247.533,335.239,252.771z"/>
	<path fill-rule="evenodd" clip-rule="evenodd" fill="#92D0D8" d="M273.911,105.391c0,19.912,17.395,10.379,9.391,3.227
		c-1.014-0.904-0.877-6.299-9.441-5.207C272.638,103.566,273.911,104.895,273.911,105.391z"/>
	<path fill-rule="evenodd" clip-rule="evenodd" fill="#92D0D8" d="M294.899,114.23c-10.352,12.779,18.965,13.303,2.066-0.133
		C296.438,113.672,295.306,113.734,294.899,114.23z"/>
	<path fill-rule="evenodd" clip-rule="evenodd" fill="#92D0D8" d="M286.271,118.996c-5.904,6.541,1.973,8.326,1.598,2.449
		C287.849,121.188,286.458,118.783,286.271,118.996z"/>
	<path fill-rule="evenodd" clip-rule="evenodd" fill="#92D0D8" d="M296.489,128.932c-3.18,3.359,4.211,9.131,4.211,2.521
		C300.7,129.98,297.323,128.059,296.489,128.932z"/>
	<path fill-rule="evenodd" clip-rule="evenodd" fill="#92D0D8" d="M308.44,124.727c-1.092,3.07-0.305,5.924,3.395,6.248
		c1.719,0.146,2.537-7.113-2.975-6.549L308.44,124.727z"/>
	<path fill-rule="evenodd" clip-rule="evenodd" fill="#92D0D8" d="M288.071,104.076c-3.266,0.473,1.193,8.545,1.867,3.107
		C290.308,104.244,288.921,103.951,288.071,104.076z"/>
	<path fill-rule="evenodd" clip-rule="evenodd" fill="#92D0D8" d="M264.175,92.887c-1.473,9.475,7.551,6.766,4.035,1.738
		C267.556,93.686,264.241,92.42,264.175,92.887z"/>
	<path fill-rule="evenodd" clip-rule="evenodd" fill="#6D4F33" d="M210.815,58.145c-1.045,4.822-0.117,8.703,1.092,11.479
		c0.416,0.959,0.854,1.758,1.25,2.369c-0.211-0.133-0.436-0.275-0.693-0.432c-3.014-1.844-5.766-4.986-6.809-8.404
		c-0.768-2.537-1.594-1.893-1.408-1.266c1.4,4.723,4.09,7.678,6.475,9.533c0.682,0.518,1.32,0.947,1.883,1.277
		c-0.23,0.012-0.473,0.027-0.736,0.055c-3.523,0.289-7.605-0.623-10.453-2.771c-2.121-1.598-2.414-0.588-1.895-0.189
		c3.92,2.988,7.834,3.795,10.857,3.869c1.543,0.043,2.803-0.098,3.594-0.275l0.191,0.063c3.801,2.766,7.564,3.525,10.492,3.604
		c4.564,0.117,6.625-1.34,1.488-0.916c-3.523,0.289-7.596-0.623-10.453-2.77c-0.564-0.422-0.994-0.66-1.32-0.777
		c-0.172-0.459-0.492-1.125-1.002-2.01c-1.758-3.068-2.666-7.148-1.93-10.641C211.979,57.342,210.948,57.514,210.815,58.145z"/>
	<path fill-rule="evenodd" clip-rule="evenodd" fill="#E95707" d="M208.491,53.328c-1.387,0.721-1.754,2.824-0.596,4.412
		C213.8,65.896,216.911,48.979,208.491,53.328z"/>
	<path fill-rule="evenodd" clip-rule="evenodd" fill="#E95707" d="M204.333,62.486c1.813-0.721,1.555-4.623-0.939-6.186
		C197.899,52.828,196.886,65.461,204.333,62.486z"/>
	<path fill-rule="evenodd" clip-rule="evenodd" fill="#E95707" d="M197.599,71.506c7.219,1.391,4.564-9.607-2.023-7.555
		C195.249,64.057,192.181,70.461,197.599,71.506z"/>
	<path fill-rule="evenodd" clip-rule="evenodd" fill="#728442" d="M229.024,81.137c-0.203,0.145-4.264-1.045-8.605-1.486
		c-0.967-0.096-2.027-0.158-3.15-0.189c1.613-3.441-3.732-9.102-4.385-8.977c-3.771,0.744-0.756,6.727,2.865,8.949
		c-2.408-0.012-4.996,0.098-7.467,0.287c0.748-3.756-5.902-7.908-6.494-7.619c-3.344,1.598,0.643,6.326,4.568,7.775
		c-1.4,0.137-2.725,0.293-3.918,0.465c-0.568,0.082-1.586,0.178-2.809,0.295c0.4-4.006-7.395-6.844-7.936-6.43
		c-2.889,2.236,1.801,5.936,5.904,6.621c-1.902,0.18-3.986,0.383-5.68,0.619c-3.826-1.963-11.372-0.744-9.534,2.912
		c0.297,0.588,8.022,1.348,9.768-2.027c0.811-0.145,1.781-0.287,2.865-0.424c-3.832,1.914-7.371,8.227-3.48,9.088
		c0.67,0.152,6.5-5.748,4.432-9.193c2.053-0.238,4.42-0.449,6.848-0.627c-3.828,1.912-7.367,8.215-3.469,9.08
		c0.662,0.145,6.447-5.701,4.451-9.154c3.051-0.219,6.143-0.395,8.734-0.508c-3.684,2.125-6.863,8.053-3.1,8.887
		c0.648,0.145,6.213-5.465,4.561-8.949c1.014-0.035,1.926-0.063,2.678-0.078c2.188-0.041,11.898,1.871,12.211,1.104
		C228.993,81.303,229.142,81.055,229.024,81.137z"/>
	<path fill-rule="evenodd" clip-rule="evenodd" fill="#789F3D" d="M230.179,78.674c0.186,0.033,2.672-2.168,5.604-3.941
		c0.654-0.398,1.383-0.799,2.176-1.189c-2.297-1.904-0.406-7.713,0.092-7.842c2.932-0.744,2.799,4.518,0.975,7.305
		c1.707-0.811,3.586-1.605,5.402-2.295c-1.793-2.414,1.527-7.594,2.051-7.594c2.906,0.023,1.66,4.709-0.639,7.059
		c1.043-0.373,2.037-0.709,2.938-0.986c0.438-0.135,1.189-0.404,2.098-0.732c-1.629-2.709,2.953-7.346,3.477-7.229
		c2.799,0.623,0.709,4.816-1.973,6.684c1.41-0.516,2.959-1.064,4.24-1.469c2.059-2.674,7.818-4.342,7.74-1.127
		c-0.008,0.514-5.238,3.641-7.611,1.836c-0.619,0.168-1.355,0.393-2.178,0.662c3.363,0.07,7.988,3.363,5.518,5.281
		c-0.42,0.328-6.539-1.902-6.229-5.043c-1.531,0.521-3.289,1.168-5.074,1.855c3.367,0.072,7.99,3.359,5.52,5.281
		c-0.422,0.326-6.49-1.879-6.236-5.002c-2.236,0.873-4.49,1.781-6.369,2.572c3.324,0.27,7.578,3.402,5.176,5.262
		c-0.404,0.32-6.234-1.793-6.234-4.816c-0.73,0.318-1.381,0.604-1.926,0.842c-1.566,0.701-7.814,5.32-8.299,4.875
		C230.259,78.789,230.069,78.654,230.179,78.674z"/>
	<path fill-rule="evenodd" clip-rule="evenodd" fill="#FBBF26" d="M225.126,72.951c-2.365-9.193,5.41-20.559,8.037-18.271
		c2.191,1.898-0.686,8.926-2.592,16.627c-1.158,4.674-0.795,1.633,1.469-1.049c4.662-5.504,16.355-10.449,9.176-1.953
		c-2.33,2.764-6.82,5.512-8.244,7.082c28.059-10.254,7.02,1.938,2.951,3.844c3.125,1.348,10.951,9.717,10.152,12.469
		c-0.959,3.293-7.709,0.662-14.572-8.668c6.029,20.09,1.504,25.75-4.748,4.797c-5.9,18.781-10.506,8.832-8.223,4.174
		c0.51-1.037,3.908-6.563,3.928-6.629c-7.076,2.439-14.264,2.506-14.338,1.547c-0.137-1.832,13.021-7.266,12.811-7.348
		c-7.623-3.078-9.846-12.471-8.563-12.717C217.13,65.947,224.048,68.758,225.126,72.951z"/>
	<path fill-rule="evenodd" clip-rule="evenodd" fill="#92D0D8" d="M230.132,81.678c0.107-0.051,3.631-6.4-2.635-5.293
		C223.786,77.039,222.259,85.688,230.132,81.678z"/>
	<path fill-rule="evenodd" clip-rule="evenodd" fill="#E95707" d="M245.437,83.666c0.986,3.838-2.26,8.57-3.355,7.615
		c-0.904-0.791,0.285-3.719,1.084-6.93c0.482-1.949,0.326-0.682-0.617,0.436c-1.939,2.297-6.813,4.357-3.818,0.816
		c0.967-1.154,2.836-2.301,3.438-2.951c-11.697,4.275-2.939-0.811-1.236-1.602c-1.301-0.563-4.564-4.055-4.229-5.199
		c0.395-1.373,3.207-0.273,6.072,3.617c-2.518-8.377-0.627-10.734,1.977-2c2.463-7.834,4.377-3.688,3.43-1.738
		c-0.211,0.424-1.625,2.732-1.633,2.756c2.945-1.01,5.936-1.041,5.975-0.645c0.059,0.766-5.43,3.033-5.344,3.064
		c3.18,1.281,4.107,5.199,3.57,5.297C248.769,86.58,245.884,85.416,245.437,83.666z"/>
	<path fill-rule="evenodd" clip-rule="evenodd" fill="#FBBF26" d="M243.351,80.025c-0.047,0.027-1.52,2.674,1.096,2.213
		C245.993,81.967,246.626,78.361,243.351,80.025z"/>
</g>
<rect x="-655" y="-942" fill-rule="evenodd" clip-rule="evenodd" fill="none" stroke="#00A651" stroke-width="10" stroke-miterlimit="10" width="2843" height="1848"/>
</svg>
