<?xml version="1.0" encoding="utf-8"?>
<!-- Generator: Adobe Illustrator 16.0.0, SVG Export Plug-In . SVG Version: 6.00 Build 0)  -->
<!DOCTYPE svg PUBLIC "-//W3C//DTD SVG 1.1//EN" "http://www.w3.org/Graphics/SVG/1.1/DTD/svg11.dtd">
<svg version="1.1" id="Layer_1" xmlns="http://www.w3.org/2000/svg" xmlns:xlink="http://www.w3.org/1999/xlink" x="0px" y="0px"
	 width="400px" height="400px" viewBox="0 0 400 400" enable-background="new 0 0 400 400" xml:space="preserve">
<g>
	<path fill-rule="evenodd" clip-rule="evenodd" fill="#EE7A10" d="M257.073,329.092c1.984,16.697,8.779,10.855,21.482,9.348
		c5.744-0.676-8.582-64.951-10.473-70.727c-8.684-26.469-10.963-64.621-34.346-58.027
		C208.491,216.807,254.224,305.08,257.073,329.092z"/>
	<path fill-rule="evenodd" clip-rule="evenodd" fill="#EF8A39" d="M139.157,208.059c-25.656,50.279-51.373,140.824,26.34,147.568
		c7.889,0.686,96.693,4.709,96.9-2.541c0.264-9.52,2.682-19.105,2.682-32.703c0.004-68.447-12.561-115.217-34.301-139.614
		c-9.541-10.707-15.832,2.455-43.284,0.638C152.464,179.083,156.032,175.004,139.157,208.059z"/>
	<path fill-rule="evenodd" clip-rule="evenodd" fill="#EE7A10" d="M303.487,25c-6.32,2.272-48.186,41.76-50.221,40.121
		c-11.393-9.162-77.363-6.277-93.674-5.783c-26.896-19.826-41.405-33.051-41.409-32.973c-1.751,48.388-4.791,86.439,7.769,115.009
		c33.715,76.69,115.607,87.728,156.877,9.796C297.983,122.55,301.903,78.019,303.487,25z"/>
	<path fill-rule="evenodd" clip-rule="evenodd" fill="#3B3A39" d="M149.72,144.904c6.152,4.464,12.535-4.935,8.056-8.317
		C149.673,130.462,144.745,141.305,149.72,144.904z"/>
	<path fill-rule="evenodd" clip-rule="evenodd" fill="#F5B0B4" d="M147.563,153.015c-4.678,7.286,8.367,12.011,11.947,6.679
		C165.987,150.042,151.347,147.119,147.563,153.015z"/>
	<path fill-rule="evenodd" clip-rule="evenodd" fill="#F5B0B4" d="M253.427,153.813c-5.273,8.208,9.43,13.54,13.465,7.523
		C274.188,150.466,257.685,147.169,253.427,153.813z"/>
	<path fill-rule="evenodd" clip-rule="evenodd" fill="#FFF3D5" d="M208.339,141.771c-33.992,0-44.021,25.604-30.987,36.677
		c49.136,41.741,91.622-36.677,38.093-36.677C213.079,141.771,210.708,141.771,208.339,141.771z"/>
	<path fill-rule="evenodd" clip-rule="evenodd" fill="#3B3A39" d="M193.962,167.96c-1.206-2.262-10.641,6.811-14.072,9.765
		c-8.251,7.104-9.813,10.699-6.99,9.5c2.74-1.162,5.62-6.001,9.924-9.694C188.171,172.941,194.702,169.361,193.962,167.96z"/>
	<path fill-rule="evenodd" clip-rule="evenodd" fill="#3B3A39" d="M192.538,165.563c-0.382-2.538-12.299,2.88-16.518,4.53
		c-10.143,3.954-12.809,6.822-9.745,6.636c2.966-0.188,7.29-3.795,12.579-5.85C185.423,168.329,192.775,167.123,192.538,165.563z"/>
	<path fill-rule="evenodd" clip-rule="evenodd" fill="#3B3A39" d="M192.013,162.939c0.269-2.55-12.633-0.315-17.129,0.214
		c-10.811,1.265-14.115,3.37-11.107,3.954c2.92,0.572,8.018-1.825,13.649-2.472C184.427,163.819,191.845,164.508,192.013,162.939z"
		/>
	<path fill-rule="evenodd" clip-rule="evenodd" fill="#3B3A39" d="M223.688,167.598c1.199-2.265,10.641,6.804,14.068,9.761
		c8.248,7.097,9.813,10.696,6.99,9.497c-2.736-1.16-5.615-6.006-9.924-9.695C229.472,172.567,222.948,168.991,223.688,167.598z"/>
	<path fill-rule="evenodd" clip-rule="evenodd" fill="#3B3A39" d="M225.104,165.2c0.385-2.545,12.303,2.877,16.521,4.522
		c10.139,3.95,12.809,6.826,9.75,6.636c-2.971-0.187-7.295-3.795-12.584-5.846C232.22,167.96,224.872,166.757,225.104,165.2z"/>
	<path fill-rule="evenodd" clip-rule="evenodd" fill="#3B3A39" d="M225.634,162.569c-0.268-2.549,12.633-0.314,17.133,0.215
		c10.803,1.265,14.115,3.37,11.107,3.957c-2.92,0.568-8.018-1.825-13.652-2.482C233.216,163.449,225.802,164.134,225.634,162.569z"
		/>
	<path fill-rule="evenodd" clip-rule="evenodd" fill="#3B3A39" d="M205.63,177.347c-0.303,2.316,0.258,1.401,2.49,1.538
		c0.059,0.003-0.619-7.858-0.459-8.94c0.094-0.614,1.066-6.729,0.58-6.729C205.45,163.216,206.069,173.949,205.63,177.347z"/>
	<path fill-rule="evenodd" clip-rule="evenodd" fill="#3B3A39" d="M207.405,180.309c2.334-0.039,7.012-1.405,7.117-3.643
		c0.004-0.047-5.332,1.7-7.834,1.81c-0.172,0.012-3.285-0.393-7.83-1.693C198.835,179.55,203.606,180.383,207.405,180.309z"/>
	<path fill-rule="evenodd" clip-rule="evenodd" fill="#3B3A39" d="M209.394,151.898c6.477,0.79,12.539,7.476-1.227,14.197
		C203.933,168.154,190.872,149.645,209.394,151.898z"/>
	<path fill-rule="evenodd" clip-rule="evenodd" fill="#F5B0B4" d="M125.411,43.108c-0.899,2.187,0.743,18.657,1.059,21.802
		c1.004,10.096,3.607,3.558,11.559,1.027c4.242-1.346,13.389-2.557,7.173-8.775C142.792,54.749,128.446,35.791,125.411,43.108z"/>
	<path fill-rule="evenodd" clip-rule="evenodd" fill="#F5B0B4" d="M295.415,46.098c0.904,2.191-0.738,18.661-1.055,21.802
		c-1,10.104-3.607,3.562-11.563,1.035c-4.238-1.354-13.381-2.561-7.168-8.78C278.038,57.742,292.384,38.78,295.415,46.098z"/>
	<path fill-rule="evenodd" clip-rule="evenodd" fill="#EF8A39" d="M161.302,64.572c0.354,11.668,29.508,59.195,36.261,73.272
		c1.864,3.888-5.788-26.878-12.147-38.448c-2.926-5.336-5.791-20.443-12.383-30.431C167.513,60.583,170,62.02,161.302,64.572z"/>
	<path fill-rule="evenodd" clip-rule="evenodd" fill="#EF8A39" d="M196.5,67.301c0,7.846,7.343,68.17,9.993,68.388
		c4.057,0.339,2.27-17.094,2.27-20.931c0-2.807-3.725-50.05-4.842-50.038C203.808,64.72,196.5,67.313,196.5,67.301z"/>
	<path fill-rule="evenodd" clip-rule="evenodd" fill="#EF8A39" d="M231.651,67.07c0,0-7.371,36.705-9.232,42.694
		c-1.137,3.646-7.721,24.515-6.725,27.398c1.838,0.639,11.66-9.776,12.949-14.758c3.404-13.197,8.262-32.279,9.254-45.604
		C238.917,63.14,240.948,71.573,231.651,67.07z"/>
	<path fill-rule="evenodd" clip-rule="evenodd" fill="#EE7A10" d="M183.151,332.576c1.82,16.711,8.67,10.939,21.389,9.561
		c5.744-0.625-7.939-65.037-9.775-70.832c-8.419-26.553-10.33-64.725-33.767-58.361
		C135.678,219.813,180.535,308.531,183.151,332.576z"/>
	<path fill-rule="evenodd" clip-rule="evenodd" fill="#DA6C00" d="M115.081,279c-6.95,0.824-13.99,19.689-17.058,28.559
		c-10.122,29.285,5.624,48.785,35.124,55.561c157.754,36.205,149.07-18.537,171.896-54.729
		c-47.971,20.701-48.516,0.051-86.088,2.395c-50.186,3.137-85.906,31.885-104.66-19.238C113.35,288.967,118.211,278.631,115.081,279
		z"/>
	<path fill-rule="evenodd" clip-rule="evenodd" fill="#FFF9E8" d="M240.851,373.779c47.451-7.695,48.773-40.982,64.174-65.393
		c-36.229,15.631-45.158,7.734-63.668,3.916l8.484,9.963l-8.309,4.729l17.254,9.477l-17.936,16.172l13.172,4.992L240.851,373.779z"
		/>
	<path fill-rule="evenodd" clip-rule="evenodd" fill="#52BBC9" d="M211.919,48.783c1.877-4.083,18.285-12.895,22.658-13.685
		c2.592-0.471,8.939-2.284,7.154,2.23c-2.086,5.273-18.051,7.997-23.465,9.862C217.655,47.397,211.817,48.992,211.919,48.783z"/>
	<path fill-rule="evenodd" clip-rule="evenodd" fill="#92D0D8" d="M211.919,48.783c-0.248,2.81-0.086,8.266,0.938,10.726
		c1.258,3.036,1.398,4.11,5.975,4.997c2.834,0.545,21.453,3.811,22.674,1.351c1.988-3.985,3.168-20.121,2.469-25.29
		c-0.105-0.797-1.441-6.017-2.438-3.541c-0.777,1.93-10.703,6.943-13.326,7.262c-1.969,0.23-9.799,1.686-11.115,2.674
		C216.972,47.051,211.942,48.463,211.919,48.783z"/>
	<path fill-rule="evenodd" clip-rule="evenodd" fill="#52BBC9" d="M204.587,46.682c-1.875-4.079-18.283-12.891-22.658-13.685
		c-2.584-0.467-8.943-2.284-7.153,2.23c2.082,5.27,18.05,8.001,23.468,9.866C198.847,45.299,204.685,46.895,204.587,46.682z"/>
	<path fill-rule="evenodd" clip-rule="evenodd" fill="#92D0D8" d="M204.587,46.682c0.25,2.813,0.086,8.266-0.934,10.729
		c-1.262,3.036-1.402,4.109-5.982,4.993c-2.829,0.545-21.443,3.814-22.666,1.354c-1.992-3.993-3.172-20.129-2.471-25.294
		c0.108-0.793,1.436-6.013,2.436-3.537c0.786,1.93,10.703,6.943,13.326,7.258c1.969,0.234,9.804,1.689,11.119,2.678
		C199.54,44.953,204.563,46.357,204.587,46.682z"/>
	<path fill-rule="evenodd" clip-rule="evenodd" fill="#62C2CF" d="M215.118,58.014c1.137-3.059,0.65-8.013-1.564-10.702
		c-1.373-1.673-4.109-2.055-6.211-2.055c-2.242,0-4.904-0.529-6.578,0.907c-2.604,2.233-2.229,10.402-1.004,13.263
		C201.567,63.665,213.319,62.836,215.118,58.014z"/>
	<path fill-rule="evenodd" clip-rule="evenodd" fill="#3B3A39" d="M259.323,142.919c6.148,4.461,12.539-4.942,8.055-8.328
		C259.276,128.473,254.353,139.315,259.323,142.919z"/>
</g>
<rect x="-1915" y="-1362" fill-rule="evenodd" clip-rule="evenodd" fill="none" stroke="#00A651" stroke-width="10" stroke-miterlimit="10" width="2843" height="1848"/>
</svg>
