<?xml version="1.0" encoding="utf-8"?>
<!-- Generator: Adobe Illustrator 16.0.0, SVG Export Plug-In . SVG Version: 6.00 Build 0)  -->
<!DOCTYPE svg PUBLIC "-//W3C//DTD SVG 1.1//EN" "http://www.w3.org/Graphics/SVG/1.1/DTD/svg11.dtd">
<svg version="1.1" id="Layer_1" xmlns="http://www.w3.org/2000/svg" xmlns:xlink="http://www.w3.org/1999/xlink" x="0px" y="0px"
	 width="400px" height="400px" viewBox="0 0 400 400" enable-background="new 0 0 400 400" xml:space="preserve">
<g>
	<path fill-rule="evenodd" clip-rule="evenodd" fill="#6D6A66" d="M259.877,315.096c-1.524-9.191,22.598-51.191,12.621-17.143
		c3.285-2.932,19.611-23.229,32.046-19.383c-0.983,7.535,0.047,9.397,11.233,5.241c4.631-1.723,19.352-4.716,18.441-1.264
		c-0.233,0.855-0.809,4.821-6.937,6.719c-7.69,2.396,31.844-5.412,20.49,3.087c14.301-1.702,22.408-1.462,24.985,0.957
		c3.647,3.418,4.332,11.089-9.619,11.287c-13.516,0.187,17.854,12.283-16.4,4.938c-2.757-0.596,4.76,4.751,5.521,5.253
		c0,5.07-35.631-9.336-16.02,1.539c10.521,5.829-21.766,0.152-21.622,0.261c9.39,6.816,2.624,8.62-11.427,4.106
		c-24.216-7.788,5.544,3.227-10.148,5.517C283.773,327.565,246.493,323.841,259.877,315.096z"/>
	<path fill-rule="evenodd" clip-rule="evenodd" fill="#7B7772" d="M93.283,102.017c11.432,14.576,32.008,13.931,43.979,20.579
		c6.003-23.469,12.831-32.513-8.263-59.073c-5.482-6.904-9.066-10.167-17.306-14.744c-9.013-7.994-23.722-11.477-31.584-4.016
		C71.506,52.924,71.02,73.632,93.283,102.017z"/>
	<path fill-rule="evenodd" clip-rule="evenodd" fill="#9F9990" d="M80.11,44.763c-0.062,0.086,27.699,6.369,38.983,34.165
		c3.658,9.032,15.922,35.892,23.912,12.419c2.783-8.165-4.813-13.336-10.918-22.858c-3.854-6.015-7.295-10.397-16.98-17.403
		C102.549,41.994,85.803,37.11,80.11,44.763z"/>
	<path fill-rule="evenodd" clip-rule="evenodd" fill="#7B7772" d="M271.113,95.06c-11.432,14.577-32.008,13.928-43.975,20.584
		c-6.004-23.469-12.84-32.517,8.258-59.076c5.482-6.906,9.067-10.172,17.307-14.74c9.013-7.998,23.722-11.479,31.584-4.024
		C292.895,45.972,293.377,66.677,271.113,95.06z"/>
	<path fill-rule="evenodd" clip-rule="evenodd" fill="#9F9990" d="M284.287,37.803c0.062,0.085-27.7,6.372-38.976,34.173
		c-3.663,9.029-15.934,35.885-23.92,12.415c-2.784-8.165,4.813-13.341,10.918-22.862c3.853-6.016,7.298-10.393,16.983-17.403
		C261.848,35.038,278.594,30.155,284.287,37.803z"/>
	<path fill-rule="evenodd" clip-rule="evenodd" fill="#6D6A66" d="M115.264,334.778c-6.738,37.603,46.219,43.47,13.188,7.29
		c-4.156-4.546-1.897-5.39-1.24-8.169C125.069,331.096,118.759,336.477,115.264,334.778z"/>
	<path fill-rule="evenodd" clip-rule="evenodd" fill="#6D6A66" d="M268.076,336.15c0.269,38.201-52.918,35.005-14.227,4.953
		c4.864-3.779,2.776-4.992,2.598-7.838C259.041,330.862,264.34,337.235,268.076,336.15z"/>
	<path fill-rule="evenodd" clip-rule="evenodd" fill="#7B7772" d="M185.675,358.64c186.602,22.046,78.883-272.371-60.182-161.332
		C90.889,224.952,42.255,352.718,185.675,358.64z"/>
	<path fill-rule="evenodd" clip-rule="evenodd" fill="#BCB7AE" d="M184.633,210.15c28.846,1.139,66.06,14.266,83.09,1.66
		c20.063-6.334,32.606-39.271,9.464-62.297c-32.622-32.454-20.802-96.321-97.068-93.27c-38.574,1.54-70.313,20.16-85.707,96.684
		c-17.776,15.572-22.14,44.423,1.524,59.372C118.853,226.772,170.172,209.574,184.633,210.15z"/>
	<path fill-rule="evenodd" clip-rule="evenodd" fill="#EB606B" d="M130.214,178.341c-6.727,10.475,12.038,17.271,17.178,9.6
		C156.7,174.067,135.649,169.868,130.214,178.341z"/>
	<path fill-rule="evenodd" clip-rule="evenodd" fill="#EB606B" d="M218.825,175.148c-6.727,10.475,12.03,17.271,17.182,9.601
		C245.312,170.88,224.261,166.677,218.825,175.148z"/>
	<path fill-rule="evenodd" clip-rule="evenodd" fill="#31302F" d="M132.367,168.076c5.145,3.725,10.479-4.129,6.734-6.956
		C132.333,156.003,128.215,165.066,132.367,168.076z"/>
	<path fill-rule="evenodd" clip-rule="evenodd" fill="#31302F" d="M234.682,168.123c4.261,3.409,8.686-3.775,5.579-6.365
		C234.643,157.084,231.229,165.366,234.682,168.123z"/>
	<path fill-rule="evenodd" clip-rule="evenodd" fill="#31302F" d="M184.407,191.168c-0.14,2.111,0.314,1.252,2.349,1.252
		c0.051,0-1.012-7.076-0.926-8.064c0.047-0.563,0.583-6.143,0.14-6.115C183.446,178.396,184.617,188.073,184.407,191.168z"/>
	<path fill-rule="evenodd" clip-rule="evenodd" fill="#31302F" d="M186.188,193.75c2.107-0.172,6.26-1.676,6.229-3.702
		c0-0.046-4.725,1.84-6.979,2.084c-0.159,0.012-2.998-0.171-7.182-1.092C178.389,193.552,182.751,194.025,186.188,193.75z"/>
	<path fill-rule="evenodd" clip-rule="evenodd" fill="#6B6A6A" d="M186.371,167.933c5.898,0.342,11.77,6.058-0.304,12.908
		C182.357,182.956,169.484,166.952,186.371,167.933z"/>
	<path fill-rule="evenodd" clip-rule="evenodd" fill="#9F9990" d="M183.256,339.763c97.652,11.536,41.277-142.537-31.49-84.428
		C133.65,269.799,108.207,336.66,183.256,339.763z"/>
	<path fill-rule="evenodd" clip-rule="evenodd" fill="#BCB7AE" d="M147.862,233.518c5.214-19.79,36.614-17.516,19.266-8.495
		c-6.75,3.507,14.892-2.174-8.911,7.769c-3.92,1.637-2.75,2.818-3.143,4.743C152.921,238.666,150.541,233.472,147.862,233.518z"/>
	<path fill-rule="evenodd" clip-rule="evenodd" fill="#BCB7AE" d="M225.202,243.569c-5.222-19.787-36.619-17.521-19.271-8.5
		c6.758,3.511-14.884-2.17,8.916,7.776c3.919,1.629,2.749,2.812,3.146,4.74C220.147,248.713,222.52,243.519,225.202,243.569z"/>
	<path fill-rule="evenodd" clip-rule="evenodd" fill="#EDECED" d="M110.699,170.479c-28.921,7.854-42.261,15.476-67.472,32.004
		c-10.868,7.123-6.097,4.686,13.332-6.388c15.619-8.904,36.444-19.477,53.642-22.785
		C115.322,172.314,112.538,169.981,110.699,170.479z"/>
	<path fill-rule="evenodd" clip-rule="evenodd" fill="#EDECED" d="M109.357,177.299c-33.943,12.189-49.221,22.609-77.896,44.854
		c-12.356,9.588-6.866,6.209,15.39-8.939c17.885-12.174,41.863-26.852,62.184-32.47
		C115.089,179.061,111.527,176.525,109.357,177.299z"/>
	<path fill-rule="evenodd" clip-rule="evenodd" fill="#EDECED" d="M120.089,183.936c-33.948,12.189-49.225,22.606-77.896,44.858
		c-12.357,9.588-6.867,6.205,15.385-8.946c17.89-12.179,41.872-26.849,62.191-32.475
		C125.813,185.689,122.254,183.162,120.089,183.936z"/>
	<path fill-rule="evenodd" clip-rule="evenodd" fill="#EDECED" d="M257.201,171.016c28.917,7.851,42.253,15.475,67.472,32.004
		c10.86,7.127,6.093,4.688-13.34-6.393c-15.615-8.896-36.444-19.468-53.638-22.785C252.57,172.847,255.358,170.514,257.201,171.016z
		"/>
	<path fill-rule="evenodd" clip-rule="evenodd" fill="#EDECED" d="M258.539,177.835c33.943,12.193,49.225,22.61,77.896,44.858
		c12.353,9.584,6.866,6.201-15.39-8.943c-17.889-12.174-41.867-26.852-62.188-32.47
		C252.812,179.597,256.373,177.062,258.539,177.835z"/>
	<path fill-rule="evenodd" clip-rule="evenodd" fill="#EDECED" d="M247.808,184.469c33.944,12.193,49.225,22.609,77.896,44.854
		c12.357,9.589,6.871,6.21-15.389-8.938c-17.89-12.174-41.864-26.848-62.184-32.471C242.08,186.23,245.646,183.691,247.808,184.469z
		"/>
</g>
<rect x="-1915" y="-522" fill-rule="evenodd" clip-rule="evenodd" fill="none" stroke="#00A651" stroke-width="10" stroke-miterlimit="10" width="2843" height="1848"/>
</svg>
