<?xml version="1.0" encoding="utf-8"?>
<!-- Generator: Adobe Illustrator 16.0.0, SVG Export Plug-In . SVG Version: 6.00 Build 0)  -->
<!DOCTYPE svg PUBLIC "-//W3C//DTD SVG 1.1//EN" "http://www.w3.org/Graphics/SVG/1.1/DTD/svg11.dtd">
<svg version="1.1" id="Layer_1" xmlns="http://www.w3.org/2000/svg" xmlns:xlink="http://www.w3.org/1999/xlink" x="0px" y="0px"
	 width="400px" height="400px" viewBox="0 0 400 400" enable-background="new 0 0 400 400" xml:space="preserve">
<g>
	<path fill-rule="evenodd" clip-rule="evenodd" fill="#9D6F00" d="M97.221,283.097c-15.46,12.572,10.814,82.533,62.691,30.414
		C131.783,317.039,108.832,314.533,97.221,283.097z"/>
	<path fill-rule="evenodd" clip-rule="evenodd" fill="#54432B" d="M118.925,48.041c-11.523-8.121-1.657-26.063-1.505-21.266
		c0.003,0.049,2.094,3.372,2.094,10.289c0,2.215-0.229,9.121,0.052,11.028L118.925,48.041z"/>
	<path fill-rule="evenodd" clip-rule="evenodd" fill="#54432B" d="M278.825,47.06c11.524-8.113,1.658-26.056,1.503-21.258
		c0,0.045-2.091,3.372-2.091,10.289c0,2.215,0.231,9.117-0.052,11.025L278.825,47.06z"/>
	<path fill-rule="evenodd" clip-rule="evenodd" fill="#C98C14" d="M238.96,317.814c2.032,17.06,55.013,20.58,46.671-2.201
		c-1.517-4.144-12.237-1.987-14.852-8.679c-8.01-20.524-20.133-47.574-21.168-50.734c-7.727-23.543-9.755-57.488-30.557-51.621
		C196.596,210.914,236.426,296.449,238.96,317.814z"/>
	<path fill-rule="evenodd" clip-rule="evenodd" fill="#AA7702" d="M134.912,203.135c-22.822,44.729-45.708,125.282,23.436,131.281
		c7.014,0.609,86.021,4.192,86.204-2.261c0.235-8.471,2.385-16.989,2.385-29.096c0-60.891-11.171-102.501-30.512-124.205
		c-8.491-9.527-14.085,2.181-38.508,0.567C146.75,177.356,149.921,173.728,134.912,203.135z"/>
	<path fill-rule="evenodd" clip-rule="evenodd" fill="#C98C14" d="M281.11,40.273c-5.622,2.024-37.847,25.049-44.68,35.693
		c-10.133-8.149-74.438-4.404-88.949-3.964c-18.024-20.289-31.231-30.584-31.234-30.515c-15.429,51.319-4.258,76.901,6.916,102.317
		c29.996,68.229,102.854,78.047,139.565,8.717C276.211,127.054,290.034,90.391,281.11,40.273z"/>
	<path fill-rule="evenodd" clip-rule="evenodd" fill="#31302F" d="M144.31,146.952c5.474,3.967,11.15-4.393,7.166-7.404
		C144.265,134.098,139.883,143.746,144.31,146.952z"/>
	<path fill-rule="evenodd" clip-rule="evenodd" fill="#F4AFB3" d="M142.393,154.163c-4.161,6.483,7.445,10.689,10.631,5.94
		C158.784,151.518,145.754,148.921,142.393,154.163z"/>
	<path fill-rule="evenodd" clip-rule="evenodd" fill="#F4AFB3" d="M236.572,154.872c-4.69,7.301,8.388,12.047,11.978,6.691
		C255.04,151.891,240.362,148.962,236.572,154.872z"/>
	<path fill-rule="evenodd" clip-rule="evenodd" fill="#FFF3D5" d="M196.454,144.165c-30.237,0-39.158,22.775-27.562,32.623
		c43.711,37.138,81.516-32.623,33.894-32.623C200.677,144.165,198.569,144.165,196.454,144.165z"/>
	<path fill-rule="evenodd" clip-rule="evenodd" fill="#31302F" d="M174.649,168.549c-0.533-2.212-10.673,3.521-14.283,5.303
		c-8.675,4.3-10.817,7.052-8.117,6.644c2.613-0.395,6.161-3.933,10.689-6.162C168.563,171.557,174.981,169.917,174.649,168.549z"/>
	<path fill-rule="evenodd" clip-rule="evenodd" fill="#31302F" d="M173.957,166.167c0.231-2.271-11.236-0.231-15.235,0.253
		c-9.613,1.17-12.545,3.053-9.865,3.562c2.6,0.499,7.124-1.654,12.133-2.257C167.213,166.978,173.815,167.566,173.957,166.167z"/>
	<path fill-rule="evenodd" clip-rule="evenodd" fill="#31302F" d="M174.081,163.792c0.797-2.143-10.813-3.06-14.806-3.604
		c-9.596-1.298-12.912-0.215-10.447,0.956c2.389,1.135,7.308,0.2,12.311,0.882C167.351,162.875,173.589,165.105,174.081,163.792z"/>
	<path fill-rule="evenodd" clip-rule="evenodd" fill="#31302F" d="M217.463,166.694c0.495-2.223,10.738,3.323,14.376,5.044
		c8.758,4.144,10.946,6.851,8.246,6.494c-2.624-0.35-6.241-3.815-10.808-5.972C223.604,169.591,217.159,168.068,217.463,166.694z"/>
	<path fill-rule="evenodd" clip-rule="evenodd" fill="#31302F" d="M218.118,164.298c-0.273-2.261,11.223-0.437,15.234-0.021
		c9.634,0.993,12.601,2.821,9.932,3.385c-2.589,0.544-7.155-1.526-12.175-2.042C224.872,164.991,218.28,165.693,218.118,164.298z"/>
	<path fill-rule="evenodd" clip-rule="evenodd" fill="#31302F" d="M217.944,161.923c-0.83-2.118,10.76-3.258,14.744-3.866
		c9.567-1.472,12.901-0.45,10.465,0.769c-2.375,1.18-7.309,0.328-12.297,1.097C224.657,160.885,218.46,163.232,217.944,161.923z"/>
	<path fill-rule="evenodd" clip-rule="evenodd" fill="#31302F" d="M194.044,175.812c-0.267,2.06,0.232,1.246,2.219,1.371
		c0.056,0.007-0.547-6.996-0.404-7.955c0.079-0.551,0.948-5.985,0.516-5.985C193.889,163.243,194.439,172.793,194.044,175.812z"/>
	<path fill-rule="evenodd" clip-rule="evenodd" fill="#31302F" d="M195.626,178.45c2.081-0.038,6.241-1.253,6.335-3.244
		c0-0.045-4.742,1.51-6.972,1.61c-0.152,0.007-2.922-0.35-6.972-1.51C188.004,177.771,192.248,178.512,195.626,178.45z"/>
	<path fill-rule="evenodd" clip-rule="evenodd" fill="#31302F" d="M197.399,153.172c5.761,0.699,11.157,6.653-1.09,12.625
		C192.542,167.635,180.921,151.168,197.399,153.172z"/>
	<path fill-rule="evenodd" clip-rule="evenodd" fill="#F4AFB3" d="M122.685,56.386c-0.807,1.945,0.661,16.596,0.938,19.396
		c0.893,8.979,3.212,3.168,10.284,0.914c3.773-1.201,11.912-2.275,6.38-7.811C138.149,66.741,125.382,49.872,122.685,56.386z"/>
	<path fill-rule="evenodd" clip-rule="evenodd" fill="#F4AFB3" d="M273.927,59.048c0.807,1.942-0.661,16.592-0.938,19.393
		c-0.886,8.983-3.213,3.168-10.281,0.918c-3.776-1.201-11.908-2.275-6.38-7.813C258.467,69.403,271.227,52.534,273.927,59.048z"/>
	<path fill-rule="evenodd" clip-rule="evenodd" fill="#9D6F00" d="M186.875,140.668c1.658,3.462-5.154-23.913-10.808-34.205
		c-2.606-4.749-5.154-18.19-11.015-27.073c-5.394-8.783-12.383-2.271-8.156,8.931C163.526,105.882,183.213,133.032,186.875,140.668z
		"/>
	<path fill-rule="evenodd" clip-rule="evenodd" fill="#9D6F00" d="M217.197,77.701c0,0-6.557,32.654-8.211,37.984
		c-1.012,3.247-6.868,21.813-5.979,24.381c10.091-11.514,19.288-47.539,19.752-53.708C223.663,74.205,221.928,75.505,217.197,77.701
		z"/>
	<path fill-rule="evenodd" clip-rule="evenodd" fill="#C98C14" d="M173.167,331.333c1.616,14.867,28.677,21.549,37.923,10.277
		c9.443-13.477-12.777-15.318-16.789-27.534c-6.875-20.905-11.777-114.247-39.966-106.6
		C131.817,213.589,162.277,311.123,173.167,331.333z"/>
	<path fill-rule="evenodd" clip-rule="evenodd" fill="#F5A800" d="M198.811,204.689c1.665,3.635,16.267,11.469,20.165,12.172
		c2.298,0.422,7.951,2.028,6.362-1.98c-1.855-4.694-16.063-7.117-20.881-8.775C203.921,205.918,198.725,204.502,198.811,204.689z"/>
	<path fill-rule="evenodd" clip-rule="evenodd" fill="#FAB827" d="M198.811,204.689c-0.218-2.506-0.076-7.355,0.831-9.547
		c1.125-2.7,1.25-3.655,5.32-4.438c2.521-0.487,19.081-3.396,20.175-1.204c1.763,3.548,2.818,17.9,2.191,22.497
		c-0.09,0.71-1.277,5.353-2.167,3.15c-0.695-1.717-9.522-6.179-11.853-6.456c-1.759-0.215-8.724-1.506-9.894-2.385
		C203.308,206.23,198.835,204.969,198.811,204.689z"/>
	<path fill-rule="evenodd" clip-rule="evenodd" fill="#F5A800" d="M192.286,206.559c-1.661,3.627-16.263,11.461-20.157,12.175
		c-2.299,0.415-7.955,2.028-6.362-1.987c1.855-4.69,16.063-7.117,20.874-8.775C187.187,207.784,192.376,206.369,192.286,206.559z"/>
	<path fill-rule="evenodd" clip-rule="evenodd" fill="#FAB827" d="M192.286,206.559c0.226-2.507,0.08-7.356-0.83-9.548
		c-1.118-2.7-1.243-3.659-5.317-4.444c-2.521-0.488-19.077-3.393-20.171-1.202c-1.77,3.549-2.818,17.901-2.191,22.505
		c0.09,0.703,1.277,5.342,2.167,3.144c0.695-1.714,9.52-6.18,11.856-6.456c1.751-0.211,8.72-1.506,9.89-2.382
		C187.796,208.092,192.262,206.842,192.286,206.559z"/>
	<path fill-rule="evenodd" clip-rule="evenodd" fill="#F5A800" d="M201.654,196.475c1.014,2.717,0.581,7.131-1.389,9.52
		c-1.226,1.488-3.652,1.827-5.524,1.827c-1.994,0-4.362,0.475-5.847-0.807c-2.326-1.986-1.987-9.256-0.9-11.797
		C189.603,191.445,200.058,192.186,201.654,196.475z"/>
	<path fill-rule="evenodd" clip-rule="evenodd" fill="#31302F" d="M241.82,145.183c5.47,3.97,11.15-4.396,7.162-7.412
		C241.775,132.33,237.396,141.977,241.82,145.183z"/>
	<path fill-rule="evenodd" clip-rule="evenodd" fill="#9D6F00" d="M176.196,76.617c-2.347,3.652,4.192,6.023,5.989,3.348
		C185.428,75.125,178.089,73.661,176.196,76.617z"/>
	<path fill-rule="evenodd" clip-rule="evenodd" fill="#9D6F00" d="M193.715,86.441c-2.347,3.648,4.192,6.02,5.989,3.348
		C202.948,84.949,195.609,83.485,193.715,86.441z"/>
	<path fill-rule="evenodd" clip-rule="evenodd" fill="#9D6F00" d="M203.291,75.994c-2.343,3.648,4.196,6.023,5.996,3.344
		C212.53,74.505,205.188,73.038,203.291,75.994z"/>
	<path fill-rule="evenodd" clip-rule="evenodd" fill="#9D6F00" d="M231.046,80.421c-2.343,3.652,4.196,6.023,5.992,3.348
		C240.283,78.929,232.94,77.464,231.046,80.421z"/>
	<path fill-rule="evenodd" clip-rule="evenodd" fill="#9D6F00" d="M143.234,77.853c-2.347,3.652,4.192,6.023,5.988,3.351
		C152.466,76.368,145.127,74.9,143.234,77.853z"/>
	<path fill-rule="evenodd" clip-rule="evenodd" fill="#9D6F00" d="M266.667,122.741c-2.344,3.648,4.188,6.023,5.992,3.348
		C275.904,121.252,268.561,119.784,266.667,122.741z"/>
	<path fill-rule="evenodd" clip-rule="evenodd" fill="#9D6F00" d="M262.562,135.622c-1.724,2.689,3.084,4.428,4.403,2.465
		C269.35,134.528,263.958,133.451,262.562,135.622z"/>
	<path fill-rule="evenodd" clip-rule="evenodd" fill="#9D6F00" d="M128.549,127.951c2.344,3.648-4.195,6.023-5.992,3.347
		C119.31,126.458,126.652,124.994,128.549,127.951z"/>
	<path fill-rule="evenodd" clip-rule="evenodd" fill="#9D6F00" d="M132.652,140.834c1.724,2.687-3.085,4.432-4.403,2.462
		C125.86,139.741,131.256,138.661,132.652,140.834z"/>
	<path fill-rule="evenodd" clip-rule="evenodd" fill="#9D6F00" d="M133.562,150.192c1.721,2.683-3.088,4.424-4.403,2.458
		C126.774,149.098,132.167,148.018,133.562,150.192z"/>
	<path fill-rule="evenodd" clip-rule="evenodd" fill="#9D6F00" d="M261.697,150.918c1.724,2.687-3.084,4.428-4.403,2.462
		C254.909,149.825,260.301,148.749,261.697,150.918z"/>
	<path fill-rule="evenodd" clip-rule="evenodd" fill="#AA7702" d="M187.055,370.501c13.792,12.618,44.701-3.458,44.078-21.663
		c-2.264-20.445-24.641-3.832-38.49-11.978c-23.699-13.947-55.336-67.926-75.469-37.483
		C126.167,355.907,160.158,360.525,187.055,370.501z"/>
	<path fill-rule="evenodd" clip-rule="evenodd" fill="#AA7702" d="M263.095,348.274c13.795,12.618,44.701-3.451,44.078-21.66
		c-2.265-20.444-24.641-3.832-38.491-11.98c-23.702-13.947-55.335-67.93-75.472-37.477
		C202.204,333.679,236.191,338.297,263.095,348.274z"/>
	<path fill-rule="evenodd" clip-rule="evenodd" fill="#805600" d="M146.882,190.604c-2.34,3.648,4.195,6.02,5.992,3.344
		C156.119,189.108,148.78,187.647,146.882,190.604z"/>
	<path fill-rule="evenodd" clip-rule="evenodd" fill="#805600" d="M138.761,201.529c-2.344,3.652,4.192,6.023,5.992,3.348
		C147.998,200.037,140.659,198.573,138.761,201.529z"/>
	<path fill-rule="evenodd" clip-rule="evenodd" fill="#805600" d="M126.264,225.643c-2.347,3.648,4.196,6.02,5.992,3.348
		C135.503,224.155,128.162,222.69,126.264,225.643z"/>
	<path fill-rule="evenodd" clip-rule="evenodd" fill="#805600" d="M121.833,245.426c-2.34,3.652,4.199,6.023,5.992,3.345
		C131.07,243.938,123.734,242.47,121.833,245.426z"/>
	<path fill-rule="evenodd" clip-rule="evenodd" fill="#805600" d="M121.542,265.653c-2.347,3.652,4.196,6.023,5.992,3.348
		C130.779,264.162,123.436,262.697,121.542,265.653z"/>
	<path fill-rule="evenodd" clip-rule="evenodd" fill="#805600" d="M117.116,285.437c-2.348,3.652,4.191,6.023,5.988,3.348
		C126.351,283.949,119.009,282.484,117.116,285.437z"/>
	<path fill-rule="evenodd" clip-rule="evenodd" fill="#805600" d="M129.02,308.886c-2.347,3.656,4.195,6.023,5.992,3.352
		C138.252,307.398,130.917,305.934,129.02,308.886z"/>
	<path fill-rule="evenodd" clip-rule="evenodd" fill="#805600" d="M129.466,329.068c-1.675,2.61,3.002,4.311,4.289,2.396
		C136.079,327.999,130.827,326.946,129.466,329.068z"/>
	<path fill-rule="evenodd" clip-rule="evenodd" fill="#805600" d="M142.064,325.402c-1.679,2.614,3.001,4.307,4.282,2.396
		C148.672,324.336,143.417,323.284,142.064,325.402z"/>
	<path fill-rule="evenodd" clip-rule="evenodd" fill="#805600" d="M142.309,340.191c-2.347,3.651,4.192,6.023,5.989,3.344
		C151.542,338.699,144.207,337.234,142.309,340.191z"/>
	<path fill-rule="evenodd" clip-rule="evenodd" fill="#805600" d="M157.084,345.926c-1.68,2.617,3.001,4.313,4.289,2.399
		C163.696,344.861,158.441,343.815,157.084,345.926z"/>
	<path fill-rule="evenodd" clip-rule="evenodd" fill="#805600" d="M133.755,239.916c-1.679,2.613,3.005,4.313,4.289,2.396
		C140.368,238.853,135.116,237.804,133.755,239.916z"/>
	<path fill-rule="evenodd" clip-rule="evenodd" fill="#805600" d="M134.347,286.573c-1.679,2.616,3.005,4.313,4.286,2.396
		C140.956,285.509,135.701,284.46,134.347,286.573z"/>
	<path fill-rule="evenodd" clip-rule="evenodd" fill="#805600" d="M228.409,215.916c-1.682,2.613,2.998,4.307,4.286,2.396
		C235.017,214.846,229.766,213.8,228.409,215.916z"/>
	<path fill-rule="evenodd" clip-rule="evenodd" fill="#805600" d="M251.63,118.057c-1.68,2.613,3.001,4.306,4.289,2.389
		C258.242,116.987,252.991,115.938,251.63,118.057z"/>
	<path fill-rule="evenodd" clip-rule="evenodd" fill="#805600" d="M137.65,119.234c-1.679,2.613,3.002,4.313,4.282,2.396
		C144.258,118.171,139.003,117.123,137.65,119.234z"/>
	<path fill-rule="evenodd" clip-rule="evenodd" fill="#805600" d="M113.872,94.992c-1.679,2.613,3.005,4.307,4.289,2.389
		C120.48,93.921,115.229,92.873,113.872,94.992z"/>
	<path fill-rule="evenodd" clip-rule="evenodd" fill="#805600" d="M266.833,97.945c-1.679,2.613,3.002,4.309,4.289,2.392
		C273.442,96.878,268.191,95.83,266.833,97.945z"/>
</g>
<rect x="-655" y="-522" fill-rule="evenodd" clip-rule="evenodd" fill="none" stroke="#00A651" stroke-width="10" stroke-miterlimit="10" width="2843" height="1848"/>
</svg>
