<?xml version="1.0" encoding="utf-8"?>
<!-- Generator: Adobe Illustrator 16.0.0, SVG Export Plug-In . SVG Version: 6.00 Build 0)  -->
<!DOCTYPE svg PUBLIC "-//W3C//DTD SVG 1.1//EN" "http://www.w3.org/Graphics/SVG/1.1/DTD/svg11.dtd">
<svg version="1.1" id="Layer_1" xmlns="http://www.w3.org/2000/svg" xmlns:xlink="http://www.w3.org/1999/xlink" x="0px" y="0px"
	 width="400px" height="400px" viewBox="0 0 400 400" enable-background="new 0 0 400 400" xml:space="preserve">
<g>
	<path fill-rule="evenodd" clip-rule="evenodd" fill="#CA9862" d="M244.229,257.316c6.384,15.635,3.579,94.832,9.804,93.523
		c1.719-0.365,7.055,1.555,8.408-0.742c4.263-7.207,2.818-25.861,3.28-31.793c0.703-9.141,5.294-63.982-4.409-63.982
		C254.225,254.322,250.847,255.533,244.229,257.316z"/>
	<path fill-rule="evenodd" clip-rule="evenodd" fill="#BC8039" d="M147.21,214.813c-5.509,10.387-19.296,38.162-30.548,73.246
		c6.326,25.793,16.904,48.627,22.826,56.063c2.896,0.631,11.119-3.301,11.923-5.164c1.686-3.918-12.58-33.045-15.704-50.707
		c8.981-6.732,22.029-19.852,25.114-23.609c5.226-1.078,0.94,95.35,11.678,109.592c2.347,2.121,10.699-0.566,11.073-3.039
		c-0.608-10.543-1.278-92.252,7.159-90.824c27.361,4.631,57.096,1.816,76.525-6.27c3.045-1.266,6.022,80.479,11.389,80.479
		c10.897,0,7.701,5.988,14.021-18.445c4.292-16.592,9.144-120.133,1.133-135.939l-0.062-0.117
		c2.358-4.139,4.754-12.381,5.001-13.836c3.484-20.359-25.713-30.486-22.84-28.264c11.146,8.621,22.628,24.424,14.627,38.352
		c-16.696-10.314-49.616-13.211-68.039-2.676C192.53,210.781,156.708,196.939,147.21,214.813z"/>
	<path fill-rule="evenodd" clip-rule="evenodd" fill="#8E6334" d="M147.539,177.275c-8.803-8.215-22.752,7.299-14.103,15.879
		c1.19,1.186-13.114,0.391-15.629,10.303c-3.017,11.91,7.988,17.754,7.364,17.814c-4.455,0.434-10.354,2.844-13.102,7.336
		c-2.189,3.588-1.688,13.438,3.258,16.359c-12.834-0.992-18.785,23.07,4.926,25.684c-15.472,19.449,10.313,44.074,35.81,22.068
		c7.049,36.713,42.793,25.221,53.726,9.381c12.639,9.033,37.566,16.738,42.252-2.672c18.563,14.646,33.327-6.049,30.763-14.988
		c7.962,2.344,30.145-2.625,14.929-26.43c2.513-3.479,30.711-12.715-1.21-32.137c13.933-12.152,5.082-31.049-10.819-31.549
		c10.985-14.607-6.111-29.764-22.738-17.945c-3.563-12.457-26.9-16.377-39.389,2.137c-3.557,5.268-19.303-17.041-40.872,2.834
		C180.774,175.551,160.577,152.836,147.539,177.275z"/>
	<path fill-rule="evenodd" clip-rule="evenodd" fill="#694926" d="M224.705,101.912c11.245-10.564,12.696-46.678,3.908-58.604
		c-12.642-17.16-26.143-22.359-19.416-15.166c10.194,10.9,9.745,44.111,3.423,56.668
		C207.798,94.383,223.107,103.422,224.705,101.912z"/>
	<path fill-rule="evenodd" clip-rule="evenodd" fill="#694926" d="M126.759,109.4c-11.245-10.572-12.696-46.686-3.911-58.613
		c12.648-17.154,26.148-22.357,19.413-15.156c-10.185,10.893-9.742,44.105-3.417,56.656
		C143.67,101.863,128.356,110.896,126.759,109.4z"/>
	<path fill-rule="evenodd" clip-rule="evenodd" fill="#CA9862" d="M126.834,201.094c10.852,11.273,28.02,18.434,44.263,19.707
		c23.278,1.832,43.075-7.436,56.94-22.957c7.475-8.375,14.382-22.293,14.061-36.945c-0.368-16.818-7.937-38.916-12.144-48.502
		c35.48,63.754,33.339-29.719-9.216-7.945c-8.688,0-6.752-10.557-35.891-10.557c-14.606,0-55.238,1.344-67.05,7.994
		c-64.358,37.408-12.808,62.586,1.575,7.746C103.934,152.195,112.585,186.297,126.834,201.094z"/>
	<path fill-rule="evenodd" clip-rule="evenodd" fill="#31302F" d="M123.805,167.092c4.148,3.01,8.46-3.336,5.434-5.619
		C123.771,157.34,120.447,164.658,123.805,167.092z"/>
	<path fill-rule="evenodd" clip-rule="evenodd" fill="#31302F" d="M227.341,170.18c3.442,2.752,7.009-3.049,4.507-5.139
		C227.314,161.26,224.556,167.953,227.341,170.18z"/>
	<path fill-rule="evenodd" clip-rule="evenodd" fill="#F4AFB3" d="M205.998,175.668c-6.144,9.58,11.005,15.799,15.717,8.779
		C230.224,171.758,210.974,167.922,205.998,175.668z"/>
	<path fill-rule="evenodd" clip-rule="evenodd" fill="#8E6334" d="M104.697,102.982c-7.377,5.688-6.328,19.971,7.67,19.182
		c4.699-0.264,4.285-9.148,4.592-0.484c0.129,3.66,5.785,7.455,10.646,5.102c-0.137,4.504,2.929,8.861,10.09,8.455
		c1.888-0.105,2.782-1.895,3.225-2.891c0.163,0.096,0.325,0.176,0.488,0.254c0.026,0.492,0.056,1.221,0.088,2.236
		c0.153,4.328,9.632,8.887,13.211-1.471c5.951,19.059,17.874,9.607,18.723,0.813c2.552,4.986,15.707,3.359,15.707-4.746
		c-0.342,4.15,13.363,4.873,12.97-5.559c4.777,6.717,15.524,7.342,15.713-4.832c0.029-2.316,1.764,2.902,5.435,4.994
		c10.12,5.775,18.71,0.518,13.009-10.328c10.888,0.984,8.711-16.436-2.902-12.299c-0.322-1.594-0.953-3.348-1.949-5.242
		c15.636,1.408,8.968-28.582-12.625-8.939c4.051-12.146-19.976-22.318-25.521-8.762c-21.134-18.701-28.215,6.258-28.556,9.689
		c-4.521-12.4-23.839-17.121-26.035,6.297c-6.765-20.979-21.642-11.877-22.279-0.514C112.588,81.26,93.631,94.158,104.697,102.982z"
		/>
	<path fill-rule="evenodd" clip-rule="evenodd" fill="#FDE3C4" d="M152.787,181.832c-17.831,27.777,31.911,45.801,45.564,25.459
		C223.036,170.498,167.205,159.363,152.787,181.832z"/>
	<path fill-rule="evenodd" clip-rule="evenodd" fill="#31302F" d="M175.815,194.363c-0.251,1.916,0.211,1.158,2.05,1.275
		c0.049,0.002-0.508-6.477-0.378-7.367c0.085-0.512,0.886-5.541,0.485-5.541C175.669,182.73,176.18,191.57,175.815,194.363z"/>
	<path fill-rule="evenodd" clip-rule="evenodd" fill="#31302F" d="M177.276,196.809c1.926-0.031,5.782-1.16,5.863-3.002
		c0.007-0.039-4.387,1.402-6.449,1.492c-0.144,0.008-2.711-0.324-6.456-1.398C170.225,196.186,174.149,196.867,177.276,196.809z"/>
	<path fill-rule="evenodd" clip-rule="evenodd" fill="#F4AFB3" d="M127.797,173.732c-6.146,9.582,11.002,15.799,15.714,8.779
		C152.022,169.822,132.772,165.982,127.797,173.732z"/>
	<path fill-rule="evenodd" clip-rule="evenodd" fill="#31302F" d="M178.916,173.406c5.333,0.645,10.331,6.158-1.012,11.691
		C174.423,186.801,163.658,171.553,178.916,173.406z"/>
	<path fill-rule="evenodd" clip-rule="evenodd" fill="#694926" d="M299.493,117.254c-3.297-1.598-5.281,1.588-4.572,3.771
		c0.569,1.734,3.352,2.695,4.888,1.162C300.954,121.045,300.954,117.967,299.493,117.254z"/>
	<path fill-rule="evenodd" clip-rule="evenodd" fill="#4CBAC9" d="M290.108,129.158c1.032-1.305-8.499-16.768-12.332-17.881
		c-8.454-2.447,6.059,16.488,8.613,17.545C287.428,129.256,289.201,130.307,290.108,129.158z"/>
	<path fill-rule="evenodd" clip-rule="evenodd" fill="#4CBAC9" d="M289.26,130.361c0.413-1.885-17.399-13.162-21.968-12.371
		c-10.064,1.75,14.715,14.111,17.916,13.92C286.52,131.832,288.898,132.027,289.26,130.361z"/>
	<path fill-rule="evenodd" clip-rule="evenodd" fill="#4CBAC9" d="M291.092,130.387c0.624-1.545,18.778-0.887,21.638,1.9
		c6.293,6.141-17.33,2.867-19.517,1.168C292.324,132.764,290.535,131.74,291.092,130.387z"/>
	<path fill-rule="evenodd" clip-rule="evenodd" fill="#4CBAC9" d="M290.46,131.715c1.436-1.289,20.034,8.639,21.603,13.002
		c3.443,9.615-19.539-5.83-20.948-8.717C290.535,134.826,289.191,132.854,290.46,131.715z"/>
	<path fill-rule="evenodd" clip-rule="evenodd" fill="#694926" d="M296.294,123.004c0.632,0.752,1.058,1.025-0.761,3.885
		c-2.707,4.238-9.046,14.758-13.497,17.533C274.936,148.844,292.878,118.924,296.294,123.004z"/>
</g>
<rect x="-1495" y="-942" fill-rule="evenodd" clip-rule="evenodd" fill="none" stroke="#00A651" stroke-width="10" stroke-miterlimit="10" width="2843" height="1848"/>
</svg>
