<?xml version="1.0" encoding="utf-8"?>
<!-- Generator: Adobe Illustrator 16.0.0, SVG Export Plug-In . SVG Version: 6.00 Build 0)  -->
<!DOCTYPE svg PUBLIC "-//W3C//DTD SVG 1.1//EN" "http://www.w3.org/Graphics/SVG/1.1/DTD/svg11.dtd">
<svg version="1.1" id="Layer_1" xmlns="http://www.w3.org/2000/svg" xmlns:xlink="http://www.w3.org/1999/xlink" x="0px" y="0px"
	 width="400px" height="400px" viewBox="0 0 400 400" enable-background="new 0 0 400 400" xml:space="preserve">
<g>
	<path fill-rule="evenodd" clip-rule="evenodd" fill="#C98C14" d="M76.92,206.794c8.377,7.23,30.215,14.42,52.713,14.734
		c3.699,0.054-19.883,48.55-16.209,91.701c2.807,32.946,26.576,47.012,43.664,56.488c27.02,14.988,155.758-6.012,187.48-12.587
		c2.982-25.188-124.664,13.49-168.295-16.895c-39.785-27.709-5.02-128.867-2.77-130.532c18.496-13.697,21.332-60.819,6.652-81.844
		C112.828,31.44,22.576,159.877,76.92,206.794z"/>
	<path fill-rule="evenodd" clip-rule="evenodd" fill="#F4AFB3" d="M66.744,170.21c-5.33,8.304,9.537,13.69,13.621,7.611
		C87.738,166.826,71.055,163.495,66.744,170.21z"/>
	<path fill-rule="evenodd" clip-rule="evenodd" fill="#F4AFB3" d="M141.893,170.431c-5.33,8.3,9.533,13.688,13.617,7.607
		C162.887,167.04,146.199,163.716,141.893,170.431z"/>
	<path fill-rule="evenodd" clip-rule="evenodd" fill="#31302F" d="M68.449,162.077c4.074,2.953,8.307-3.277,5.338-5.518
		C68.42,152.51,65.158,159.689,68.449,162.077z"/>
	<path fill-rule="evenodd" clip-rule="evenodd" fill="#31302F" d="M154.459,164.859c3.379,2.702,6.883-2.993,4.422-5.043
		C154.434,156.111,151.725,162.673,154.459,164.859z"/>
	<path fill-rule="evenodd" clip-rule="evenodd" d="M107.479,181.226c2.365-0.184,4.404-1.07,5.826-2.528
		c1.488-1.528,2.311-3.651,2.621-4.889c0.248-1.01,0.061-1.716-0.529-1.441c-0.193,0.094-0.557,1.735-1.359,3.294
		c-0.674,1.304-1.746,2.501-2.385,3.026c-1.887,1.548-4.689,2.017-6.734,0.568c-0.627-0.444-1.215-1.033-1.699-1.608
		c-0.666-0.789-1.15-1.552-1.311-1.887c-0.271-0.571-0.857-1.133-1.027-0.24C100.607,176.981,104.416,181.46,107.479,181.226z"/>
	<path fill-rule="evenodd" clip-rule="evenodd" fill="#C98C14" d="M96.4,115.908c-0.389-13.529-7.541-67.523-21.998-65.096
		c-1.057,0.181-0.344,20.975-16.012,7.1c-9.148-8.096,3.404-31.592,26.188-10.751c5.813,5.317,20.998,41.072,16.641,67.805
		C101.215,114.986,96.4,115.969,96.4,115.908z"/>
	<path fill-rule="evenodd" clip-rule="evenodd" fill="#C98C14" d="M137.461,108.251c-0.414-14.606-8.133-72.86-23.732-70.239
		c-1.137,0.193-0.375,22.633-17.275,7.658c-9.871-8.742,3.672-34.086,28.25-11.604c6.273,5.739,22.66,44.315,17.959,73.173
		C142.662,107.254,137.465,108.318,137.461,108.251z"/>
	<path fill-rule="evenodd" clip-rule="evenodd" fill="#FCE387" d="M163.117,337.913c107.35,78.702,186.947-44.216,145.027-104.256
		C204.57,110.732,82.967,268.727,163.117,337.913z"/>
	<path fill-rule="evenodd" clip-rule="evenodd" fill="#E6CD76" d="M170.959,329.804c18.68,16.131,88.445,32.106,126.637,3.818
		c24.258-17.965,27.977-79.75,8.729-107.312C218.041,99.874,99.693,268.292,170.959,329.804z"/>
	<path fill-rule="evenodd" clip-rule="evenodd" fill="#FCE387" d="M178.801,321.697c16.354,14.118,77.42,28.101,110.85,3.341
		c21.229-15.721,24.482-69.808,7.635-93.933C220.014,120.437,116.424,267.851,178.801,321.697z"/>
	<path fill-rule="evenodd" clip-rule="evenodd" fill="#E6CD76" d="M201.41,306.441c15.902,13.73,75.293,27.321,107.801,3.244
		c20.648-15.29,23.813-67.886,7.43-91.348C241.49,110.715,140.748,254.073,201.41,306.441z"/>
	<path fill-rule="evenodd" clip-rule="evenodd" fill="#FCE387" d="M208.088,299.539c13.918,12.019,65.902,23.917,94.357,2.839
		c18.074-13.379,20.848-59.414,6.504-79.953C243.172,128.215,154.992,253.705,208.088,299.539z"/>
	<path fill-rule="evenodd" clip-rule="evenodd" fill="#E6CD76" d="M239.932,278.726c11.922,10.293,56.434,20.479,80.799,2.435
		c15.473-11.46,17.848-50.877,5.564-68.464C269.971,132.034,194.469,239.479,239.932,278.726z"/>
	<path fill-rule="evenodd" clip-rule="evenodd" fill="#FCE387" d="M245.389,273.088c10.299,8.888,48.76,17.693,69.811,2.1
		c13.373-9.898,15.424-43.961,4.809-59.153C271.346,146.337,206.105,239.175,245.389,273.088z"/>
	<path fill-rule="evenodd" clip-rule="evenodd" fill="#E6CD76" d="M294.492,231.152c2.713,2.338,12.836,4.655,18.377,0.552
		c3.521-2.608,4.057-11.573,1.264-15.566C301.328,197.792,284.152,222.224,294.492,231.152z"/>
	<path fill-rule="evenodd" clip-rule="evenodd" fill="#FCE387" d="M298.582,226.926c1.492,1.291,7.084,2.568,10.141,0.301
		c1.945-1.435,2.24-6.384,0.701-8.591C302.352,208.51,292.871,221.997,298.582,226.926z"/>
	<path fill-rule="evenodd" clip-rule="evenodd" fill="#694926" d="M219.402,147.517c4.193,1.612,24.117,1.422,26.535,7.538
		c-2.699,3.05-15.461-1.177-18.447-2.589c-1.916-0.902-9.504-0.755-9.182-3.374C218.338,148.848,218.338,147.112,219.402,147.517z"
		/>
	<path fill-rule="evenodd" clip-rule="evenodd" fill="#694926" d="M214.75,143.551c-3.645,0.863-4.385,8.327,2.527,6.02
		C219.586,148.802,219.219,142.501,214.75,143.551z"/>
	<path fill-rule="evenodd" clip-rule="evenodd" fill="#4CBAC9" d="M220.695,118.604c10.291-4.871,28.938,2.997,25.826,15.146
		c-0.715,2.786-7.246,13.26-10.045,14.403c-3.246,1.324-4.293,2.144-8.303,2.144C217.727,150.296,212.516,122.47,220.695,118.604z"
		/>
	<path fill-rule="evenodd" clip-rule="evenodd" fill="#92D0D8" d="M234.102,149.911c1.9-5.494,12.715-16.9,18.5-15.984
		c12.48,1.993-2.688,16.895-13.318,17.152C235.754,151.159,233.959,150.333,234.102,149.911z"/>
</g>
<rect x="-2335" y="-1362" fill-rule="evenodd" clip-rule="evenodd" fill="none" stroke="#00A651" stroke-width="10" stroke-miterlimit="10" width="2843" height="1848"/>
</svg>
