<?xml version="1.0" encoding="utf-8"?>
<!-- Generator: Adobe Illustrator 16.0.0, SVG Export Plug-In . SVG Version: 6.00 Build 0)  -->
<!DOCTYPE svg PUBLIC "-//W3C//DTD SVG 1.1//EN" "http://www.w3.org/Graphics/SVG/1.1/DTD/svg11.dtd">
<svg version="1.1" id="Layer_1" xmlns="http://www.w3.org/2000/svg" xmlns:xlink="http://www.w3.org/1999/xlink" x="0px" y="0px"
	 width="400px" height="400px" viewBox="0 0 400 400" enable-background="new 0 0 400 400" xml:space="preserve">
<g>
	<path fill-rule="evenodd" clip-rule="evenodd" fill="#4CBAC9" d="M311.062,119.745c6.777,1.318,25.503-0.885,37.114-4.053
		c-8.411-26.547-23.662-47.566-54.219-25.814C280.318,99.649,304.862,118.536,311.062,119.745z"/>
	<path fill-rule="evenodd" clip-rule="evenodd" fill="#008C9E" d="M180.205,245.966c-2.241,6.529-2.745,20.787-8.018,23.633
		c13.378,5.34,47.188-7.605,29.861-40.879C194.257,213.866,182.264,239.997,180.205,245.966z"/>
	<path fill-rule="evenodd" clip-rule="evenodd" fill="#4CBAC9" d="M169.759,52.792c-78.109,27.037-81.782,79.426-67.771,111.379
		c4.591,10.459-19.85,40.316-12.207,54.262c17.811,32.512,75.272,11.855,96.73,10.561c19.077-6.385,53.818,51.387-10.367,87.277
		c-56.961,31.855-82.319-16.908-82.27-16.248c3.92,54.609,64.512,90.941,127.882,67.971
		c31.706-11.488,90.127-49.469,107.769-102.633C366.157,154.929,299.098,8.022,169.759,52.792z"/>
	<path fill-rule="evenodd" clip-rule="evenodd" fill="#008C9E" d="M97.034,316.962c0.066-1.695-25.234,4.201-41.61-9.635
		c-9.875-8.354-14.474-32.918-14.048-45.043c11.021-7.924,43.352,27.533,50.415,35.961c2.158,2.572,11.339,18.162,6.803,18.395
		L97.034,316.962z"/>
	<path fill-rule="evenodd" clip-rule="evenodd" fill="#008C9E" d="M103.625,315.146c-1.096-1.285,22.438-12.293,26.756-33.293
		c2.598-12.668-8.981-34.828-16.806-44.092c-13.556,0.588-17.063,48.441-17.397,59.434c-0.104,3.361,2.319,21.281,6.025,18.658
		L103.625,315.146z"/>
	<path fill-rule="evenodd" clip-rule="evenodd" fill="#31302F" d="M156.422,176.632c4.735,2.91,8.304-4.906,4.847-7.131
		C155.012,165.474,152.588,174.278,156.422,176.632z"/>
	<path fill-rule="evenodd" clip-rule="evenodd" fill="#F4AFB3" d="M156.182,196.345c10.037,5.777,17.53-9.631,10.194-14.057
		C153.119,174.298,148.073,191.667,156.182,196.345z"/>
	<path fill-rule="evenodd" clip-rule="evenodd" fill="#92D0D8" d="M184.113,229.093c82.633-38.406,102.703,17.824,84.118,54.355
		c-18.436,36.227-54.269,51.387-95.779,34.799c6.786-2.914,21.136-12.045,29.468-23.07c11.161-14.756,14.92-33.311,7.601-48.699
		C205.033,237.024,196.382,228.481,184.113,229.093z"/>
	<path fill-rule="evenodd" clip-rule="evenodd" fill="#31302F" d="M145.554,222.245c-1.112,0.404-1.187,3.32-2.837,4.805
		c-1.724,1.555-4.858,2.813-7.112,2.406c-2.771-0.512-4.9-1.654-7.15-6.773c-1.348-0.24,0.074,3.945,1.112,5.281
		c3.127,4.049,11.629,4.57,14.817-0.648C145.178,226.017,146.559,221.872,145.554,222.245z"/>
	<path fill-rule="evenodd" clip-rule="evenodd" fill="#6EC5D2" d="M106.38,158.688c8.791-2.164,17.637-82.754,113.409-91.688
		c34.473,2.709,67.291,20.141,85.677,50.021c14.771,24.027,21.976,50.047,30.792,82.701
		c-2.067-93.125-65.761-180.826-169.637-144.867c-42.698,14.779-60.869,45.377-64.881,68.99
		C98.299,144.044,106.281,158.708,106.38,158.688z"/>
	<path fill-rule="evenodd" clip-rule="evenodd" fill="#694926" d="M141.568,37.735c0.633,5.23,2.928,8.828,5.115,11.203
		c0.757,0.814,1.477,1.477,2.093,1.955c-0.265-0.063-0.542-0.127-0.852-0.193c-3.685-0.811-7.563-3.02-9.81-6.104
		c-1.662-2.301-2.271-1.357-1.865-0.795c3.064,4.285,6.812,6.332,9.872,7.361c0.859,0.289,1.658,0.504,2.34,0.637
		c-0.223,0.09-0.467,0.189-0.728,0.311c-3.453,1.525-7.882,2.029-11.513,0.855c-2.7-0.869-2.639,0.248-1.977,0.467
		c5.004,1.65,9.229,1.088,12.307,0.121c1.575-0.502,2.796-1.088,3.531-1.547h0.207c4.81,1.473,8.875,0.918,11.853-0.025
		c4.647-1.48,6.219-3.672,1.187-1.447c-3.462,1.521-7.887,2.031-11.521,0.859c-0.715-0.223-1.229-0.314-1.596-0.33
		c-0.344-0.4-0.897-0.959-1.725-1.666c-2.837-2.49-5.178-6.281-5.657-10.066C142.469,36.515,141.481,37.048,141.568,37.735z"/>
	<path fill-rule="evenodd" clip-rule="evenodd" fill="#EA5C05" d="M137.544,33.687c-1.149,1.217-0.786,3.457,0.942,4.664
		C147.295,44.513,144.521,26.351,137.544,33.687z"/>
	<path fill-rule="evenodd" clip-rule="evenodd" fill="#EA5C05" d="M136.543,44.38c1.58-1.363-0.041-5.201-3.098-5.922
		C126.676,36.884,130.068,49.979,136.543,44.38z"/>
	<path fill-rule="evenodd" clip-rule="evenodd" fill="#EA5C05" d="M132.9,55.831c7.767-1.115,1.262-11.285-4.669-6.914
		C127.934,49.132,127.069,56.671,132.9,55.831z"/>
	<path fill-rule="evenodd" clip-rule="evenodd" fill="#6F813A" d="M167.981,54.575c-0.157,0.215-4.673,0.434-9.214,1.504
		c-1.001,0.236-2.093,0.547-3.242,0.906c0.422-4.035-6.939-7.869-7.551-7.518c-3.557,2.066,1.584,7.047,6.004,8.025
		c-2.423,0.828-5.004,1.846-7.427,2.9c-0.555-4.049-8.718-5.918-9.214-5.426c-2.812,2.787,2.854,6.162,7.328,6.26
		c-1.365,0.625-2.646,1.242-3.792,1.828c-0.55,0.281-1.534,0.736-2.738,1.279c-0.996-4.182-9.846-4.322-10.247-3.711
		c-2.13,3.26,3.892,5.359,8.267,4.611c-1.853,0.848-3.888,1.783-5.509,2.617c-4.549-0.645-11.735,3.215-8.602,6.262
		c0.505,0.492,8.564-1.439,9.147-5.451c0.766-0.43,1.696-0.908,2.746-1.43c-3.2,3.271-4.573,10.871-0.339,10.383
		c0.728-0.086,4.549-8.068,1.257-10.826c1.985-0.955,4.301-1.996,6.691-3.023c-3.196,3.268-4.565,10.861-0.327,10.377
		c0.716-0.088,4.512-8.002,1.286-10.799c3.011-1.281,6.063-2.533,8.644-3.555c-2.97,3.428-4.119,10.516-0.029,10.039
		c0.707-0.074,4.367-7.674,1.48-10.611c1.009-0.389,1.919-0.736,2.676-1.016c2.191-0.811,12.654-2.268,12.708-3.152
		C168.005,54.757,168.064,54.446,167.981,54.575z"/>
	<path fill-rule="evenodd" clip-rule="evenodd" fill="#759D35" d="M168.27,51.685c0.215-0.033,1.952-3.127,4.289-5.936
		c0.524-0.623,1.12-1.285,1.773-1.959c-2.978-1.121-3.097-7.643-2.634-7.945c2.696-1.773,4.396,3.582,3.535,7.035
		c1.427-1.418,3.053-2.875,4.641-4.201c-2.646-1.809-1.104-8.201-0.583-8.375c2.948-1,3.329,4.16,1.832,7.344
		c0.913-0.752,1.794-1.434,2.613-2.025c0.396-0.289,1.059-0.828,1.86-1.477c-2.593-2.162,0.414-8.439,0.98-8.506
		c3.04-0.348,2.395,4.611,0.348,7.426c1.244-1.004,2.609-2.1,3.768-2.951c1.137-3.416,6.372-7.117,7.41-3.846
		c0.165,0.52-4.012,5.508-7.038,4.512c-0.566,0.383-1.232,0.871-1.961,1.434c3.412-1.107,9.239,0.596,7.411,3.4
		c-0.314,0.479-7.266,0.363-8.048-2.92c-1.364,1.066-2.911,2.332-4.475,3.646c3.42-1.1,9.239,0.596,7.415,3.4
		c-0.31,0.479-7.212,0.367-8.035-2.871c-1.96,1.664-3.912,3.367-5.537,4.822c3.453-0.885,8.837,0.795,7.067,3.498
		c-0.302,0.473-6.923,0.373-7.973-2.67c-0.629,0.563-1.188,1.082-1.654,1.514c-1.34,1.256-6.025,8.096-6.666,7.824
		C168.403,51.774,168.159,51.704,168.27,51.685z"/>
	<path fill-rule="evenodd" clip-rule="evenodd" fill="#FBBF04" d="M161.191,47.681c-5.608-8.453-1.729-22.637,1.724-21.248
		c2.87,1.15,2.424,9.242,3.188,17.684c0.472,5.119-0.231,1.928,1.121-1.572c2.774-7.178,12.853-16.26,8.572-5.178
		c-1.381,3.6-4.954,7.941-5.839,10.029c24.722-20.145,7.758-0.496,4.317,2.85c3.614,0.264,14.449,5.971,14.603,9.039
		c0.178,3.648-7.548,3.354-17.741-3.664c13.113,18.164,10.517,25.459-3.105,6.494c0.595,21.016-7.519,12.588-6.84,7.088
		c0.148-1.221,1.646-7.99,1.637-8.057c-6.285,4.93-13.514,7.502-13.919,6.563c-0.782-1.799,10.599-11.881,10.354-11.885
		c-8.767-0.443-14.292-9.143-13.08-9.846C150.662,43.405,158.626,43.823,161.191,47.681z"/>
	<path fill-rule="evenodd" clip-rule="evenodd" fill="#92D0D8" d="M169.28,54.735c0.091-0.09,1.431-7.725-4.508-4.416
		C161.265,52.271,162.737,61.534,169.28,54.735z"/>
	<path fill-rule="evenodd" clip-rule="evenodd" fill="#EA5C05" d="M185.416,51.394c2.332,3.527,0.716,9.438-0.728,8.859
		c-1.191-0.48-1.001-3.855-1.327-7.373c-0.19-2.131,0.103-0.803-0.46,0.652c-1.157,2.998-5.359,6.777-3.581,2.158
		c0.588-1.496,2.068-3.313,2.44-4.18c-10.306,8.402-3.234,0.207-1.799-1.184c-1.51-0.107-6.025-2.49-6.084-3.768
		c-0.082-1.518,3.144-1.396,7.391,1.527c-5.463-7.576-4.388-10.613,1.294-2.709c-0.248-8.764,3.127-5.248,2.854-2.949
		c-0.066,0.504-0.687,3.324-0.687,3.357c2.622-2.051,5.629-3.135,5.807-2.74c0.322,0.748-4.421,4.949-4.317,4.957
		c3.655,0.182,5.955,3.813,5.45,4.104C189.799,53.173,186.478,53.007,185.416,51.394z"/>
	<path fill-rule="evenodd" clip-rule="evenodd" fill="#FBBF04" d="M182.042,48.454c-0.037,0.037-0.596,3.221,1.877,1.84
		C185.382,49.483,184.771,45.622,182.042,48.454z"/>
	<path fill-rule="evenodd" clip-rule="evenodd" fill="#008C9E" d="M335.101,190.663c6.533,4.221,16.905,16.482,23.551,15.334
		c-8.118,14.039-47.049,26.115-54.881-15.389C300.321,172.04,329.129,186.804,335.101,190.663z"/>
</g>
<rect x="-1495" y="-1362" fill-rule="evenodd" clip-rule="evenodd" fill="none" stroke="#00A651" stroke-width="10" stroke-miterlimit="10" width="2843" height="1848"/>
</svg>
