<?xml version="1.0" encoding="utf-8"?>
<!-- Generator: Adobe Illustrator 16.0.0, SVG Export Plug-In . SVG Version: 6.00 Build 0)  -->
<!DOCTYPE svg PUBLIC "-//W3C//DTD SVG 1.1//EN" "http://www.w3.org/Graphics/SVG/1.1/DTD/svg11.dtd">
<svg version="1.1" id="Layer_1" xmlns="http://www.w3.org/2000/svg" xmlns:xlink="http://www.w3.org/1999/xlink" x="0px" y="0px"
	 width="400px" height="400px" viewBox="0 0 400 400" enable-background="new 0 0 400 400" xml:space="preserve">
<g>
	<path fill-rule="evenodd" clip-rule="evenodd" fill="#7D6851" d="M316.982,167.846c14.781,3.39,14.689,10.844,28.941,7.144
		c24.367-6.333,32.033,8.248,28.1,7.623c-15.498-2.458-10.95,4.756-27.453-3.623C331.551,180.704,315.991,167.616,316.982,167.846z"
		/>
	<path fill-rule="evenodd" clip-rule="evenodd" fill="#7A6147" d="M138.69,270.353c2.628,4.975-10.855,17.456-10.937,35.37
		c-0.095,21.167,12.993,47.767,13.932,47.386c15.639-2.061,33.986-11.085,33.612-15.474c2.35-7.161-12.438-86.001-16.46-89.769
		C151.834,248.826,144.91,267.375,138.69,270.353z"/>
	<path fill-rule="evenodd" clip-rule="evenodd" fill="#DCB592" d="M149.213,351.654c-4.008-8.657-9.987-6.159-9.938-5.997
		c0.865,2.73,1.736,7.324,2.41,7.451C144.02,352.755,147.559,352.036,149.213,351.654z"/>
	<path fill-rule="evenodd" clip-rule="evenodd" fill="#DCB592" d="M158.784,348.67c-0.183-2.223-3.926-7.599-8.632-5.277
		c-1.531,0.755-2.646,2.046-0.96,8.241C151.528,351.288,156.611,349.446,158.784,348.67z"/>
	<path fill-rule="evenodd" clip-rule="evenodd" fill="#7A6147" d="M266.33,266.804c1.114,12.231-13.145,80.35-11.275,80.378
		c15.219,4.135,35.631,2.893,36.979-1.306c4.932-5.693,21.707-84.142,19.463-89.169C304.663,254.894,273.215,266.458,266.33,266.804
		z"/>
	<path fill-rule="evenodd" clip-rule="evenodd" fill="#DCB592" d="M262.562,348.748c-0.363-9.539-6.837-9.532-6.852-9.37
		c-0.258,2.857-1.234,7.43-0.656,7.804C257.34,347.753,260.889,348.466,262.562,348.748z"/>
	<path fill-rule="evenodd" clip-rule="evenodd" fill="#DCB592" d="M272.539,349.687c0.691-2.124-0.685-8.53-5.924-8.199
		c-1.703,0.106-3.231,0.861-4.063,7.239C264.837,349.298,270.235,349.566,272.539,349.687z"/>
	<path fill-rule="evenodd" clip-rule="evenodd" fill="#8B745A" d="M248.705,319.509c12.171,0.064,21.019-0.381,23.819-0.571
		c104.519-7.231,93.487-120.475,42.017-160.832c-16.623-13.032-77.464-13.025-131.298,4.734
		c-68.785,22.697-79.214,38.981-73.167,69.413C117.463,269.396,157.602,319.009,248.705,319.509z"/>
	<path fill-rule="evenodd" clip-rule="evenodd" fill="#B18D71" d="M148.494,257.882c-8.301,21.52,13.631,95.791,15.324,95.728
		c14.119,3.661,32.534,1.326,33.444-3.211c4.046-6.314,10.488-71.621,8.075-76.87C206.625,247.693,159.719,220.9,148.494,257.882z"
		/>
	<path fill-rule="evenodd" clip-rule="evenodd" fill="#DCB592" d="M170.747,354.914c-1.044-10.152-10.086-9.539-10.032-9.377
		c2.166,6.943,2.814,7.303,3.104,8.072C165.935,354.11,169.202,354.688,170.747,354.914z"/>
	<path fill-rule="evenodd" clip-rule="evenodd" fill="#DCB592" d="M179.87,355.415c0.462-2.3-1.263-9.052-5.99-8.452
		c-1.538,0.204-2.864,1.079-3.146,7.916C172.849,355.38,177.767,355.408,179.87,355.415z"/>
	<path fill-rule="evenodd" clip-rule="evenodd" fill="#A4866C" d="M279.453,265.322c-6.907,33.704,7.878,92.048,10.009,92.048
		c17.431,4.226,40.633,2.49,42.065-2.11c5.468-6.301,22.655-92.139,19.971-97.575c-5.912-12.895-25.238-28.562-42.608-24.733
		C295.554,235.879,283.312,255.438,279.453,265.322z"/>
	<path fill-rule="evenodd" clip-rule="evenodd" fill="#DCB592" d="M297.882,358.809c-0.643-10.393-11.353-8.995-11.367-8.819
		c-0.226,3.119,2.117,6.852,2.784,7.254C291.913,357.828,295.97,358.534,297.882,358.809z"/>
	<path fill-rule="evenodd" clip-rule="evenodd" fill="#DCB592" d="M309.266,359.648c0.73-2.328-0.991-9.285-6.949-8.833
		c-1.938,0.147-3.655,1.009-4.445,7.966C300.486,359.366,306.638,359.557,309.266,359.648z"/>
	<path fill-rule="evenodd" clip-rule="evenodd" fill="#B9997D" d="M136.894,242.49c-14.104,2.378-50.187-3.584-70.429-25.799
		c-19.272-21.152-23.065-58.255-23.862-70.186c-1.581-23.65,14.831-57.69,34.865-64.926c-2.519-0.409-4.949-0.79-7.292-1.157
		c-0.304-0.042-46.196-10.972-45.159-21.968c16.365-4.42,25.167-9.896,43.142-1.475c5.866,2.748,11.359,6.721,15.713,12.164
		c1.919,2.402,2.554,2.388,4.317,4.389c1.63-0.787,19.806-6.29,19.721-6.626c-0.057-0.208-1.072-0.694-4.135-1.731
		c-5.249-1.782-18.231-0.974-28.367-8.975c-12.068-9.532-19.286-12.157-11.532-14.118c2.653-0.671,20.524-5.088,34.025,2.652
		c6.206,3.553,16.57,12.118,20.609,17.117c0.328,0.416,71.858-4.77,88.735,68.799c4.981,21.725,37.804,7.655,38.21,23.541
		C245.995,175.639,227.043,225.493,136.894,242.49z"/>
	<path fill-rule="evenodd" clip-rule="evenodd" fill="#694926" d="M242.834,168.399c15.543-10.845,24.532-62.495,21.745-65.483
		c-4.029-4.328-23.834,10.234-55.761,30.555c-1.813,5.556,2.942,16.527,11.042,23.795
		C228.607,165.104,240.894,169.021,242.834,168.399z"/>
	<path fill-rule="evenodd" clip-rule="evenodd" fill="#694926" d="M178.226,94.887c7.479-5.221,11.804-30.071,10.463-31.511
		c-1.939-2.081-11.465,4.925-26.832,14.697c-0.875,2.681,1.411,7.959,5.313,11.458C171.382,93.299,177.288,95.183,178.226,94.887z"
		/>
	<path fill-rule="evenodd" clip-rule="evenodd" fill="#31302F" d="M167.72,175.031c-4.487,4.29-10.224-3.4-6.971-6.646
		C166.64,162.515,171.347,171.563,167.72,175.031z"/>
	<path fill-rule="evenodd" clip-rule="evenodd" fill="#F5C3C6" d="M176.437,184.782c9.825,12.672-13.466,23.53-20.951,14.273
		C141.967,182.32,168.497,174.53,176.437,184.782z"/>
	<path fill-rule="evenodd" clip-rule="evenodd" fill="#54432B" d="M315.923,110.945c4.903,1.4,27.404-0.818,30.752,5.849
		c-2.752,3.715-17.594,0.227-21.11-1.064c-2.262-0.833-10.823,0.095-10.718-2.894C314.854,112.554,314.685,110.593,315.923,110.945z
		"/>
	<path fill-rule="evenodd" clip-rule="evenodd" fill="#54432B" d="M311.373,107.29c-4.043,1.334-4.124,9.851,3.453,6.545
		C317.363,112.734,316.311,105.653,311.373,107.29z"/>
	<path fill-rule="evenodd" clip-rule="evenodd" fill="#F0882E" d="M314.473,78.13c11.145-6.534,33.014,0.483,30.721,14.523
		c-0.526,3.222-6.862,15.717-9.903,17.286c-3.541,1.828-4.643,2.861-9.179,3.264C314.311,114.255,305.625,83.322,314.473,78.13z"/>
	<path fill-rule="evenodd" clip-rule="evenodd" fill="#FBBF04" d="M332.779,112.173c1.595-6.399,12.676-20.384,19.305-19.921
		c14.305,0.987-1.345,19.356-13.335,20.711C334.772,113.418,332.656,112.66,332.779,112.173z"/>
	<path fill-rule="evenodd" clip-rule="evenodd" d="M203.968,195.976c2.346,0.794,4.678,0.77,6.643-0.053
		c2.057-0.867,3.719-2.575,4.52-3.641c0.652-0.871,0.762-1.63,0.085-1.602c-0.227,0.011-1.253,1.446-2.657,2.618
		c-1.185,0.98-2.818,1.322-3.647,1.566c-2.448,0.719-4.91,0.137-6.286-2.093c-0.424-0.684-0.798-1.442-1.034-2.197
		c-0.321-1.034-0.737-1.75-0.751-2.142c-0.035-0.66-0.367-1.442-0.893-0.649C199.083,189.079,200.92,194.949,203.968,195.976z"/>
</g>
<rect x="-1075" y="-522" fill-rule="evenodd" clip-rule="evenodd" fill="none" stroke="#00A651" stroke-width="10" stroke-miterlimit="10" width="2843" height="1848"/>
</svg>
