<?xml version="1.0" encoding="utf-8"?>
<!-- Generator: Adobe Illustrator 16.0.0, SVG Export Plug-In . SVG Version: 6.00 Build 0)  -->
<!DOCTYPE svg PUBLIC "-//W3C//DTD SVG 1.1//EN" "http://www.w3.org/Graphics/SVG/1.1/DTD/svg11.dtd">
<svg version="1.1" id="Layer_1" xmlns="http://www.w3.org/2000/svg" xmlns:xlink="http://www.w3.org/1999/xlink" x="0px" y="0px"
	 width="400px" height="400px" viewBox="0 0 400 400" enable-background="new 0 0 400 400" xml:space="preserve">
<g>
	<path fill-rule="evenodd" clip-rule="evenodd" fill="#F7B068" d="M153.625,25.003c-17.398,0.641-12.955,37.032-5.762,52.48
		c14.427-11.966,18.099-34.536,11.428-48.852C157.748,25.315,154.788,24.959,153.625,25.003z"/>
	<path fill-rule="evenodd" clip-rule="evenodd" fill="#F7B068" d="M257.041,26.993c-16.836,0.625-12.535,35.83-5.575,50.774
		c13.96-11.582,17.513-33.412,11.056-47.265C261.029,27.29,258.169,26.95,257.041,26.993z"/>
	<path fill-rule="evenodd" clip-rule="evenodd" fill="#BB803E" d="M137.141,343.692c10.225,38.785,63.25,20.928,15.783,1.104
		c-5.979-2.493-4.193-4.293-4.795-7.233C144.845,335.842,141.224,343.759,137.141,343.692z"/>
	<path fill-rule="evenodd" clip-rule="evenodd" fill="#BB803E" d="M269.283,352.037c-10.232,38.789-63.258,20.928-15.783,1.104
		c5.971-2.493,4.189-4.293,4.791-7.229C261.571,344.187,265.2,352.1,269.283,352.037z"/>
	<path fill-rule="evenodd" clip-rule="evenodd" fill="#F7B068" d="M202.65,362.107c195.971,23.147,82.841-286.041-63.191-169.425
		C103.111,221.706,52.04,355.883,202.65,362.107z"/>
	<path fill-rule="evenodd" clip-rule="evenodd" fill="#FBCF9E" d="M201.562,206.164c30.298,1.199,69.38,14.985,87.257,1.741
		c21.07-6.652,26.285-35.279,9.939-65.415c-11.708-21.588-15.02-47.838-24.528-61.458C202.009-22.392,122.156,69.83,106.808,146.071
		c-9.75,8.551-17.094,31.045-14.76,45.29c1.682,10.268,10.787,13.537,16.37,17.066C132.483,223.617,186.376,205.566,201.562,206.164
		z"/>
	<path fill-rule="evenodd" clip-rule="evenodd" fill="#E9868C" d="M139.625,156.96c-7.055,11.004,12.643,18.142,18.052,10.082
		C167.446,152.473,145.343,148.065,139.625,156.96z"/>
	<path fill-rule="evenodd" clip-rule="evenodd" fill="#E9868C" d="M239.195,157.253c-7.063,10.992,12.631,18.134,18.044,10.082
		C267.013,152.762,244.901,148.35,239.195,157.253z"/>
	<path fill-rule="evenodd" clip-rule="evenodd" fill="#31302F" d="M141.893,146.189c5.401,3.901,11-4.345,7.071-7.316
		C141.853,133.508,137.532,143.024,141.893,146.189z"/>
	<path fill-rule="evenodd" clip-rule="evenodd" fill="#31302F" d="M255.846,149.874c4.476,3.573,9.121-3.969,5.86-6.683
		C255.807,138.276,252.226,146.977,255.846,149.874z"/>
	<path fill-rule="evenodd" clip-rule="evenodd" fill="#31302F" d="M201.324,186.229c-0.146,2.224,0.333,1.317,2.466,1.317
		c0.055,0-1.057-7.431-0.97-8.463c0.052-0.598,0.613-6.458,0.15-6.434C200.319,172.819,201.546,182.984,201.324,186.229z"/>
	<path fill-rule="evenodd" clip-rule="evenodd" fill="#31302F" d="M203.188,188.943c2.22-0.178,6.584-1.761,6.549-3.894
		c0-0.047-4.962,1.935-7.333,2.192c-0.162,0.016-3.142-0.178-7.541-1.147C195.01,188.729,199.592,189.232,203.188,188.943z"/>
	<path fill-rule="evenodd" clip-rule="evenodd" fill="#31302F" d="M203.386,161.831c6.201,0.36,12.357,6.354-0.316,13.556
		C199.172,177.607,185.659,160.802,203.386,161.831z"/>
	<path fill-rule="evenodd" clip-rule="evenodd" fill="#FBCF9E" d="M200.118,342.275c102.55,12.12,43.351-149.688-33.072-88.657
		C148.025,268.809,121.301,339.023,200.118,342.275z"/>
	<path fill-rule="evenodd" clip-rule="evenodd" d="M179.831,209.159c-3.814,15.827,13.453,103.843,30.535,78.737
		c14.173-20.825,21.81-41.686,22.257-75.334C232.956,187.732,183.852,192.508,179.831,209.159z"/>
	
		<path fill-rule="evenodd" clip-rule="evenodd" fill="none" stroke="#000000" stroke-width="0.5919" stroke-miterlimit="22.9256" d="
		M179.831,209.159c-3.814,15.827,13.453,103.843,30.535,78.737c14.173-20.825,21.81-41.686,22.257-75.334
		C232.956,187.732,183.852,192.508,179.831,209.159z"/>
	<path fill-rule="evenodd" clip-rule="evenodd" fill="#6B6A6A" d="M186.486,209.709c-0.027,13.584,5.037,23.753,6.438,39.058
		c1.089,11.926,1.014,28.73,8.191,38.667c0.471-0.353-2.952-15.052-3.106-17.26c-1.215-17.312,1.46-42.532-5.643-58.447
		C190.277,207.042,186.479,210.805,186.486,209.709z"/>
	<path fill-rule="evenodd" clip-rule="evenodd" fill="#6B6A6A" d="M228.354,210.821c-0.965,13.544-6.758,23.322-9.259,38.484
		c-1.955,11.819-3.106,28.584-10.984,37.966c-0.439-0.38,4.044-14.794,4.353-16.979c2.47-17.177,8.35-41.583,12.552-60.069
		C226.146,205.222,228.433,209.725,228.354,210.821z"/>
	<path fill-rule="evenodd" clip-rule="evenodd" fill="#6B6A6A" d="M211.506,199.104c1.595,13.493-3.138,29.146-2.746,44.511
		c0.305,11.974-0.981,32.434-3.645,39.359c-0.507-0.297,1.183-15.301,1.08-17.505c-0.807-17.331-1.57-45.595-0.922-64.544
		C205.447,195.797,211.375,198.021,211.506,199.104z"/>
	<path fill-rule="evenodd" clip-rule="evenodd" fill="#BB803E" d="M162.951,230.704c5.477-20.777,38.448-18.392,20.235-8.923
		c-7.095,3.688,15.629-2.279-9.366,8.159c-4.115,1.717-2.893,2.963-3.3,4.981C168.257,236.109,165.761,230.657,162.951,230.704z"/>
	<path fill-rule="evenodd" clip-rule="evenodd" fill="#BB803E" d="M244.165,241.257c-5.479-20.773-38.448-18.387-20.235-8.918
		c7.091,3.688-15.633-2.283,9.362,8.159c4.119,1.717,2.893,2.96,3.304,4.978C238.855,246.666,241.352,241.213,244.165,241.257z"/>
</g>
<rect x="-2335" y="-102" fill-rule="evenodd" clip-rule="evenodd" fill="none" stroke="#00A651" stroke-width="10" stroke-miterlimit="10" width="2843" height="1848"/>
</svg>
