<?xml version="1.0" encoding="utf-8"?>
<!-- Generator: Adobe Illustrator 16.0.0, SVG Export Plug-In . SVG Version: 6.00 Build 0)  -->
<!DOCTYPE svg PUBLIC "-//W3C//DTD SVG 1.1//EN" "http://www.w3.org/Graphics/SVG/1.1/DTD/svg11.dtd">
<svg version="1.1" id="Layer_1" xmlns="http://www.w3.org/2000/svg" xmlns:xlink="http://www.w3.org/1999/xlink" x="0px" y="0px"
	 width="400px" height="400px" viewBox="0 0 400 400" enable-background="new 0 0 400 400" xml:space="preserve">
<g>
	<path fill-rule="evenodd" clip-rule="evenodd" fill="#AEA9A4" d="M105.783,230.316c-15.197,22.498-32.193,68.291-15.689,93.889
		c18.977,29.422,78.826,33.881,110.191,31.449c20.887-1.615,57.777-14.852,64.467-34.414c10.76-31.467,12.393-85.77,3.453-119.934
		C255.938,154.414,138.287,182.217,105.783,230.316z"/>
	<path fill-rule="evenodd" clip-rule="evenodd" fill="#9B918D" d="M129.271,348.623c-9.189-25.828-6.391-31.49-1.273-35.207
		c15.641-11.354,29.807,11.008,36.131,23.795c1.773-23.9,39.617-54.861,62.512-57.316c50.576-5.434,62.451,39.75,33.135,58.695
		C234.955,354.621,149.596,405.787,129.271,348.623z"/>
	<path fill-rule="evenodd" clip-rule="evenodd" fill="#9B918D" d="M84.762,349.895c11.832,7.941,27.641-1.518,24.729-16.939
		c-3.369-17.822-4.549-47.09-29.26-42.01C53.615,296.406,71.137,340.762,84.762,349.895z"/>
	<path fill-rule="evenodd" clip-rule="evenodd" fill="#BDBDBE" d="M269.789,195.967c4.039,4.648,19.057,51.828,29.693,69.063
		c7.488-4.002,29.713-11.482,33.404,4.295c6.875,29.373-35.805,50.986-58.291,22.785c-8.221-10.301-41.193-88.223-19.959-95.779
		C256.406,195.699,271.953,185.129,269.789,195.967z"/>
	<path fill-rule="evenodd" clip-rule="evenodd" fill="#9B918D" d="M145.148,70.623c0.082-0.023-4.939-16.25-10.377-18.9
		c-7.375-3.59-17.283,15.504-2.564,25.064c5.033,3.275,12.986,10.877,12.986-3.566C145.193,71.9,144.168,70.869,145.148,70.623z"/>
	<path fill-rule="evenodd" clip-rule="evenodd" fill="#9B918D" d="M267.328,82.951c-0.08-0.02,4.941-16.246,10.377-18.896
		c7.373-3.59,17.285,15.5,2.563,25.068c-5.033,3.271-12.982,10.865-12.982-3.57C267.285,84.229,268.307,83.205,267.328,82.951z"/>
	<path fill-rule="evenodd" clip-rule="evenodd" fill="#9F9794" d="M287.295,169.727c-6.551,55.027-145.58,53.016-158.461,23.961
		c-27.232-61.43-19.34-102.609,16.314-123.064C205.092,36.232,301.965,46.529,287.295,169.727z"/>
	<path fill-rule="evenodd" clip-rule="evenodd" fill="#D4D4D4" d="M98.686,153.053c0.23-11.779,15.172-15.131,17.699-1.676
		c0.049-0.004,4.436-4.242,11-5.971c24.521-6.467,44.5-8.143,65.73,7.545c8.092-17.287,24.797-9.035,26.098,2.42
		C227.816,230.793,96.686,254.01,98.686,153.053z"/>
	<path fill-rule="evenodd" clip-rule="evenodd" fill="#9B918D" d="M204.971,150.08c-5.434-0.223-8.479,12.854,1.467,12.506
		C213.885,162.326,220.061,150.693,204.971,150.08z"/>
	<path fill-rule="evenodd" clip-rule="evenodd" fill="#9B918D" d="M105.584,147.176c-4.322-0.23-6.75,10.082,1.172,9.738
		C115.488,156.527,115.023,147.656,105.584,147.176z"/>
	<path fill-rule="evenodd" clip-rule="evenodd" fill="#31302F" d="M242.75,153.275c-4.908,2.928-8.656-5.309-5.061-7.555
		C244.18,141.67,246.721,150.908,242.75,153.275z"/>
	<path fill-rule="evenodd" clip-rule="evenodd" fill="#31302F" d="M127.074,140.967c-4.912,2.922-8.656-5.307-5.063-7.553
		C128.504,129.363,131.049,138.596,127.074,140.967z"/>
	<path fill-rule="evenodd" clip-rule="evenodd" fill="#F4AFB3" d="M238.057,168.209c-5.99,9.326,10.717,15.381,15.301,8.543
		C261.646,164.398,242.895,160.658,238.057,168.209z"/>
	<path fill-rule="evenodd" clip-rule="evenodd" fill="#31302F" d="M121.217,291.49c-3.449,2.057-6.08-3.727-3.555-5.303
		C122.219,283.344,124.004,289.83,121.217,291.49z"/>
	<path fill-rule="evenodd" clip-rule="evenodd" fill="#948982" d="M84.592,345.477c8.395,5.631,19.615-1.084,17.543-12.025
		c-2.383-12.639-3.227-33.404-20.758-29.803C62.498,307.527,74.926,338.992,84.592,345.477z"/>
	<path fill-rule="evenodd" clip-rule="evenodd" fill="#948982" d="M139.656,364.098c8.385,5.627,13.758,0.447,14.787-7.611
		c1.627-12.756-5.65-35.189-23.246-31.926C119.217,326.781,129.994,357.613,139.656,364.098z"/>
	<path fill-rule="evenodd" clip-rule="evenodd" fill="#694926" d="M266.238,59.883c4.814,1.846,27.697,1.627,30.477,8.648
		c-3.105,3.498-17.756-1.35-21.186-2.965c-2.205-1.039-10.918-0.877-10.543-3.873C265.02,61.406,265.023,59.418,266.238,59.883z"/>
	<path fill-rule="evenodd" clip-rule="evenodd" fill="#694926" d="M260.902,55.33c-4.193,0.979-5.037,9.557,2.896,6.908
		C266.453,61.35,266.033,54.123,260.902,55.33z"/>
	<path fill-rule="evenodd" clip-rule="evenodd" fill="#F0882E" d="M267.721,26.676c11.818-5.586,33.227,3.441,29.66,17.393
		c-0.82,3.203-8.324,15.225-11.535,16.533c-3.729,1.527-4.928,2.469-9.537,2.469C264.32,63.07,258.338,31.115,267.721,26.676z"/>
	<path fill-rule="evenodd" clip-rule="evenodd" fill="#FBBF04" d="M283.119,62.629c2.176-6.305,14.602-19.408,21.246-18.35
		c14.328,2.281-3.09,19.396-15.301,19.684C285.018,64.064,282.949,63.115,283.119,62.629z"/>
</g>
<rect x="-2335" y="-942" fill-rule="evenodd" clip-rule="evenodd" fill="none" stroke="#00A651" stroke-width="10" stroke-miterlimit="10" width="2843" height="1848"/>
</svg>
