<?xml version="1.0" encoding="utf-8"?>
<!-- Generator: Adobe Illustrator 16.0.0, SVG Export Plug-In . SVG Version: 6.00 Build 0)  -->
<!DOCTYPE svg PUBLIC "-//W3C//DTD SVG 1.1//EN" "http://www.w3.org/Graphics/SVG/1.1/DTD/svg11.dtd">
<svg version="1.1" id="Layer_1" xmlns="http://www.w3.org/2000/svg" xmlns:xlink="http://www.w3.org/1999/xlink" x="0px" y="0px"
	 width="400px" height="400px" viewBox="0 0 400 400" enable-background="new 0 0 400 400" xml:space="preserve">
<g>
	<path fill-rule="evenodd" clip-rule="evenodd" fill="#421700" d="M195.916,282.711c0.907,0.453-0.532,52.424,0.503,52.42
		c3.848,0.066,8.629,0.207,8.373,1.031c-0.297,1.195-5.704,1.744-9.651,1.684c-0.103,8.549-0.301,9.744-2.582,8.975
		c-1.649-0.521,0.669-6.518-0.783-8.15c-2.146-2.355-7.659-0.59-7.519-2.178c0.268-1.951,4.276-0.467,6.78-1.09
		c5.96-1.533-2.907-41.26,1.968-52.672C193.896,282.252,194.844,282.141,195.916,282.711L195.916,282.711z"/>
	<path fill-rule="evenodd" clip-rule="evenodd" fill="#421700" d="M157.58,281.361c-0.966,0.285-11.334,51.18-12.345,50.902
		c-3.688-0.795-8.496-1.699-8.385-0.844c0.078,1.229,5.185,3.006,8.967,3.811c-1.77,8.307-1.786,9.527,0.577,9.361
		c1.704-0.131,0.862-6.508,2.573-7.766c2.607-1.836,7.609,1.15,7.754-0.438c0.264-1.941-4.017-1.391-6.355-2.635
		c-5.387-2.826,12.176-39.537,10.072-51.758C159.737,281.365,158.829,281.098,157.58,281.361L157.58,281.361z"/>
	<path fill-rule="evenodd" clip-rule="evenodd" fill="#6B6A6A" d="M293.099,279.02c27.258-21.209,67.1,56.701,81.106,29.686
		c8.957-17.242-60.464-68.336-75.216-80.578c-15.545-12.908-70.664-35.963-88.357-82.912
		C183.478,73.158,146.91,40.721,90.456,57.188c-78.893,20.1-86.571,138.494-9.346,146.969
		C62.472,272.865,131.022,372.154,293.099,279.02z"/>
	<path fill-rule="evenodd" clip-rule="evenodd" fill="#525051" d="M142.542,70.156L142.542,70.156
		c0.046-1.695-5.555-5.939-7.131-2.834c-0.49,1.018,0.648,0.646,2.603,1.299C140.237,69.371,142.629,70.98,142.542,70.156
		L142.542,70.156z M139.598,74.441L139.598,74.441c0,0.795-2.388-0.809-4.611-1.555c-1.868-0.623-3.105-0.289-2.614-1.309
		c1.588-3.102,7.279,1.18,7.229,2.871L139.598,74.441L139.598,74.441z M133.589,66.832c0.049,0.924-2.307-0.779-4.533-1.527
		c-1.959-0.646-3.135-0.197-2.611-1.299c1.584-3.105,7.186,1.143,7.145,2.83V66.832L133.589,66.832z M130.767,70.268L130.767,70.268
		c0.046-1.684-5.674-5.873-7.258-2.771c-0.487,1.014,0.775,0.594,2.697,1.328C128.343,69.545,130.729,71.158,130.767,70.268
		L130.767,70.268L130.767,70.268z M123.624,62.723c0.256,0.9-2.45-0.135-4.793-0.324c-2.037-0.17-3.135,0.609-2.82-0.471
		C116.757,58.396,123.253,61.082,123.624,62.723L123.624,62.723L123.624,62.723z M121.313,67.463L121.313,67.463
		c-0.371-1.65-6.871-4.326-7.58-0.891c-0.313,1.08,0.846,0.42,2.797,0.564C118.864,67.322,121.611,68.275,121.313,67.463
		L121.313,67.463L121.313,67.463z M114.026,61.873c0.289,0.809-2.528,0.037-4.83,0.059c-2.054,0.123-3.035,0.846-2.936-0.215
		C106.714,58.174,113.448,60.248,114.026,61.873L114.026,61.873L114.026,61.873z M112.153,66.773L112.153,66.773
		c-0.494-1.596-7.313-3.695-7.671-0.123c-0.103,1.064,0.87,0.334,2.925,0.209C109.716,66.844,112.446,67.582,112.153,66.773
		L112.153,66.773L112.153,66.773z M104.429,61.016c0.528,0.701-2.248,1.146-4.389,2.033c-1.839,0.9-2.457,1.967-2.768,0.949
		C96.263,60.6,103.29,59.779,104.429,61.016L104.429,61.016L104.429,61.016z M95.94,62.488L95.94,62.488
		c-1.245-1.18-8.215,0.268-6.879,3.588c0.4,1.057,0.949-0.141,2.66-1.191C93.763,63.754,96.543,63.016,95.94,62.488L95.94,62.488
		L95.94,62.488z M87.411,65.145L87.411,65.145c0.565,0.619-2.186,1.273-4.256,2.49c-1.674,0.961-2.227,2.15-2.631,1.098
		C79.155,65.504,86.12,64.051,87.411,65.145L87.411,65.145L87.411,65.145z M103.108,66.324L103.108,66.324
		c0.652,0.646-2.214,1.064-4.396,2.033c-1.814,0.813-2.453,1.971-2.73,0.857C94.968,65.828,101.971,65.086,103.108,66.324
		L103.108,66.324L103.108,66.324z M93.755,67.965c0.652,0.652-2.104,1.309-4.166,2.521c-1.798,1.018-2.23,2.156-2.631,1.096
		C85.585,68.357,92.468,66.873,93.755,67.965L93.755,67.965L93.755,67.965z M84.751,70.543L84.751,70.543
		c-1.166-1.143-8.137,0.305-6.793,3.621c0.43,0.969,0.949-0.131,2.652-1.188C82.677,71.756,85.437,71.107,84.751,70.543
		L84.751,70.543z M77.901,69.834c0.684,0.568-2.07,1.221-4.142,2.43c-1.699,1.055-2.223,2.16-2.655,1.191
		C69.768,70.139,76.729,68.688,77.901,69.834L77.901,69.834L77.901,69.834z M149.682,86.113L149.682,86.113
		c0.046-1.691-5.634-5.969-7.14-2.83c-0.572,0.986,0.656,0.652,2.611,1.295C147.286,85.297,149.649,86.996,149.682,86.113
		L149.682,86.113L149.682,86.113z M142.991,79.748c0.046-1.689-5.642-5.963-7.143-2.828c-0.569,0.98,0.651,0.65,2.615,1.299
		C140.596,78.936,142.959,80.631,142.991,79.748L142.991,79.748L142.991,79.748z M139.965,84.006c0.05,0.914-2.31-0.779-4.528-1.535
		c-1.955-0.639-3.102-0.275-2.615-1.295c1.584-3.102,7.275,1.176,7.144,2.834V84.006L139.965,84.006z M134.034,76.424v0.006
		c0.041-1.691-5.643-5.969-7.177-2.74c-0.573,0.982,0.688,0.557,2.647,1.205C131.724,75.648,133.993,77.316,134.034,76.424
		L134.034,76.424z M131.18,79.947L131.18,79.947c0,0.805-2.392-0.813-4.61-1.559c-1.873-0.615-3.102-0.281-2.615-1.301
		C125.546,73.992,131.229,78.264,131.18,79.947L131.18,79.947L131.18,79.947z M124.069,72.32c0.169,0.875-2.454-0.131-4.784-0.32
		c-2.071-0.096-3.139,0.605-2.916-0.512c0.742-3.523,7.329-0.813,7.7,0.836V72.32L124.069,72.32z M121.769,77.051l-0.009,0.01
		c-0.367-1.654-6.958-4.365-7.663-0.93c-0.23,1.119,0.842,0.422,2.879,0.6C119.31,76.92,121.966,77.836,121.769,77.051
		L121.769,77.051L121.769,77.051z M114.386,71.43c0.288,0.816-2.434,0.074-4.781,0.182c-2.021,0.029-3.031,0.846-2.891-0.301
		c0.445-3.535,7.176-1.473,7.672,0.123V71.43L114.386,71.43L114.386,71.43z M112.604,76.359L112.604,76.359
		c-0.586-1.621-7.317-3.688-7.763-0.148c-0.107,1.059,0.875,0.33,2.925,0.213C110.079,76.404,112.892,77.176,112.604,76.359
		L112.604,76.359L112.604,76.359z M104.841,70.695L104.841,70.695c-1.097-1.324-8.219-0.531-7.209,2.863
		c0.371,1.143,1.006-0.014,2.862-0.916C102.548,71.727,105.415,71.311,104.841,70.695L104.841,70.695z M96.304,72.049L96.304,72.049
		c-1.25-1.184-8.133,0.301-6.797,3.621c0.4,1.051,0.866-0.174,2.66-1.188C94.2,73.352,96.997,72.613,96.304,72.049L96.304,72.049
		L96.304,72.049z M87.741,74.795L87.741,74.795c0.686,0.561-2.07,1.213-4.141,2.43c-1.699,1.057-2.227,2.156-2.656,1.195
		C79.604,75.096,86.57,73.648,87.741,74.795L87.741,74.795L87.741,74.795z M103.546,75.918L103.546,75.918
		c0.565,0.613-2.293,1.025-4.38,2.033c-1.814,0.816-2.458,1.975-2.738,0.861C95.384,75.504,102.421,74.684,103.546,75.918
		L103.546,75.918L103.546,75.918z M94.167,77.645c0.599,0.533-2.152,1.186-4.141,2.443c-1.79,1.01-2.223,2.152-2.742,1.154
		c-1.25-3.291,5.629-4.775,6.883-3.592V77.645L94.167,77.645z M85.196,80.141L85.196,80.141c-1.258-1.18-8.137,0.297-6.793,3.617
		c0.43,0.965,0.867-0.164,2.656-1.188C83.122,81.354,85.886,80.701,85.196,80.141L85.196,80.141z M78.347,79.428
		c0.684,0.564-2.153,1.184-4.133,2.434c-1.795,1.021-2.228,2.16-2.751,1.158C70.204,79.732,77.093,78.252,78.347,79.428
		L78.347,79.428L78.347,79.428z M167.491,85.691c-0.037,0.883-2.426-0.729-4.645-1.477c-1.844-0.701-3.109-0.275-2.619-1.299
		C161.815,79.814,167.499,84.088,167.491,85.691L167.491,85.691L167.491,85.691z M160.797,79.324h0.005
		c0.008-1.6-5.676-5.873-7.268-2.771c-0.491,1.014,0.783,0.594,2.615,1.299C158.372,78.602,160.76,80.211,160.797,79.324
		L160.797,79.324L160.797,79.324z M157.766,83.584c-0.033,0.883-2.335-0.691-4.562-1.447c-1.955-0.643-3.102-0.275-2.607-1.295
		C152.181,77.74,157.774,81.98,157.766,83.584L157.766,83.584L157.766,83.584z M167.816,95.34c0.083,0.836-2.31-0.785-4.524-1.531
		c-1.959-0.643-3.102-0.275-2.615-1.295c1.584-3.105,7.186,1.139,7.14,2.83V95.34L167.816,95.34z M161.122,88.971L161.122,88.971
		c0.046-1.682-5.555-5.926-7.135-2.82c-0.49,1.01,0.652,0.65,2.607,1.303C158.813,88.195,161.122,89.775,161.122,88.971
		L161.122,88.971L161.122,88.971z M158.187,93.26c-0.009,0.805-2.393-0.809-4.619-1.551c-1.873-0.617-3.102-0.283-2.615-1.307
		c1.588-3.102,7.275,1.18,7.226,2.861L158.187,93.26L158.187,93.26L158.187,93.26z M67.153,79.873L67.153,79.873
		c-1.543-0.693-7.729,2.66-5.568,5.387c0.676,0.861,0.842-0.381,2.215-1.861C65.44,81.729,67.907,80.256,67.153,79.873
		L67.153,79.873L67.153,79.873z M60.372,81.09c0.751,0.387-1.711,1.852-3.357,3.529c-1.369,1.486-1.534,2.723-2.215,1.865
		C52.64,83.75,58.825,80.4,60.372,81.09L60.372,81.09L60.372,81.09z M63.416,90.172c0.85,0.424-1.708,1.859-3.263,3.563
		c-1.455,1.451-1.538,2.727-2.301,1.832c-2.166-2.734,4.025-6.084,5.563-5.391V90.172L63.416,90.172z M74.065,85.914
		c0.66,0.652-2.186,1.271-4.133,2.43c-1.79,1.02-2.26,2.252-2.751,1.164c-1.278-3.201,5.63-4.773,6.892-3.588L74.065,85.914
		L74.065,85.914L74.065,85.914z M74.247,91.998c0.655,0.656-2.1,1.309-4.166,2.523c-1.79,1.02-2.227,2.158-2.627,1.102
		C66.081,92.395,72.96,90.914,74.247,91.998L74.247,91.998L74.247,91.998z M134.644,85.584L134.644,85.584
		c0.051-1.689-5.551-5.93-7.135-2.824c-0.577,0.977,0.652,0.643,2.611,1.295C132.343,84.805,134.64,86.385,134.644,85.584
		L134.644,85.584L134.644,85.584z M131.831,89.02c-0.041,0.889-2.393-0.813-4.615-1.563c-1.877-0.613-3.135-0.193-2.644-1.209
		C126.188,83.061,131.872,87.334,131.831,89.02L131.831,89.02L131.831,89.02z M124.688,81.484L124.688,81.484
		c-0.38-1.648-6.959-4.363-7.672-0.918c-0.223,1.109,0.842,0.412,2.883,0.59C122.229,81.342,124.886,82.256,124.688,81.484
		L124.688,81.484z M122.407,86.125L122.407,86.125c0.178,0.871-2.45-0.137-4.821-0.238c-2.034-0.178-3.102,0.52-2.879-0.594
		C115.507,81.885,121.999,84.566,122.407,86.125L122.407,86.125L122.407,86.125z M115.119,80.537
		c0.265,0.895-2.558,0.123-4.866,0.148c-2.018,0.029-3.027,0.846-2.896-0.305C107.774,76.932,114.501,78.994,115.119,80.537
		L115.119,80.537L115.119,80.537z M113.251,85.432v0.01c-0.615-1.547-7.346-3.609-7.766-0.162c-0.133,1.15,0.882,0.334,2.895,0.305
		C110.69,85.561,113.511,86.34,113.251,85.432L113.251,85.432L113.251,85.432z M105.485,79.77L105.485,79.77
		c-1.131-1.238-8.158-0.416-7.148,2.979c0.31,1.021,0.92-0.041,2.768-0.945C103.191,80.797,106.054,80.381,105.485,79.77
		L105.485,79.77z M96.914,81.209L96.914,81.209c-1.159-1.146-8.134,0.301-6.788,3.621c0.429,0.965,0.948-0.141,2.66-1.191
		C94.853,82.422,97.606,81.766,96.914,81.209L96.914,81.209L96.914,81.209z M88.386,83.865L88.386,83.865
		c0.65,0.652-2.104,1.303-4.133,2.434c-1.712,1.047-2.261,2.238-2.66,1.188C80.215,84.248,87.185,82.805,88.386,83.865
		L88.386,83.865L88.386,83.865z M104.165,85.078L104.165,85.078c0.568,0.613-2.293,1.027-4.389,2.033
		c-1.814,0.813-2.453,1.971-2.73,0.857C96.032,84.574,103.034,83.84,104.165,85.078L104.165,85.078L104.165,85.078z M94.812,86.719
		c0.655,0.645-2.187,1.271-4.133,2.43c-1.799,1.02-2.261,2.248-2.748,1.162C86.645,87.107,93.528,85.627,94.812,86.719
		L94.812,86.719L94.812,86.719z M85.845,89.207L85.845,89.207c-1.287-1.086-8.166,0.395-6.797,3.625
		c0.396,1.055,0.865-0.17,2.623-1.105C83.749,90.514,86.496,89.865,85.845,89.207L85.845,89.207z M135.098,95.182L135.098,95.182
		c0.037-1.695-5.65-5.967-7.226-2.861c-0.49,1.014,0.734,0.684,2.606,1.295C132.697,94.361,135.057,96.064,135.098,95.182
		L135.098,95.182z M132.194,98.584L132.194,98.584c-0.033,0.889-2.343-0.699-4.529-1.533c-1.963-0.639-3.139-0.193-2.646-1.209
		C126.635,92.654,132.235,96.895,132.194,98.584L132.194,98.584L132.194,98.584z M125.13,91.078L125.13,91.078
		c-0.367-1.648-6.95-4.363-7.664-0.924c-0.227,1.113,0.842,0.416,2.883,0.598C122.593,90.91,125.302,91.941,125.13,91.078
		L125.13,91.078L125.13,91.078z M122.856,95.723c0.17,0.861-2.541-0.174-4.816-0.238c-2.047-0.178-3.106,0.52-2.888-0.604
		C115.87,91.445,122.452,94.16,122.856,95.723L122.856,95.723L122.856,95.723z M115.445,90.184L115.445,90.184
		c-0.491-1.592-7.313-3.691-7.671-0.119c-0.104,1.055,0.91,0.246,2.924,0.215C113.017,90.258,115.742,91,115.445,90.184
		L115.445,90.184z M113.61,95L113.61,95c-0.528-1.504-7.26-3.57-7.705-0.041c-0.107,1.064,0.908,0.248,2.924,0.219
		C111.144,95.158,113.87,95.893,113.61,95L113.61,95L113.61,95z M105.853,89.326v0.004c-1.135-1.238-8.171-0.412-7.156,2.982
		c0.404,1.051,0.924-0.055,2.771-0.949C103.638,90.395,106.471,90.064,105.853,89.326L105.853,89.326z M97.368,90.799v0.004
		c-1.254-1.176-8.142,0.297-6.88,3.588c0.487,1.088,0.948-0.137,2.739-1.158C95.211,91.982,98.048,91.363,97.368,90.799
		L97.368,90.799L97.368,90.799z M88.839,93.463L88.839,93.463c0.651,0.643-2.19,1.262-4.174,2.512
		c-1.758,0.932-2.228,2.164-2.627,1.105C80.664,93.85,87.548,92.365,88.839,93.463L88.839,93.463L88.839,93.463z M104.61,94.67
		L104.61,94.67c0.564,0.619-2.301,1.027-4.389,2.035c-1.889,0.779-2.449,1.971-2.82,0.828c-1.007-3.395,6.074-4.096,7.209-2.857
		V94.67L104.61,94.67z M95.265,96.313c0.564,0.623-2.194,1.27-4.256,2.49c-1.676,0.967-2.229,2.154-2.623,1.102
		c-1.379-3.236,5.588-4.686,6.879-3.588V96.313L95.265,96.313z M143.231,92.77c-0.041,0.887-2.311-0.779-4.529-1.525
		c-1.955-0.652-3.135-0.195-2.643-1.213C137.68,86.838,143.276,91.086,143.231,92.77L143.231,92.77L143.231,92.77z M111.704,100.783
		L111.704,100.783c-0.503-1.588-7.313-3.695-7.758-0.156c-0.152,1.15,0.866,0.334,2.883,0.305
		C109.181,100.82,111.989,101.6,111.704,100.783L111.704,100.783z M127.88,103.051L127.88,103.051L127.88,103.051
		c-0.586-1.629-7.35-3.604-7.762-0.156c-0.137,1.15,0.883,0.338,2.891,0.305C125.356,103.088,128.169,103.863,127.88,103.051
		L127.88,103.051z M96.642,105.563c0.693,0.563-2.152,1.18-4.133,2.434c-1.797,1.016-2.227,2.158-2.746,1.156
		C88.509,105.869,95.393,104.385,96.642,105.563L96.642,105.563L96.642,105.563z M148.519,102.301
		c-0.041,0.891-2.4-0.805-4.619-1.555c-1.873-0.615-3.139-0.193-2.607-1.299c1.58-3.105,7.268,1.176,7.227,2.857V102.301
		L148.519,102.301z M79.286,100.338c0.686,0.568-2.152,1.188-4.137,2.438c-1.785,1.02-2.223,2.152-2.66,1.184
		C71.149,100.643,78.032,99.162,79.286,100.338L79.286,100.338L79.286,100.338z M53.138,101.088c0.76,0.385-1.674,1.766-3.316,3.445
		c-1.369,1.484-1.579,2.803-2.251,1.945C45.351,103.625,51.628,100.309,53.138,101.088L53.138,101.088L53.138,101.088z
		 M52.181,92.299c0.842,0.422-1.678,1.77-3.229,3.477c-1.456,1.449-1.58,2.814-2.339,1.914
		C44.481,94.873,50.672,91.523,52.181,92.299L52.181,92.299L52.181,92.299z M64.154,103.48c0.846,0.426-1.712,1.859-3.229,3.484
		c-1.456,1.453-1.58,2.809-2.343,1.91c-2.132-2.816,4.063-6.162,5.572-5.387V103.48L64.154,103.48z M149.269,76.434
		c0.051,0.914-2.338-0.697-4.561-1.443c-1.955-0.648-3.098-0.281-2.607-1.297C143.677,70.588,149.277,74.832,149.269,76.434
		L149.269,76.434z"/>
	<path fill-rule="evenodd" clip-rule="evenodd" fill="#838382" d="M143.595,191.123c-26.348,57.408,132.107,112.926,186.018,103.111
		C318.097,289.078,213.065,40.08,143.595,191.123L143.595,191.123z"/>
	<path fill-rule="evenodd" clip-rule="evenodd" fill="#F4AFB3" d="M58.954,168.184c-2.352,15.637,22.918,13.779,24.91,2.211
		C87.448,149.477,60.858,155.535,58.954,168.184z"/>
	<path fill-rule="evenodd" clip-rule="evenodd" fill="#31302F" d="M72.044,154.07c6.707,1.732,8.109-8.893,3.164-10.281
		C66.271,141.285,66.616,152.66,72.044,154.07z"/>
	<path fill-rule="evenodd" clip-rule="evenodd" fill="#F18D18" d="M80.384,205.568c1.469-8.559,7.292,16.162,9.399,16.125
		c2.165-0.045-2.776-24.037,0.705-23.805c1.361,0.082,8.455,14.225,10.308,23.162c4.037-5.213-3.832-46.141,12.179,0.234
		c2.351,6.814,8.649-33.098,11.334-11.219c2.503,20.342,16.712,56.43,46.663,70.713c34.455,16.42,86.232,9.434,106.471,6.793
		c-37.453,16.609-83.498,40.291-130.516,26.129c-42.588-12.832-65.182-39.604-68.469-79.148
		C77.563,223.781,78.899,215.201,80.384,205.568z"/>
	<path fill-rule="evenodd" clip-rule="evenodd" fill="#FBBF04" d="M45.536,174.59c3.478,8.508,1.927,13.572-20.535,7.188
		C25.273,174.646,35.593,150.242,45.536,174.59z"/>
</g>
<rect x="-2335" y="-522" fill-rule="evenodd" clip-rule="evenodd" fill="none" stroke="#00A651" stroke-width="10" stroke-miterlimit="10" width="2843" height="1848"/>
</svg>
