<?xml version="1.0" encoding="utf-8"?>
<!-- Generator: Adobe Illustrator 16.0.0, SVG Export Plug-In . SVG Version: 6.00 Build 0)  -->
<!DOCTYPE svg PUBLIC "-//W3C//DTD SVG 1.1//EN" "http://www.w3.org/Graphics/SVG/1.1/DTD/svg11.dtd">
<svg version="1.1" id="Layer_1" xmlns="http://www.w3.org/2000/svg" xmlns:xlink="http://www.w3.org/1999/xlink" x="0px" y="0px"
	 width="400px" height="400px" viewBox="0 0 400 400" enable-background="new 0 0 400 400" xml:space="preserve">
<g>
	<path fill-rule="evenodd" clip-rule="evenodd" fill="#6D4F33" d="M168.43,341.367c0.113,13.037,7.648,25.754,9.467,28.68
		c-0.178,0.877-1.563,0.939-2.367,1.791c-0.096,0.098-1.311,3.221,4.824,0.963c0.475-0.174,0.309,2.611,3.432,2.145
		c2.756-0.406-3.646-2.887,0.674-2.887c3.693,0,3.348-3.199-2.088-3.029c-0.645,0.023-0.174-11.969-0.174-13.662
		c0-4.352,0.08-4.328-0.691-8.453c-1.379-7.369,0.354-3.313-9.91-4.412c-0.283-1.061-1.867-0.557-2.838-1.24L168.43,341.367z"/>
	<path fill-rule="evenodd" clip-rule="evenodd" fill="#6D4F33" d="M264.412,333.59c-0.105,13.039-7.641,25.76-9.461,28.68
		c0.172,0.881,1.559,0.949,2.367,1.799c0.094,0.092,1.313,3.215-4.826,0.957c-0.469-0.174-0.305,2.611-3.436,2.152
		c-2.752-0.406,3.65-2.898-0.67-2.898c-3.695,0-3.342-3.195,2.086-3.025c0.639,0.016,0.18-11.969,0.18-13.662
		c0-4.355-0.082-4.328,0.689-8.453c1.373-7.369-0.357-3.313,9.906-4.416c0.289-1.053,1.869-0.545,2.848-1.238L264.412,333.59z"/>
	<path fill-rule="evenodd" clip-rule="evenodd" fill="#90673E" d="M245.172,223.764c-3.732,24.773,8.432,74.975,21.191,48.432
		c-0.836,11.299,6.201,27.537,12.563,9.154c0.418-1.219-5.209,21.287,8.627,27.438c18.389,8.182,19.615-129.648-25.752-103.428
		C258.963,207,245.654,220.596,245.172,223.764z"/>
	<path fill-rule="evenodd" clip-rule="evenodd" fill="#C47920" d="M173.156,356.154c49.871,20.844,109.059-3.756,115.375-61.297
		c6.691-61.029-18.457-167.803-125.688-98.643C157.736,199.504,66.768,311.678,173.156,356.154z"/>
	<path fill-rule="evenodd" clip-rule="evenodd" fill="#CA9965" d="M187.195,357.979c37.502,12.877,83.303-6.213,88.049-41.754
		c12.014-90.033-55.451-99.416-97.299-68.541C142.652,273.725,124.432,336.414,187.195,357.979z"/>
	<path fill-rule="evenodd" clip-rule="evenodd" fill="#90673E" d="M187.008,232.947c-7.58,26.73-42.869,71.881-43.596,39.211
		c-4.332,11.803-18.883,24.969-16.881,3.486c0.141-1.412-4.492,23.891-21.287,23.764c-22.326-0.158,39.588-139.947,73.404-92.664
		C180.76,209.695,187.979,229.531,187.008,232.947z"/>
	<path fill-rule="evenodd" clip-rule="evenodd" fill="#CA9965" d="M145.291,159.586c3.869,71.668,122.908,105.264,150.59,15.521
		c15.473-50.152-29.887-95.494-76.301-97.211C170.898,76.105,143.656,129.295,145.291,159.586z"/>
	<path fill-rule="evenodd" clip-rule="evenodd" fill="#F5B0B4" d="M283.773,190.836c6.691,10.426-11.98,17.189-17.105,9.557
		C257.412,186.578,278.361,182.404,283.773,190.836z"/>
	<path fill-rule="evenodd" clip-rule="evenodd" fill="#F5B0B4" d="M189.416,191.109c6.693,10.426-11.969,17.186-17.098,9.553
		C163.055,186.854,184.012,182.672,189.416,191.109z"/>
	<path fill-rule="evenodd" clip-rule="evenodd" fill="#FBBF26" d="M230.457,193.33c-5.797,0.709-8.131,3.141,2.375,13.641
		C236.711,204.607,247.055,191.316,230.457,193.33z"/>
	<path fill-rule="evenodd" clip-rule="evenodd" fill="#3B3A39" d="M281.629,180.625c-5.119,3.703-10.43-4.113-6.707-6.926
		C281.662,168.607,285.76,177.629,281.629,180.625z"/>
	<path fill-rule="evenodd" clip-rule="evenodd" fill="#3B3A39" d="M173.639,184.117c-4.238,3.391-8.641-3.756-5.555-6.33
		C173.672,173.127,177.072,181.373,173.639,184.117z"/>
	<path fill-rule="evenodd" clip-rule="evenodd" fill="#90673E" d="M202.785,97.615c-0.504,1.366,2.195,8.908,4.205,8.908
		C208.129,104.947,205.24,91.127,202.785,97.615z"/>
	<path fill-rule="evenodd" clip-rule="evenodd" fill="#90673E" d="M212.768,95.613c-0.822,1.2-0.039,9.176,1.912,9.661
		C216.17,104.025,216.727,89.914,212.768,95.613z"/>
	<path fill-rule="evenodd" clip-rule="evenodd" fill="#90673E" d="M226.098,93.058c-0.832,1.196-0.689,9.823,1.904,9.661
		C229.5,101.462,230.053,87.359,226.098,93.058z"/>
	<path fill-rule="evenodd" clip-rule="evenodd" fill="#90673E" d="M218.789,87.262c-0.828,1.196-0.686,9.822,1.904,9.665
		C222.188,95.67,222.744,81.563,218.789,87.262z"/>
	<path fill-rule="evenodd" clip-rule="evenodd" fill="#90673E" d="M205.752,85.869c-0.678,1.113,0.533,8.468,3.086,8.055
		C210.166,92.688,208.969,80.577,205.752,85.869z"/>
	<path fill-rule="evenodd" clip-rule="evenodd" fill="#90673E" d="M219.695,102.223c-0.674,1.113,0.539,8.468,3.094,8.054
		C224.111,109.046,222.914,96.93,219.695,102.223z"/>
	<path fill-rule="evenodd" clip-rule="evenodd" fill="#90673E" d="M240.678,93.531c-1.08,0.979-2.875,9.418-0.314,9.846
		C242.105,102.489,245.816,88.869,240.678,93.531z"/>
	<path fill-rule="evenodd" clip-rule="evenodd" fill="#90673E" d="M234.859,86.238c-1.08,0.985-2.875,9.424-0.309,9.85
		C236.287,95.195,239.994,81.578,234.859,86.238z"/>
	<path fill-rule="evenodd" clip-rule="evenodd" fill="#90673E" d="M232.379,101.029c-0.902,0.934-1.377,8.37,1.201,8.536
		C235.154,108.662,236.711,96.588,232.379,101.029z"/>
	<path fill-rule="evenodd" clip-rule="evenodd" fill="#90673E" d="M202.609,113.709c-0.52,1.359,2.186,8.908,4.191,8.908
		C207.941,121.037,205.051,107.217,202.609,113.709z"/>
	<path fill-rule="evenodd" clip-rule="evenodd" fill="#90673E" d="M212.586,111.707c-0.832,1.197-0.041,9.176,1.904,9.662
		C215.984,120.119,216.537,106.005,212.586,111.707z"/>
	<path fill-rule="evenodd" clip-rule="evenodd" fill="#90673E" d="M225.91,109.147c-0.828,1.196-0.686,9.827,1.912,9.665
		C229.313,117.553,229.861,103.445,225.91,109.147z"/>
	<path fill-rule="evenodd" clip-rule="evenodd" fill="#90673E" d="M219.512,118.32c-0.678,1.109,0.533,8.461,3.086,8.051
		C223.926,125.137,222.729,113.021,219.512,118.32z"/>
	<path fill-rule="evenodd" clip-rule="evenodd" fill="#90673E" d="M240.494,109.625c-1.08,0.979-2.879,9.418-0.316,9.846
		C241.914,118.576,245.625,104.963,240.494,109.625z"/>
	<path fill-rule="evenodd" clip-rule="evenodd" fill="#90673E" d="M232.191,117.115c-0.906,0.941-1.381,8.375,1.205,8.543
		C234.965,124.752,236.516,112.686,232.191,117.115z"/>
	<path fill-rule="evenodd" clip-rule="evenodd" fill="#90673E" d="M226.215,126.844c-0.908,0.934-1.381,8.375,1.201,8.545
		C228.988,134.48,230.539,122.406,226.215,126.844z"/>
	<path fill-rule="evenodd" clip-rule="evenodd" fill="#90673E" d="M220.303,325.115c1.227-0.422,2.717,0.203,2.867,1.361
		c0.391,2.928-1.807,3.232-3.17,2.229C218.854,327.854,218.258,325.814,220.303,325.115z"/>
	<path fill-rule="evenodd" clip-rule="evenodd" fill="#DA6C00" d="M226.121,25.039c15.385,0.557,32.096,26.037,14.807,27.724
		c-5.963,0.587-19.045-11.919-22.162-5.532c-6.09,12.465,1.984,30.523,2.033,34.1c0.033,2.453-5.002,3.996-6.996,1.414
		c-2.15-2.785-2.066-6.714-2.625-10.951C210.109,63.662,186.865,23.617,226.121,25.039z"/>
</g>
<rect x="-1915" y="-942" fill-rule="evenodd" clip-rule="evenodd" fill="none" stroke="#00A651" stroke-width="10" stroke-miterlimit="10" width="2843" height="1848"/>
</svg>
