<?xml version="1.0" encoding="utf-8"?>
<!-- Generator: Adobe Illustrator 16.0.0, SVG Export Plug-In . SVG Version: 6.00 Build 0)  -->
<!DOCTYPE svg PUBLIC "-//W3C//DTD SVG 1.1//EN" "http://www.w3.org/Graphics/SVG/1.1/DTD/svg11.dtd">
<svg version="1.1" id="Layer_1" xmlns="http://www.w3.org/2000/svg" xmlns:xlink="http://www.w3.org/1999/xlink" x="0px" y="0px"
	 width="400px" height="400px" viewBox="0 0 400 400" enable-background="new 0 0 400 400" xml:space="preserve">
<g>
	<path fill-rule="evenodd" clip-rule="evenodd" fill="#B1B1B2" d="M210.053,342.346c0.351,7.33,19.567,16.089,28.622,19.95
		c29.893,12.75,51.448-2.298,60.708-32.652c12.75-41.826-2.94-69.898,4.469-85.237c11.542-23.881,40.135-22.168,37.944-38.069
		c-2.068-15.043-15.295-16.456-32.032-13.448c-17.786,3.193-39.085,12.086-39.306,39.83c-0.418,52.723,7.531,95.519-47.34,111.367
		C220.352,344.888,209.892,339.042,210.053,342.346z"/>
	<path fill-rule="evenodd" clip-rule="evenodd" fill="#BDBDBE" d="M131.524,372.877c60.531,5.254,132.437,5.152,132.437-53.963
		c0-71.792-41.174-103.84-63.969-129.426c-10.008-11.226,3.782-0.321-23.885,7.859C109.051,217.188,44.728,365.338,131.524,372.877z
		"/>
	<path fill-rule="evenodd" clip-rule="evenodd" fill="#D4D4D4" d="M88.411,363.7c-13.624-17.458,21.789-25.933,28.76-47.189
		c6.438-19.629,22.274-98.969,47.261-99.226C210.535,216.811,118.726,402.549,88.411,363.7z"/>
	<path fill-rule="evenodd" clip-rule="evenodd" fill="#B1B1B2" d="M242.492,351.803c-29.293,37.321-176.294,20.447-182.733,4.76
		c-4.393-10.689,0.494-21.351,7.271-23.576c15.215-5.001,48.318,9.69,66.732,0.193c10.754-5.545,25.442-44.043,56.789-56.461
		C225.74,262.781,285.781,296.656,242.492,351.803z"/>
	<path fill-rule="evenodd" clip-rule="evenodd" fill="#B1B1B2" d="M287.822,65.908c-6.939,1.178-55.968,26.184-57.768,24.116
		c-10.058-11.56-78.705-20.802-95.632-23.313C110.324,41.269,97.795,24.923,97.777,25c-5.035,23.23-9.445,47.569-1.959,70.92
		c-31.209,43.311-9.229,117.65,62.657,129.44c55.202,9.043,116.665-11.023,113.128-97.138
		C278.984,107.77,282.383,91.749,287.822,65.908z"/>
	<path fill-rule="evenodd" clip-rule="evenodd" fill="#31302F" d="M108.386,153.219c5.526,5.741,13.859-2.779,9.86-7.101
		C111.013,138.298,103.917,148.575,108.386,153.219z"/>
	<path fill-rule="evenodd" clip-rule="evenodd" fill="#F4AFB3" d="M104.663,161.187c-6.179,6.653,6.411,13.953,11.098,9.108
		C124.23,161.528,109.659,155.806,104.663,161.187z"/>
	<path fill-rule="evenodd" clip-rule="evenodd" fill="#F4AFB3" d="M213.792,181.61c-6.959,7.507,7.227,15.722,12.512,10.264
		C235.841,182,219.42,175.547,213.792,181.61z"/>
	<path fill-rule="evenodd" clip-rule="evenodd" fill="#FFF3D5" d="M169.481,160.839c-35.091-6.296-50.186,18.275-38.78,32.119
		c42.992,52.183,101.381-20.891,46.114-30.803C174.368,161.713,171.927,161.275,169.481,160.839z"/>
	<path fill-rule="evenodd" clip-rule="evenodd" fill="#31302F" d="M149.786,185.209c-0.82-2.558-12.244,5.058-16.331,7.474
		c-9.829,5.803-12.11,9.223-8.977,8.508c3.042-0.687,6.91-5.153,12.04-8.171C142.887,189.275,150.295,186.788,149.786,185.209z"/>
	<path fill-rule="evenodd" clip-rule="evenodd" fill="#31302F" d="M148.766,182.47c0.069-2.688-13.233,0.697-17.895,1.618
		c-11.195,2.205-14.483,4.675-11.289,5.041c3.094,0.359,8.231-2.566,14.075-3.708C140.909,184.009,148.719,184.122,148.766,182.47z"
		/>
	<path fill-rule="evenodd" clip-rule="evenodd" fill="#31302F" d="M148.705,179.662c0.748-2.582-12.979-2.661-17.721-2.951
		c-11.39-0.695-15.199,0.866-12.199,2.029c2.911,1.129,8.613-0.402,14.55-0.033C140.712,179.168,148.241,181.252,148.705,179.662z"
		/>
	<path fill-rule="evenodd" clip-rule="evenodd" fill="#31302F" d="M180.54,190.329c1.66-2.108,9.726,8.998,12.722,12.687
		c7.2,8.854,8.143,12.856,5.451,11.099c-2.609-1.707-4.688-7.233-8.443-11.847C185.598,196.542,179.513,191.636,180.54,190.329z"/>
	<path fill-rule="evenodd" clip-rule="evenodd" fill="#31302F" d="M182.454,188.117c0.864-2.546,12.161,5.257,16.215,7.732
		c9.73,5.967,11.957,9.423,8.834,8.659c-3.032-0.74-6.829-5.268-11.905-8.368C189.287,192.291,181.921,189.686,182.454,188.117z"/>
	<path fill-rule="evenodd" clip-rule="evenodd" fill="#31302F" d="M183.482,185.506c0.197-2.681,13.099,2.017,17.646,3.392
		c10.921,3.308,13.949,6.095,10.732,6.14c-3.119,0.052-7.938-3.367-13.638-5.086C191.149,187.823,183.368,187.157,183.482,185.506z"
		/>
	<path fill-rule="evenodd" clip-rule="evenodd" fill="#31302F" d="M160.097,197.057c-0.742,2.339,0.002,1.49,2.288,2.055
		c0.059,0.01,0.815-8.23,1.18-9.317c0.207-0.62,2.347-6.748,1.849-6.835C162.532,182.44,161.178,193.631,160.097,197.057z"/>
	<path fill-rule="evenodd" clip-rule="evenodd" fill="#31302F" d="M161.38,200.45c2.417,0.391,7.501-0.158,8.024-2.449
		c0.006-0.051-5.818,0.768-8.423,0.418c-0.18-0.024-3.318-1.017-7.774-3.201C152.672,198.077,157.444,199.818,161.38,200.45z"/>
	<path fill-rule="evenodd" clip-rule="evenodd" fill="#31302F" d="M168.696,171.485c6.539,2.011,11.558,10.042-3.896,14.427
		C160.051,187.256,149.992,165.736,168.696,171.485z"/>
	<path fill-rule="evenodd" clip-rule="evenodd" fill="#F4AFB3" d="M102.141,43.633c-1.336,2.092-2.684,19.395-2.944,22.699
		c-0.835,10.612,3.064,4.346,11.739,3.203c4.632-0.606,14.299-0.162,9.036-7.741C117.93,58.864,106.629,36.635,102.141,43.633z"/>
	<path fill-rule="evenodd" clip-rule="evenodd" fill="#F4AFB3" d="M277.082,78.193c0.529,2.43-4.212,19.125-5.116,22.316
		c-2.913,10.233-4.394,3.004-12.134-1.078c-4.129-2.177-13.342-5.121-5.771-10.395C256.99,86.998,275.31,70.076,277.082,78.193z"/>
	<path fill-rule="evenodd" clip-rule="evenodd" fill="#31302F" d="M221.895,171.461c5.53,5.741,13.859-2.783,9.861-7.105
		C224.52,156.537,217.431,166.813,221.895,171.461z"/>
	<path fill-rule="evenodd" clip-rule="evenodd" fill="#BDBDBE" d="M134.966,151.026c9.004-4.525,30.824-4.593,39.806-3.458
		c14.709,1.859,27.737,4.944,27.042,9.458c-0.449,2.937-1.042,5.582-8.348,1.896C182.087,153.193,134.854,151.083,134.966,151.026
		L134.966,151.026L134.966,151.026z M138.047,95.356c13.255-5.511,44.282-3.355,56.925-0.823
		c20.717,4.15,38.914,9.872,37.469,16.213c-0.935,4.123-2.052,7.831-12.059,1.843C204.795,103.28,137.879,95.427,138.047,95.356
		L138.047,95.356L138.047,95.356z M205.96,118.897L205.96,118.897c-11.238-6.345-41.178-15.771-52.739-14.869
		c-18.945,1.472-35.81,4.624-35.206,10.438c0.393,3.788,0.991,7.214,10.57,2.948C143.504,110.78,206.102,118.98,205.96,118.897
		L205.96,118.897L205.96,118.897z M140.504,122.58c-0.128,0.058,51.928,6.164,64.054,13.409c7.78,4.66,8.648,1.778,9.382-1.433
		c1.121-4.936-13.033-9.384-29.148-12.615C174.952,119.973,150.821,118.294,140.504,122.58L140.504,122.58L140.504,122.58z
		 M202.281,145.498c0.111,0.093-52.102-8.234-65.855-4.521c-8.834,2.388-8.888-0.647-8.718-3.961
		c0.262-5.096,15.222-5.538,31.754-4.269C169.55,133.53,193.443,138.514,202.281,145.498L202.281,145.498z"/>
	<path fill-rule="evenodd" clip-rule="evenodd" fill="#6F813A" d="M152.127,81.744c-1.167-1.579-3.075-3.01-5.485-4.239
		c-0.7,7.417-9.698,11.34-9.546,7.051c0.083-2.275,5.663-6.69,7.972-7.592c0.087-0.031,0.188-0.058,0.296-0.071
		c-2.492-1.119-5.411-2.04-8.548-2.702c0.892,7.478-7.042,13.367-7.886,9.094c-0.452-2.283,4.072-7.981,6.164-9.422
		c-3.284-0.586-6.761-0.884-10.189-0.846c2.208,6.635-3.797,13.533-5.43,9.806c-0.853-1.945,1.956-7.819,3.608-9.745
		c-0.178,0.01-0.348,0.018-0.519,0.025c-2.529,0.154-5.019,0.586-7.397,1.182c3.075,5.574-1.516,12.633-3.403,9.511
		c-0.991-1.637,0.908-7.322,2.118-9.023c0.051-0.067,0.108-0.13,0.182-0.195c-2.422,0.671-4.709,1.508-6.776,2.378
		c2.748,4.194-0.304,10.046-2.038,7.733c-0.898-1.196,0.081-5.651,0.899-7.238c-3.042,1.353-5.522,2.738-7.128,3.708
		c0.036,0.249-0.04,0.644-0.188,0.859c-0.939,1.383-4.682,4.401-6.189,4.111c-2.874-0.547,1.163-5.98,6.221-5.207l0,0
		c0.947-0.722,1.924-1.399,2.913-2.023c-2.064,0.112-5.585-0.302-6.349-1.35c-1.708-2.344,4.83-3.548,8.019,0.35
		c2.055-1.164,4.184-2.131,6.349-2.937c-2.051-0.136-5.601-1.03-6.229-2.187c-1.394-2.574,5.366-2.887,7.965,1.523
		c0.012,0.016,0.02,0.034,0.02,0.054c1.784-0.581,3.59-1.05,5.392-1.419c-2.011-0.586-4.985-1.998-5.37-3.182
		c-0.892-2.753,5.665-1.887,7.506,2.791c2.911-0.47,5.782-0.673,8.53-0.661c-2.765-1.632-6.854-5.1-6.949-7.075
		c-0.215-4.46,9.186-0.507,10.042,7.192c3.389,0.229,6.507,0.799,9.158,1.624l0.189,0.058c-2.568-2.193-6.261-6.673-5.977-8.769
		c0.632-4.731,9.853,1.359,9.038,9.671c0,0.049-0.018,0.086-0.053,0.124c2.861,1.062,5.654,2.375,8.145,4.119
		C156.027,82.196,153.108,83.066,152.127,81.744z"/>
	<path fill-rule="evenodd" clip-rule="evenodd" fill="#6F813A" d="M201.294,83.627c1.164-1.579,3.07-3.012,5.482-4.242
		c0.703,7.417,9.699,11.343,9.548,7.052c-0.083-2.271-5.665-6.681-7.974-7.586c-0.087-0.038-0.181-0.063-0.292-0.075
		c2.495-1.118,5.408-2.041,8.542-2.7c-0.892,7.479,7.045,13.371,7.895,9.094c0.446-2.288-4.074-7.981-6.174-9.426
		c3.296-0.583,6.765-0.885,10.196-0.843c-2.21,6.636,3.793,13.529,5.427,9.809c0.853-1.952-1.958-7.825-3.603-9.752
		c0.17,0.01,0.343,0.018,0.517,0.03c2.535,0.154,5.021,0.581,7.397,1.178c-3.079,5.578,1.516,12.637,3.403,9.519
		c0.99-1.64-0.909-7.322-2.124-9.028c-0.043-0.067-0.111-0.132-0.182-0.195c2.428,0.677,4.713,1.504,6.781,2.378
		c-2.747,4.196,0.3,10.042,2.037,7.732c0.9-1.196-0.075-5.65-0.892-7.241c3.032,1.357,5.514,2.745,7.121,3.708
		c-0.04,0.256,0.043,0.651,0.189,0.862c0.94,1.384,4.678,4.397,6.189,4.107c2.874-0.542-1.164-5.98-6.221-5.207l0,0
		c-0.947-0.718-1.918-1.396-2.917-2.017c2.073,0.107,5.586-0.31,6.352-1.355c1.709-2.341-4.832-3.549-8.021,0.353
		c-2.052-1.162-4.176-2.133-6.347-2.94c2.053-0.132,5.605-1.028,6.233-2.187c1.394-2.572-5.372-2.881-7.969,1.528
		c-0.007,0.014-0.016,0.032-0.016,0.051c-1.788-0.579-3.591-1.052-5.392-1.417c2.005-0.586,4.981-1.997,5.369-3.181
		c0.896-2.757-5.668-1.885-7.508,2.791c-2.904-0.47-5.782-0.673-8.526-0.655c2.764-1.636,6.853-5.11,6.948-7.082
		c0.212-4.464-9.182-0.507-10.042,7.188c-3.387,0.227-6.505,0.803-9.158,1.625l-0.19,0.057c2.566-2.192,6.26-6.672,5.977-8.771
		c-0.636-4.729-9.853,1.368-9.04,9.677c0,0.046,0.02,0.087,0.051,0.125c-2.857,1.06-5.653,2.37-8.143,4.121
		C197.391,84.083,200.311,84.956,201.294,83.627z"/>
	<path fill-rule="evenodd" clip-rule="evenodd" fill="#FBBF04" d="M137.017,69.221c-8.576-3.376-7.666-27.94,9.787-17.397
		c4.905,4.935,3.578,7.938,4.22,6.75c3.235-5.97,7.662-11.637,14.25-11.394c6.106,0.227,16.032,10.002,7.131,20.956
		c-2.53,3.114,5.545-1.374,10.966,6.552c10.221,14.95-10.433,11.607-9.62,13.675c2.386,6.034,3.249,10.95,0.191,13.674
		c-2.534,2.266-14.453-0.073-16.29-3.186c-3.564,8.344-27.124,12.838-21.161-10.936c-8.09,0.383-14.062-6.766-11.09-11.822
		C128.24,71.256,136.352,69.383,137.017,69.221z"/>
	<path fill-rule="evenodd" clip-rule="evenodd" fill="#EE7A00" d="M144.72,71.777c-3.576,1.265,1.423,7.355,3.337,4.076
		C149.453,73.455,146.041,71.31,144.72,71.777z"/>
	<path fill-rule="evenodd" clip-rule="evenodd" fill="#EE7A00" d="M154.083,70.536c-5.232,5.479,5.459,9.187,4.372,1.879
		C158.273,71.197,154.594,70.005,154.083,70.536z"/>
	<path fill-rule="evenodd" clip-rule="evenodd" fill="#EE7A00" d="M150.065,78.581c-2.333-2.434,2.421-4.087,1.94-0.835
		C151.924,78.291,150.288,78.813,150.065,78.581z"/>
	<path fill-rule="evenodd" clip-rule="evenodd" fill="#EE7A00" d="M156.017,79.855c-2.048,3.189,5.629,4.938,5.137,1.174
		C160.792,78.28,156.775,78.679,156.017,79.855z"/>
	<path fill-rule="evenodd" clip-rule="evenodd" fill="#EE7A00" d="M162.661,73.137c-0.784,7.532,9.943,3.916,4.606-1.196
		C166.375,71.088,162.74,72.405,162.661,73.137z"/>
	<path fill-rule="evenodd" clip-rule="evenodd" fill="#EE7A00" d="M164.405,81.958c-3.325-0.5-0.58-4.713,1.031-1.85
		C165.704,80.582,164.732,82.002,164.405,81.958z"/>
	<path fill-rule="evenodd" clip-rule="evenodd" fill="#EE7A00" d="M162.078,87.357c-2.329-2.428,2.426-4.08,1.946-0.833
		C163.941,87.063,162.303,87.596,162.078,87.357z"/>
	<path fill-rule="evenodd" clip-rule="evenodd" fill="#EE7A00" d="M157.949,65.653c-0.787,7.533,9.941,3.912,4.603-1.2
		C161.656,63.606,158.024,64.919,157.949,65.653z"/>
	<path fill-rule="evenodd" clip-rule="evenodd" fill="#EE7A00" d="M153.82,85.743c-2.329-2.434,2.424-4.085,1.946-0.835
		C155.684,85.448,154.048,85.983,153.82,85.743z"/>
	<path fill-rule="evenodd" clip-rule="evenodd" fill="#EE7A00" d="M148.058,83.585c-2.327-2.432,2.426-4.08,1.942-0.833
		C149.923,83.297,148.282,83.824,148.058,83.585z"/>
	<path fill-rule="evenodd" clip-rule="evenodd" fill="#EE7A00" d="M149.473,72.333c-2.329-2.431,2.426-4.081,1.94-0.833
		C151.338,72.04,149.7,72.576,149.473,72.333z"/>
	<path fill-rule="evenodd" clip-rule="evenodd" fill="#EE7A00" d="M150.416,66.741c-2.329-2.438,2.426-4.085,1.942-0.833
		C152.277,66.446,150.641,66.978,150.416,66.741z"/>
	<path fill-rule="evenodd" clip-rule="evenodd" fill="#4CBAC9" d="M126.058,87.799c-0.444,8.599,8.52,17.301,10.448,14.786
		c1.597-2.08-2.222-7.81-5.313-14.309c-1.875-3.945-1.006-1.316,1.498,0.659c5.137,4.058,16.425,6.337,8.508,0.081
		c-2.569-2.031-7.058-3.663-8.609-4.806c26.792,4.04,5.893-2.99,1.92-3.945c2.54-1.761,7.989-10.623,6.779-12.928
		c-1.445-2.747-6.975,0.812-11.394,10.35c1.738-18.957-3.312-23.169-5.078-3.407c-8.649-15.629-10.938-5.954-8.066-2.22
		c0.633,0.823,4.658,5.124,4.682,5.173c-6.726-0.884-13.127,0.357-13.021,1.217c0.208,1.656,12.89,4.108,12.712,4.22
		c-6.219,4.109-6.499,12.864-5.309,12.85C120.209,95.469,125.854,91.723,126.058,87.799z"/>
	<path fill-rule="evenodd" clip-rule="evenodd" fill="#FBBF04" d="M130.741,79.024c0.103,0.029,4.391,5.029-1.384,5.183
		C125.947,84.3,123.016,76.885,130.741,79.024z"/>
	<path fill-rule="evenodd" clip-rule="evenodd" fill="#EA5C05" d="M180.771,83.556c-6.724,2.649-6.014,21.914,7.675,13.642
		c3.851-3.871,2.803-6.223,3.308-5.292c2.54,4.68,6.012,9.126,11.182,8.937c4.784-0.179,12.568-7.845,5.582-16.44
		c-1.978-2.438,4.354,1.08,8.604-5.137c8.014-11.721-8.178-9.102-7.539-10.723c1.864-4.737,2.645-8.708,0.146-10.725
		c-6.525-5.266-11.336,3.724-12.777,6.167c-1.575-8.992-21.272-13.736-16.594,4.903c-6.347-0.291-11.026,5.311-8.7,9.278
		C173.886,81.961,180.251,83.428,180.771,83.556z"/>
	<path fill-rule="evenodd" clip-rule="evenodd" fill="#FBBF04" d="M197.103,71.134c0.209,0.036,8.778,5.769,0.367,12.916
		C189.237,91.046,181.951,68.624,197.103,71.134z"/>
	<path fill-rule="evenodd" clip-rule="evenodd" fill="#4CBAC9" d="M212.54,79.757c-3.986-5.359-1.946-14.826,0.375-14.039
		c1.931,0.659,1.926,5.998,2.732,11.516c0.49,3.351-0.083,1.279,0.683-1.069c1.567-4.828,7.867-11.155,5.451-3.713
		c-0.781,2.416-2.977,5.4-3.481,6.805c15.541-14.137,5.088-0.606,2.937,1.715c2.392,0.045,9.722,3.414,9.931,5.419
		c0.253,2.395-4.839,2.483-11.798-1.768c9.272,11.481,7.827,16.359-1.812,4.379c1.153,13.808-4.492,8.55-4.248,4.908
		c0.059-0.809,0.805-5.311,0.797-5.358c-3.963,3.465-8.621,5.419-8.921,4.824c-0.581-1.159,6.544-8.199,6.378-8.199
		c-5.778,0.03-9.726-5.497-8.952-6C205.471,77.323,210.724,77.31,212.54,79.757z"/>
	<path fill-rule="evenodd" clip-rule="evenodd" fill="#FBBF04" d="M219.337,83.398c0.051-0.063,0.667-5.138-3.122-2.749
		C213.973,82.056,215.276,88.097,219.337,83.398z"/>
</g>
<rect x="-655" y="-102" fill-rule="evenodd" clip-rule="evenodd" fill="none" stroke="#00A651" stroke-width="10" stroke-miterlimit="10" width="2843" height="1848"/>
</svg>
