<?xml version="1.0" encoding="utf-8"?>
<!-- Generator: Adobe Illustrator 16.0.0, SVG Export Plug-In . SVG Version: 6.00 Build 0)  -->
<!DOCTYPE svg PUBLIC "-//W3C//DTD SVG 1.1//EN" "http://www.w3.org/Graphics/SVG/1.1/DTD/svg11.dtd">
<svg version="1.1" id="Layer_1" xmlns="http://www.w3.org/2000/svg" xmlns:xlink="http://www.w3.org/1999/xlink" x="0px" y="0px"
	 width="400px" height="400px" viewBox="0 0 400 400" enable-background="new 0 0 400 400" xml:space="preserve">
<g>
	<path fill-rule="evenodd" clip-rule="evenodd" fill="#96BA34" d="M207.263,274.256c-0.041-6.875-29.289-7.494-28.155-14.406
		c0.905-5.547,2.79-7.514-0.919-10.645c-3.68,1.396-2.539,7.938-4.164,9.416c-1.386,1.262,0.777-7.088-3.736-8.125
		c-1.235-0.285-5.947,7.963-0.725,15.199c1.412,1.967-7.269-7.502-6.604-4.363c3.893,18.396,10.084,5.883,20.717,12.285
		C196.724,281.475,207.287,278.707,207.263,274.256z"/>
	<path fill-rule="evenodd" clip-rule="evenodd" fill="#96BA34" d="M233.64,216.705c-0.031,0-11.828-3.943-17.148-4.416
		c-6.844-0.607-29.285-7.49-28.154-14.402c0.908-5.545,2.793-7.51-0.916-10.641c-3.676,1.396-2.539,7.934-4.16,9.41
		c-1.386,1.262-5.354-2.303-9.867-3.342c-1.239-0.281-2.654,7.516,5.395,10.422c2.283,0.818-5.624,4.295-4.955,7.428
		c0.465,2.199,9.341-0.857,19.076,0.498c6.045,0.838,23.504,11.051,34.46,12.061C238.734,224.766,231.191,216.525,233.64,216.705z"
		/>
	<path fill-rule="evenodd" clip-rule="evenodd" fill="#F4AFB3" d="M161.537,195.838c-15.334-27.439-33.648-11.609-24.766,15.189
		c1.638,4.934,16.769,40.031,25.569,32.561c12.165-10.332,25.786-29.525,25.786-46.227c0-6.789-2.361-10.52-10.16-11.256
		C172.625,185.598,164.859,189.652,161.537,195.838z"/>
	<path fill-rule="evenodd" clip-rule="evenodd" fill="#6F813A" d="M322.333,190.295c35.271,92.137-10.077,152.961-72.012,173.586
		C67.92,424.615,30.248,218.508,94.419,180.57c-9.555,23.797-35.822,76.305,27.074,102.553
		c102.805,42.893,54.566-96.875,100.807-126.484C241.141,144.576,293.596,115.219,322.333,190.295z"/>
	<path fill-rule="evenodd" clip-rule="evenodd" fill="#96BA34" d="M215.565,232.688c-0.038-0.004-11.835-3.938-17.155-4.41
		c-6.836-0.609-29.277-7.494-28.15-14.406c0.904-5.539,2.797-7.514-0.92-10.645c-3.68,1.396-2.535,7.938-4.156,9.416
		c-1.383,1.262-5.354-2.305-9.871-3.342c-1.236-0.285-2.65,7.514,5.398,10.422c2.287,0.82-5.624,4.297-4.955,7.428
		c0.465,2.195,9.341-0.855,19.072,0.496c6.045,0.832,23.508,11.045,34.46,12.059C220.656,240.75,213.117,232.512,215.565,232.688z"
		/>
	<path fill-rule="evenodd" clip-rule="evenodd" fill="#6D952C" d="M265.763,175.525c43.11,114.416-34.117,207.313-164.563,155.713
		c2.678,8.48,32.86,27.99,69.238,33.379c37.549,5.557,81.785-3.512,114.281-27.27c87.451-63.93,16.393-206.104-11.662-185.635
		C267.9,155.479,263.902,165.805,265.763,175.525z"/>
	<path fill-rule="evenodd" clip-rule="evenodd" fill="#759D35" d="M188.216,27.625c-79.127,18.359-109.865,188.543,42.25,163.797
		C331.349,175.014,291.22,3.723,188.216,27.625z"/>
	<path fill-rule="evenodd" clip-rule="evenodd" fill="#31302F" d="M240.124,162.805c-5.86,3.168-10.333-5.748-6.045-8.174
		C241.835,150.242,244.87,160.24,240.124,162.805z"/>
	<path fill-rule="evenodd" clip-rule="evenodd" fill="#31302F" d="M139.152,140.502c-5.861,3.17-10.336-5.744-6.045-8.178
		C140.861,127.939,143.898,137.938,139.152,140.502z"/>
	<path fill-rule="evenodd" clip-rule="evenodd" fill="#96BA34" d="M153.926,182.41c3.026-5.809,4.13-147.201,44.259-156.52
		c16.82-3.912,44.894,5.277,63.7,23.525c-34.403,46.447-74.502,82.346-79.812,142.885c-5.223-1.273-10.666-2.246-15.352-3.928
		C159.371,185.74,153.874,182.516,153.926,182.41z"/>
	<path fill-rule="evenodd" clip-rule="evenodd" fill="#6F813A" d="M166.714,176.129c-2.929,1.584-5.162-2.871-3.022-4.08
		C167.57,169.848,169.087,174.85,166.714,176.129z"/>
	<path fill-rule="evenodd" clip-rule="evenodd" fill="#6F813A" d="M176.443,178.543c-2.933,1.584-5.163-2.875-3.02-4.088
		C177.298,172.258,178.816,177.26,176.443,178.543z"/>
	<path fill-rule="evenodd" clip-rule="evenodd" fill="#31302F" d="M211.394,178.115c2.042-4.189,2.898-3.533,2.29-0.973
		c-0.462,1.926-1.476,5.133-5.087,7.07c-4.318,2.32-12.822,0.166-13.288-2.178C194.855,179.727,206.062,189.094,211.394,178.115z"/>
	<path fill-rule="evenodd" clip-rule="evenodd" fill="#F4AFB3" d="M242.662,176.662c-9.45,3.248-16.645-5.887-9.739-8.377
		C245.41,163.795,250.302,174.033,242.662,176.662z"/>
	<path fill-rule="evenodd" clip-rule="evenodd" fill="#F4AFB3" d="M132.134,153.08c8.23,4.287,16.111-3.102,10.107-6.346
		C131.388,140.877,125.478,149.611,132.134,153.08z"/>
	<path fill-rule="evenodd" clip-rule="evenodd" fill="#96BA34" d="M185.157,308.008c-0.042-6.877-29.29-7.494-28.155-14.406
		c0.908-5.541,2.797-7.512-0.924-10.643c-3.672,1.396-2.531,7.932-4.152,9.412c-1.382,1.266,0.773-7.082-3.744-8.113
		c-1.234-0.293-5.943,7.959-0.725,15.189c1.416,1.969-7.268-7.5-6.604-4.361c3.893,18.393,10.084,5.887,20.714,12.285
		C174.614,315.229,185.179,312.461,185.157,308.008z"/>
</g>
<rect x="-655" y="-1362" fill-rule="evenodd" clip-rule="evenodd" fill="none" stroke="#00A651" stroke-width="10" stroke-miterlimit="10" width="2843" height="1848"/>
</svg>
