<?xml version="1.0" encoding="utf-8"?>
<!-- Generator: Adobe Illustrator 16.0.0, SVG Export Plug-In . SVG Version: 6.00 Build 0)  -->
<!DOCTYPE svg PUBLIC "-//W3C//DTD SVG 1.1//EN" "http://www.w3.org/Graphics/SVG/1.1/DTD/svg11.dtd">
<svg version="1.1" id="Layer_1" xmlns="http://www.w3.org/2000/svg" xmlns:xlink="http://www.w3.org/1999/xlink" x="0px" y="0px"
	 width="400px" height="400px" viewBox="0 0 400 400" enable-background="new 0 0 400 400" xml:space="preserve">
<g>
	<path fill-rule="evenodd" clip-rule="evenodd" fill="#FDE2C4" d="M134.041,196.923c-10.105-10.25-26.129,9.099-16.198,19.797
		c1.373,1.479-15.064,0.493-17.951,12.863c-3.469,14.845,9.168,22.136,8.455,22.211c-5.112,0.551-11.896,3.548-15.047,9.157
		c-2.521,4.472-1.945,16.759,3.743,20.407c-14.746-1.236-21.589,28.776,5.653,32.036c-17.773,24.259,11.849,54.973,41.142,27.522
		c8.103,45.799,49.162,31.461,61.724,11.705c14.52,11.27,43.145,20.875,48.531-3.332c21.335,18.266,38.3-7.544,35.341-18.698
		c9.15,2.924,34.632-3.277,17.15-32.971c2.89-4.332,35.286-15.849-1.391-40.083c16.006-15.157,5.843-38.728-12.424-39.358
		c12.619-18.215-7.023-37.122-26.122-22.372c-4.1-15.551-30.902-20.441-45.251,2.657c-4.089,6.575-22.174-21.246-46.96,3.538
		C172.228,194.766,149.022,166.432,134.041,196.923z"/>
	<path fill-rule="evenodd" clip-rule="evenodd" fill="#E7D29A" d="M270.264,125.006c-2.863-37.471-3.616-63.028-58.001-69.966
		c-105.159-13.414-122.483,93.958-73.767,139.651C183.069,236.49,277.493,219.46,270.264,125.006z"/>
	<path fill-rule="evenodd" clip-rule="evenodd" fill="#3B3A39" d="M195.014,193.608c2.616-0.048,7.85-1.579,7.966-4.082
		c0.003-0.044-4.185,1.319-7.185,1.833c-0.138-2.044-0.641-8.339-0.49-9.349c0.1-0.692,1.192-7.534,0.651-7.534
		c-3.127,0-2.436,12.013-2.929,15.814c-0.068,0.476-0.089,0.829-0.082,1.089c-1.476-0.24-4.133-0.764-7.496-1.723
		C185.429,192.752,190.764,193.688,195.014,193.608z"/>
	<path fill-rule="evenodd" clip-rule="evenodd" fill="#D79EA3" d="M187.949,177.445c-5.017-7.77-11.215-17.698,0.25-24.533
		c15.178-9.058,30.772,8.102,10.198,27.385C194.329,184.116,190.186,180.897,187.949,177.445z"/>
	<path fill-rule="evenodd" clip-rule="evenodd" fill="#3B3A39" d="M259.367,156.175c-4.891,3.565-9.993-3.917-6.428-6.623
		C259.395,144.659,263.332,153.292,259.367,156.175z"/>
	<path fill-rule="evenodd" clip-rule="evenodd" fill="#3B3A39" d="M137.105,160.021c-4.055,3.26-8.287-3.585-5.332-6.054
		C137.119,149.498,140.387,157.398,137.105,160.021z"/>
	<path fill-rule="evenodd" clip-rule="evenodd" fill="#F9D4D5" d="M255.62,165.932c7.281,11.301-12.968,18.677-18.54,10.397
		C226.999,161.364,249.73,156.792,255.62,165.932z"/>
	<path fill-rule="evenodd" clip-rule="evenodd" fill="#F9D4D5" d="M159.461,167.976c7.277,11.301-12.965,18.674-18.54,10.397
		C130.843,163.405,153.57,158.83,159.461,167.976z"/>
	<path fill-rule="evenodd" clip-rule="evenodd" fill="#E7D29A" d="M119.229,105.079c-2-4.657-21.231,15.931-23.947,32.423
		c-2.476,15.041-3.277,33.485-17.783,41.933c-1.493,9.071,31.602-10.267,37.266-30.313
		C117.456,139.581,123.524,115.102,119.229,105.079z"/>
	<path fill-rule="evenodd" clip-rule="evenodd" fill="#D79EA3" d="M115.881,110.832c-0.068-0.154-26.883,31.091-14.982,50.625
		c1.805-2.058,8.459-9.588,12.383-21.472C117.552,127.064,116.654,112.568,115.881,110.832z"/>
	<path fill-rule="evenodd" clip-rule="evenodd" fill="#E7D29A" d="M264.729,95.695c-4.794-1.633-2.349,26.444,8.103,39.495
		c9.514,11.894,22.697,24.824,19.273,41.262c5.742,7.171,13.506-30.361,2.383-47.977C289.197,120.092,275.058,99.209,264.729,95.695
		z"/>
	<path fill-rule="evenodd" clip-rule="evenodd" fill="#D79EA3" d="M266.771,102.034c-0.164-0.051,5.141,40.779,27.622,44.991
		c-0.325-2.712-1.473-12.698-7.685-23.561C279.955,111.647,268.579,102.626,266.771,102.034z"/>
	<path fill-rule="evenodd" clip-rule="evenodd" fill="#FDE2C4" d="M112.36,73.138c-9.198,7.099-7.894,24.914,9.568,23.931
		c5.859-0.329,5.349-11.414,5.726-0.606c0.164,4.562,7.226,9.301,13.283,6.366c-0.175,5.616,3.654,11.047,12.585,10.547
		c2.356-0.13,3.466-2.366,4.024-3.603c0.201,0.11,0.407,0.216,0.609,0.305c0.03,0.62,0.064,1.524,0.106,2.791
		c0.191,5.397,12.016,11.082,16.479-1.829c7.428,23.766,22.3,11.986,23.354,1.014c3.182,6.212,19.595,4.188,19.595-5.924
		c-0.431,5.188,16.674,6.082,16.178-6.938c5.959,8.383,19.369,9.157,19.595-6.021c0.041-2.894,2.206,3.617,6.784,6.229
		c12.619,7.202,23.334,0.644,16.226-12.883c13.585,1.229,10.865-20.499-3.623-15.352c-0.395-1.979-1.186-4.165-2.429-6.531
		c19.506,1.753,11.188-35.652-15.745-11.15c5.051-15.15-24.921-27.838-31.838-10.931c-26.358-23.328-35.19,7.812-35.618,12.088
		c-5.637-15.475-29.731-21.355-32.471,7.853c-8.438-26.163-26.999-14.818-27.794-0.637C122.202,46.041,98.557,62.132,112.36,73.138z
		"/>
	<path fill-rule="evenodd" clip-rule="evenodd" fill="#F1DCA8" d="M149.779,280.159c1.538,20.061,15.037,82.219,25.845,94.526
		c8.932-0.6,14.335-0.113,17.835-3.123c0-4.706-11.671-87.842-13.719-88.444C176.563,282.187,149.742,279.666,149.779,280.159z"/>
	<path fill-rule="evenodd" clip-rule="evenodd" fill="#CA9965" d="M169.659,363.826c3.239,0.093,20.245-1.305,22.502-3.736
		c0.497,0.106,1.034,8.486,1.271,10.893c0.236,2.449-16.17,5.414-18.649,3.288C173.98,373.586,169.371,363.816,169.659,363.826z"/>
	<path fill-rule="evenodd" clip-rule="evenodd" fill="#F1DCA8" d="M256.354,276.348c-1.538,20.061-15.037,82.219-25.845,94.526
		c-8.931-0.603-14.339-0.12-17.831-3.12c0-4.709,11.663-87.845,13.711-88.441C229.574,278.378,256.388,275.854,256.354,276.348z"/>
	<path fill-rule="evenodd" clip-rule="evenodd" fill="#CA9965" d="M236.484,360.019c-3.253,0.092-20.259-1.309-22.513-3.736
		c-0.493,0.099-1.034,8.486-1.267,10.89c-0.24,2.449,16.177,5.418,18.649,3.291C232.156,369.778,236.759,360.004,236.484,360.019z"
		/>
	<path fill-rule="evenodd" clip-rule="evenodd" fill="#728442" d="M171.121,56.201c-1.051-1.428-2.777-2.719-4.948-3.825
		c-0.637,6.691-8.753,10.236-8.616,6.363c0.075-2.055,5.109-6.034,7.191-6.849c0.082-0.038,0.168-0.055,0.268-0.068
		c-2.25-1.007-4.884-1.835-7.709-2.435c0.798,6.746-6.359,12.068-7.119,8.202c-0.411-2.062,3.671-7.195,5.562-8.503
		c-2.973-0.527-6.106-0.798-9.195-0.76c1.99,5.986-3.428,12.211-4.903,8.849c-0.771-1.757,1.764-7.058,3.256-8.797
		c-0.157,0.01-0.314,0.017-0.469,0.024c-2.28,0.137-4.53,0.531-6.674,1.072c2.773,5.027-1.37,11.4-3.072,8.582
		c-0.894-1.479,0.818-6.612,1.914-8.143c0.041-0.062,0.096-0.124,0.158-0.178c-2.186,0.606-4.247,1.356-6.113,2.147
		c2.49,3.784-0.271,9.065-1.839,6.979c-0.809-1.076,0.072-5.103,0.809-6.534c-2.74,1.219-4.979,2.473-6.425,3.346
		c0.027,0.229-0.041,0.585-0.171,0.777c-0.85,1.247-4.226,3.973-5.582,3.709c-2.603-0.493,1.044-5.4,5.605-4.699
		c0.859-0.654,1.736-1.267,2.634-1.822c-1.863,0.093-5.041-0.277-5.732-1.219c-1.541-2.116,4.362-3.208,7.239,0.315
		c1.849-1.044,3.773-1.928,5.729-2.651c-1.85-0.12-5.052-0.931-5.627-1.979c-1.253-2.322,4.85-2.599,7.195,1.376
		c0.01,0.017,0.014,0.031,0.017,0.051c1.609-0.527,3.236-0.952,4.859-1.281c-1.808-0.527-4.489-1.805-4.839-2.873
		c-0.814-2.486,5.109-1.702,6.771,2.524c2.627-0.428,5.223-0.617,7.694-0.596c-2.489-1.479-6.185-4.609-6.267-6.39
		c-0.191-4.024,8.287-0.459,9.062,6.486c3.055,0.209,5.869,0.726,8.267,1.469l0.171,0.051c-2.318-1.976-5.65-6.021-5.396-7.914
		c0.575-4.267,8.89,1.229,8.16,8.729c-0.003,0.044-0.023,0.079-0.051,0.113c2.582,0.952,5.103,2.137,7.352,3.716
		C174.645,56.608,172.008,57.393,171.121,56.201z"/>
	<path fill-rule="evenodd" clip-rule="evenodd" fill="#728442" d="M215.492,57.899c1.052-1.421,2.774-2.716,4.952-3.829
		c0.63,6.691,8.753,10.232,8.612,6.37c-0.072-2.055-5.109-6.041-7.188-6.856c-0.083-0.027-0.172-0.051-0.274-0.065
		c2.25-1.01,4.884-1.839,7.712-2.435c-0.798,6.75,6.359,12.064,7.123,8.202c0.404-2.058-3.678-7.198-5.568-8.503
		c2.973-0.521,6.109-0.791,9.198-0.757c-1.986,5.983,3.425,12.212,4.904,8.853c0.773-1.767-1.768-7.065-3.254-8.801
		c0.158,0.003,0.309,0.017,0.466,0.024c2.281,0.141,4.531,0.524,6.678,1.062c-2.773,5.037,1.363,11.407,3.068,8.588
		c0.897-1.476-0.825-6.606-1.918-8.147c-0.034-0.058-0.096-0.116-0.164-0.174c2.191,0.609,4.26,1.359,6.116,2.15
		c-2.479,3.781,0.281,9.064,1.846,6.976c0.809-1.079-0.075-5.103-0.808-6.527c2.739,1.216,4.976,2.472,6.428,3.342
		c-0.034,0.229,0.034,0.585,0.167,0.774c0.854,1.25,4.223,3.972,5.586,3.708c2.596-0.49-1.048-5.397-5.616-4.698h0.007
		c-0.856-0.651-1.739-1.257-2.63-1.825c1.862,0.103,5.034-0.274,5.726-1.216c1.541-2.12-4.356-3.208-7.239,0.312
		c-1.85-1.041-3.774-1.924-5.723-2.644c1.846-0.126,5.052-0.935,5.62-1.983c1.26-2.318-4.843-2.599-7.191,1.38
		c-0.007,0.014-0.014,0.027-0.014,0.051c-1.613-0.527-3.243-0.959-4.87-1.284c1.815-0.524,4.5-1.805,4.846-2.87
		c0.812-2.486-5.109-1.702-6.771,2.513c-2.63-0.421-5.222-0.599-7.698-0.589c2.493-1.476,6.185-4.606,6.271-6.39
		c0.195-4.027-8.291-0.456-9.064,6.49c-3.052,0.208-5.87,0.722-8.267,1.469l-0.165,0.055c2.315-1.986,5.65-6.027,5.397-7.917
		c-0.579-4.274-8.896,1.229-8.167,8.726c0.003,0.041,0.023,0.082,0.051,0.113c-2.582,0.956-5.103,2.144-7.355,3.719
		C211.976,58.31,214.608,59.091,215.492,57.899z"/>
	<path fill-rule="evenodd" clip-rule="evenodd" fill="#FBBF26" d="M157.488,44.896c-7.739-3.044-6.925-25.214,8.825-15.698
		c4.435,4.455,3.229,7.161,3.812,6.089c2.921-5.387,6.917-10.506,12.858-10.28c5.517,0.202,14.469,9.023,6.441,18.906
		c-2.291,2.818,5.004-1.24,9.897,5.921c9.215,13.486-9.418,10.476-8.685,12.335c2.144,5.448,2.928,9.886,0.171,12.345
		c-2.287,2.041-13.047-0.069-14.705-2.877c-3.212,7.534-24.475,11.592-19.091-9.869c-7.305,0.342-12.695-6.106-10.017-10.674
		C149.564,46.732,156.886,45.047,157.488,44.896z"/>
	<path fill-rule="evenodd" clip-rule="evenodd" fill="#EE7A10" d="M164.434,47.205c-3.227,1.141,1.287,6.633,3.013,3.682
		C168.707,48.722,165.625,46.787,164.434,47.205z"/>
	<path fill-rule="evenodd" clip-rule="evenodd" fill="#EE7A10" d="M172.892,46.088c-4.726,4.938,4.918,8.291,3.941,1.695
		C176.669,46.681,173.344,45.602,172.892,46.088z"/>
	<path fill-rule="evenodd" clip-rule="evenodd" fill="#EE7A10" d="M169.255,53.345c-2.103-2.198,2.195-3.685,1.76-0.757
		C170.939,53.078,169.464,53.557,169.255,53.345z"/>
	<path fill-rule="evenodd" clip-rule="evenodd" fill="#EE7A10" d="M174.631,54.499c-1.846,2.873,5.082,4.455,4.641,1.055
		C178.942,53.074,175.316,53.43,174.631,54.499z"/>
	<path fill-rule="evenodd" clip-rule="evenodd" fill="#EE7A10" d="M180.631,48.431c-0.712,6.801,8.966,3.527,4.154-1.082
		C183.98,46.582,180.696,47.766,180.631,48.431z"/>
	<path fill-rule="evenodd" clip-rule="evenodd" fill="#EE7A10" d="M182.206,56.389c-3.007-0.449-0.53-4.25,0.929-1.671
		C183.37,55.153,182.497,56.434,182.206,56.389z"/>
	<path fill-rule="evenodd" clip-rule="evenodd" fill="#EE7A10" d="M180.101,61.266c-2.1-2.195,2.191-3.685,1.757-0.75
		C181.781,61.002,180.306,61.481,180.101,61.266z"/>
	<path fill-rule="evenodd" clip-rule="evenodd" fill="#EE7A10" d="M176.374,41.674c-0.709,6.804,8.969,3.537,4.15-1.076
		C179.72,39.828,176.439,41.017,176.374,41.674z"/>
	<path fill-rule="evenodd" clip-rule="evenodd" fill="#EE7A10" d="M172.652,59.807c-2.11-2.191,2.188-3.681,1.753-0.75
		C174.33,59.543,172.854,60.022,172.652,59.807z"/>
	<path fill-rule="evenodd" clip-rule="evenodd" fill="#EE7A10" d="M167.446,57.865c-2.103-2.202,2.192-3.685,1.754-0.753
		C169.128,57.602,167.652,58.081,167.446,57.865z"/>
	<path fill-rule="evenodd" clip-rule="evenodd" fill="#EE7A10" d="M168.728,47.705c-2.103-2.191,2.185-3.681,1.75-0.75
		C170.402,47.441,168.926,47.92,168.728,47.705z"/>
	<path fill-rule="evenodd" clip-rule="evenodd" fill="#EE7A10" d="M169.58,42.657c-2.106-2.198,2.188-3.685,1.75-0.753
		C171.262,42.39,169.782,42.873,169.58,42.657z"/>
	<path fill-rule="evenodd" clip-rule="evenodd" fill="#52BBC9" d="M147.592,61.66c-0.404,7.767,7.691,15.612,9.428,13.345
		c1.448-1.877-2.007-7.041-4.791-12.911c-1.688-3.562-0.911-1.185,1.355,0.593c4.637,3.661,14.821,5.726,7.671,0.075
		c-2.318-1.829-6.369-3.308-7.767-4.339c24.181,3.65,5.315-2.699,1.733-3.562c2.294-1.585,7.212-9.582,6.119-11.66
		c-1.305-2.479-6.294,0.726-10.287,9.335c1.572-17.112-2.989-20.91-4.578-3.075c-7.809-14.105-9.873-5.376-7.281-2.003
		c0.575,0.743,4.202,4.63,4.22,4.674c-6.068-0.801-11.843,0.315-11.746,1.096c0.191,1.489,11.629,3.705,11.476,3.808
		c-5.613,3.708-5.866,11.612-4.798,11.599C142.317,68.587,147.406,65.204,147.592,61.66z"/>
	<path fill-rule="evenodd" clip-rule="evenodd" fill="#FBBF26" d="M151.817,53.742c0.096,0.027,3.966,4.541-1.247,4.681
		C147.492,58.505,144.849,51.817,151.817,53.742z"/>
	<path fill-rule="evenodd" clip-rule="evenodd" fill="#E95707" d="M196.973,57.834c-6.075,2.387-5.425,19.776,6.925,12.311
		c3.479-3.493,2.53-5.616,2.985-4.774c2.291,4.226,5.425,8.232,10.089,8.062c4.321-0.158,11.349-7.082,5.044-14.828
		c-1.791-2.209,3.925,0.969,7.764-4.644c7.232-10.579-7.383-8.212-6.808-9.674c1.688-4.274,2.39-7.859,0.137-9.681
		c-5.89-4.753-10.232,3.359-11.534,5.562c-1.421-8.116-19.197-12.39-14.979,4.431c-5.726-0.264-9.951,4.794-7.846,8.366
		C190.757,56.393,196.497,57.718,196.973,57.834z"/>
	<path fill-rule="evenodd" clip-rule="evenodd" fill="#FBBF26" d="M211.712,46.626c0.191,0.027,7.917,5.205,0.328,11.653
		C204.612,64.591,198.041,44.355,211.712,46.626z"/>
	<path fill-rule="evenodd" clip-rule="evenodd" fill="#52BBC9" d="M225.643,54.403c-3.596-4.835-1.757-13.379,0.336-12.664
		c1.746,0.589,1.746,5.411,2.472,10.393c0.438,3.024-0.075,1.154,0.61-0.969c1.417-4.359,7.099-10.068,4.924-3.353
		c-0.705,2.185-2.685,4.876-3.144,6.144c14.02-12.76,4.589-0.548,2.647,1.551c2.164,0.041,8.773,3.075,8.969,4.887
		c0.226,2.164-4.377,2.243-10.654-1.596c8.373,10.363,7.072,14.77-1.633,3.959c1.037,12.451-4.052,7.712-3.829,4.421
		c0.052-0.723,0.72-4.794,0.713-4.829c-3.575,3.126-7.777,4.887-8.048,4.346c-0.521-1.048,5.904-7.394,5.76-7.394
		c-5.219,0.021-8.776-4.962-8.082-5.417C219.259,52.205,224.002,52.194,225.643,54.403z"/>
	<path fill-rule="evenodd" clip-rule="evenodd" fill="#FBBF26" d="M231.775,57.694c0.052-0.062,0.604-4.637-2.818-2.483
		C226.94,56.485,228.111,61.934,231.775,57.694z"/>
</g>
<rect x="-1915" y="-102" fill-rule="evenodd" clip-rule="evenodd" fill="none" stroke="#00A651" stroke-width="10" stroke-miterlimit="10" width="2843" height="1848"/>
</svg>
