<?xml version="1.0" encoding="utf-8"?>
<!-- Generator: Adobe Illustrator 16.0.0, SVG Export Plug-In . SVG Version: 6.00 Build 0)  -->
<!DOCTYPE svg PUBLIC "-//W3C//DTD SVG 1.1//EN" "http://www.w3.org/Graphics/SVG/1.1/DTD/svg11.dtd">
<svg version="1.1" id="Layer_1" xmlns="http://www.w3.org/2000/svg" xmlns:xlink="http://www.w3.org/1999/xlink" x="0px" y="0px"
	 width="400px" height="400px" viewBox="0 0 400 400" enable-background="new 0 0 400 400" xml:space="preserve">
<g>
	<path fill-rule="evenodd" clip-rule="evenodd" fill="#54432B" d="M184.703,275.068c0.434,54.412,4.471,73.797,3.828,81.967
		c-0.402,5.092-1.058,2.629-8.34,8.734c-0.049,0.045,6.929-2.475,7.879-2.213c0.876,0.242-1.254,3.492-2.177,6.984
		c2.966-3.059,3.849-5.547,5.081-6.865c0.677-0.719-0.375,5.518,1.202,6.396c0.514,0.287,0.04,0.613,1.214-6.348
		c0.766,1.295,5.59,2.955,5.494,2.811c-2.602-3.967-5.227-0.803-6.363-9.025c-0.993-7.164-1.15-48.377-0.873-83.598
		C191.762,259.445,184.694,274.002,184.703,275.068z"/>
	<path fill-rule="evenodd" clip-rule="evenodd" fill="#C5C4C5" d="M177.252,169.246c-1.005,14.422-0.169,20.855-2.742,53.223
		c31.882,4.709,36.592,6.898,47.399,3.588c-1.823-40.973-6.099-67.154-5.417-67.52c19.854-10.609,29.33-55.777,18.138-78.205
		c-3.896-6.143,18.688,13.053,37.185,6.533c-24.826-5-59.447-32.705-64.682-36.234c-42.918-28.945-90.713,7.119-99.853,49.658
		C99.862,134.816,126.22,170.912,177.252,169.246z"/>
	<path fill-rule="evenodd" clip-rule="evenodd" fill="#F4AFB3" d="M147.867,138.58c0.574,9.627,15.42,5.324,15.143-1.83
		C162.506,123.813,147.406,130.793,147.867,138.58z"/>
	<path fill-rule="evenodd" clip-rule="evenodd" fill="#31302F" d="M154.594,126.945c4.223,0.188,3.716-6.33,0.59-6.537
		C149.533,120.043,151.178,126.791,154.594,126.945z"/>
	<path fill-rule="evenodd" clip-rule="evenodd" fill="#F18D18" d="M130.609,138.977c-22.385,12.84-66.23,39.164-63.873,50.307
		c0.501,2.361,34.42-23.756,53.51-32.475c-15.938,11.645-55.186,33.658-51.213,34.107c3.869,0.434,40.433-16.791,72.953-38.475
		C147.193,140.689,138.752,134.305,130.609,138.977z"/>
	<path fill-rule="evenodd" clip-rule="evenodd" fill="#C5C4C5" d="M159.205,285.893c-30.75-31.563-24.027-76.316,11.017-91.854
		c56.542-25.066,83.108-2.334,114.544,25.078c29.136,25.402,59.298,66.969,44.862,73.289c-3.774,1.654-24.039-19.09-28.063-18.051
		c-35.164,9.066-61.985,18.943-85.604,24.232C199.908,302.182,170.369,297.35,159.205,285.893z"/>
	<path fill-rule="evenodd" clip-rule="evenodd" fill="#7B7772" d="M288.65,246.51c-29.953-7.521-92.545-9.826-76.993-38.996
		C221.916,188.27,305.146,250.65,288.65,246.51z"/>
	<path fill-rule="evenodd" clip-rule="evenodd" fill="#54432B" d="M214.986,279.529c0.434,54.414,4.47,73.803,3.828,81.965
		c-0.4,5.096-1.059,2.633-8.338,8.742c-0.052,0.039,6.926-2.475,7.876-2.217c0.876,0.242-1.251,3.488-2.173,6.98
		c2.963-3.059,3.848-5.545,5.081-6.861c0.673-0.721-0.378,5.52,1.198,6.395c0.514,0.287,0.043,0.611,1.218-6.352
		c0.766,1.301,5.589,2.959,5.493,2.811c-2.604-3.959-5.229-0.797-6.366-9.025c-0.989-7.16-1.149-48.371-0.873-83.594
		C222.045,263.91,214.978,278.463,214.986,279.529z"/>
	<path fill-rule="evenodd" clip-rule="evenodd" fill="#6F813A" d="M177.922,43.729c-0.211-0.094-3.651,1.719-7.479,2.912
		c-0.855,0.268-1.795,0.52-2.804,0.75c2.081,2.807-1.694,8.875-2.296,8.881c-3.539,0.025-1.918-5.912,0.932-8.58
		c-2.162,0.453-4.517,0.83-6.775,1.115c1.361,3.238-3.861,8.197-4.449,8.045c-3.307-0.83-0.58-5.814,2.688-7.844
		c-1.285,0.139-2.509,0.242-3.609,0.307c-0.531,0.025-1.46,0.127-2.588,0.25c1.098,3.531-5.401,7.516-5.964,7.238
		c-3.01-1.488,0.534-5.672,4.101-7.039c-1.74,0.184-3.654,0.381-5.223,0.473c-3.086,2.473-10.104,2.758-9.117-0.869
		c0.162-0.588,6.978-2.682,9.163,0.037c0.753-0.016,1.66-0.07,2.659-0.145c-3.8-1.027-8.143-6.051-4.793-7.545
		c0.572-0.252,6.902,3.984,5.669,7.471c1.885-0.166,4.062-0.408,6.284-0.695c-3.807-1.02-8.145-6.049-4.793-7.539
		c0.568-0.256,6.846,3.953,5.684,7.426c2.791-0.359,5.602-0.768,7.956-1.141c-3.698-1.234-7.655-5.988-4.415-7.434
		c0.561-0.248,6.598,3.779,5.746,7.213c0.919-0.148,1.742-0.289,2.426-0.412c1.977-0.359,10.368-3.861,10.796-3.23
		C177.855,43.578,178.039,43.781,177.922,43.729z"/>
	<path fill-rule="evenodd" clip-rule="evenodd" fill="#759D35" d="M179.4,45.734c0.17-0.068,2.813,1.465,5.777,2.523
		c0.66,0.23,1.395,0.457,2.176,0.672c-1.721,2.137,1.049,7.016,1.521,7.041c2.776,0.129,1.691-4.574-0.461-6.76
		c1.685,0.424,3.52,0.793,5.281,1.088c-1.174,2.492,2.767,6.553,3.234,6.453c2.619-0.549,0.643-4.545-1.86-6.238
		c1.005,0.15,1.962,0.268,2.822,0.354c0.421,0.039,1.144,0.148,2.022,0.273c-0.971,2.742,4,6.074,4.451,5.871
		c2.404-1.068-0.242-4.467-2.994-5.65c1.362,0.201,2.855,0.412,4.082,0.535c2.344,2.041,7.84,2.484,7.182-0.393
		c-0.107-0.465-5.392-2.324-7.193-0.262c-0.59-0.033-1.294-0.102-2.081-0.199c3.016-0.684,6.581-4.492,3.999-5.762
		c-0.439-0.221-5.542,2.906-4.682,5.676c-1.479-0.188-3.176-0.449-4.909-0.738c3.013-0.682,6.579-4.492,3.997-5.764
		c-0.438-0.219-5.494,2.883-4.695,5.646c-2.176-0.375-4.367-0.783-6.203-1.15c2.941-0.857,6.194-4.457,3.698-5.689
		c-0.431-0.215-5.29,2.758-4.737,5.475c-0.717-0.145-1.355-0.279-1.887-0.398c-1.537-0.348-8.012-3.361-8.365-2.875
		C179.459,45.617,179.309,45.77,179.4,45.734z"/>
	<path fill-rule="evenodd" clip-rule="evenodd" fill="#FBBF04" d="M175.908,51.809c-0.448,8.715,8.636,17.521,10.585,14.982
		c1.616-2.109-2.253-7.916-5.38-14.498c-1.9-3.996-1.018-1.328,1.516,0.678c5.204,4.104,16.64,6.414,8.617,0.072
		c-2.602-2.057-7.148-3.709-8.719-4.863c27.138,4.092,5.967-3.029,1.949-3.998c2.57-1.783,8.091-10.754,6.864-13.086
		c-1.466-2.789-7.067,0.811-11.544,10.475c1.762-19.199-3.354-23.463-5.143-3.447c-8.758-15.836-11.072-6.033-8.168-2.254
		c0.643,0.836,4.717,5.195,4.74,5.248c-6.812-0.895-13.295,0.355-13.184,1.229c0.209,1.676,13.055,4.162,12.877,4.275
		c-6.299,4.164-6.585,13.025-5.383,13.014C169.988,59.582,175.703,55.785,175.908,51.809z"/>
	<path fill-rule="evenodd" clip-rule="evenodd" fill="#EA5C05" d="M178.811,43.031c0.107,0.033,4.451,5.098-1.396,5.25
		C173.957,48.375,170.994,40.871,178.811,43.031z"/>
	<path fill-rule="evenodd" clip-rule="evenodd" fill="#EA5C05" d="M192.229,38.445c0.188-3.635-3.6-7.305-4.414-6.244
		c-0.673,0.877,0.938,3.299,2.244,6.041c0.793,1.67,0.428,0.557-0.633-0.283c-2.168-1.709-6.936-2.674-3.591-0.027
		c1.089,0.861,2.979,1.543,3.634,2.029c-11.313-1.709-2.484,1.26-0.812,1.662c-1.073,0.748-3.369,4.482-2.862,5.457
		c0.611,1.162,2.945-0.338,4.814-4.365c-0.734,7.998,1.396,9.779,2.143,1.436c3.652,6.6,4.617,2.514,3.406,0.941
		c-0.271-0.352-1.968-2.164-1.98-2.189c2.841,0.375,5.543-0.148,5.497-0.514c-0.087-0.697-5.441-1.734-5.368-1.779
		c2.626-1.736,2.749-5.432,2.248-5.426C194.697,35.207,192.313,36.787,192.229,38.445z"/>
	<path fill-rule="evenodd" clip-rule="evenodd" fill="#FBBF04" d="M191.021,42.105c-0.047-0.016-1.857-2.123,0.58-2.193
		C193.041,39.877,194.279,43.006,191.021,42.105z"/>
	<path fill-rule="evenodd" clip-rule="evenodd" fill="#EA5C05" d="M165.906,50.561c0.188-3.631-3.598-7.305-4.408-6.244
		c-0.68,0.879,0.934,3.299,2.237,6.043c0.794,1.66,0.428,0.551-0.63-0.281c-2.17-1.713-6.932-2.676-3.591-0.035
		c1.082,0.857,2.976,1.549,3.634,2.029c-11.31-1.707-2.486,1.266-0.812,1.666c-1.073,0.74-3.372,4.484-2.858,5.459
		c0.605,1.16,2.944-0.34,4.807-4.367c-0.734,8.002,1.396,9.777,2.146,1.438c3.648,6.598,4.614,2.51,3.402,0.936
		c-0.27-0.344-1.964-2.164-1.977-2.186c2.841,0.371,5.54-0.15,5.497-0.514c-0.087-0.695-5.441-1.734-5.368-1.779
		c2.626-1.738,2.749-5.432,2.242-5.426C168.375,47.32,165.995,48.902,165.906,50.561z"/>
	<path fill-rule="evenodd" clip-rule="evenodd" fill="#FBBF04" d="M164.695,54.219c-0.043-0.014-1.852-2.125,0.586-2.189
		C166.717,51.99,167.956,55.119,164.695,54.219z"/>
</g>
<rect x="-1075" y="-1362" fill-rule="evenodd" clip-rule="evenodd" fill="none" stroke="#00A651" stroke-width="10" stroke-miterlimit="10" width="2843" height="1848"/>
</svg>
