<?xml version="1.0" encoding="utf-8"?>
<!-- Generator: Adobe Illustrator 16.0.0, SVG Export Plug-In . SVG Version: 6.00 Build 0)  -->
<!DOCTYPE svg PUBLIC "-//W3C//DTD SVG 1.1//EN" "http://www.w3.org/Graphics/SVG/1.1/DTD/svg11.dtd">
<svg version="1.1" id="Layer_1" xmlns="http://www.w3.org/2000/svg" xmlns:xlink="http://www.w3.org/1999/xlink" x="0px" y="0px"
	 width="400px" height="400px" viewBox="0 0 400 400" enable-background="new 0 0 400 400" xml:space="preserve">
<g>
	<path fill-rule="evenodd" clip-rule="evenodd" fill="#694926" d="M270.457,218.939c7.845-5.335,29.955-22.761,40.416-43.56
		c30.068,48.378-39.604,98.511-38.883,76.021c0.113-3.636-1.679-16.626-1.679-23.284
		C270.311,224.573,268.471,220.279,270.457,218.939z"/>
	<path fill-rule="evenodd" clip-rule="evenodd" fill="#694926" d="M129.553,214.21c-7.845-5.335-29.959-22.761-40.427-43.56
		c-30.064,48.378,39.604,98.519,38.894,76.028c-0.121-3.64,1.671-16.634,1.671-23.293
		C129.691,219.843,131.527,215.55,129.553,214.21z"/>
	<path fill-rule="evenodd" clip-rule="evenodd" fill="#694926" d="M236.058,333.321c3.721,3.861-12.18,28.236-4.044,32.688
		c7.345,4.02,9.379,11.202-3.901,0.783c-1.373-1.078-7.195,6.694-8.737,6.344c-1.3-0.312,1.59-6.438,7.062-9.823
		C230.021,352.187,230.167,327.224,236.058,333.321z"/>
	<path fill-rule="evenodd" clip-rule="evenodd" fill="#694926" d="M183.31,335.186c-3.717,3.85,12.184,28.236,4.044,32.688
		c-7.341,4.011-9.379,11.202,3.906,0.782c1.368-1.077,7.195,6.691,8.737,6.332c1.307-0.303-1.591-6.424-7.059-9.818
		C189.359,354.052,189.198,329.075,183.31,335.186z"/>
	<path fill-rule="evenodd" clip-rule="evenodd" fill="#C57801" d="M124.638,198.067c3.156,0.444-24.915,165.27,106.072,147.207
		c61.675-8.499,46.065-150.035,43.467-149.785c-14.023,1.344-8.813,5.678-36.529,5.678c-16.622,0-95.02,0.024-109.435-6.554
		C125.885,193.552,126.083,198.27,124.638,198.067z"/>
	<path fill-rule="evenodd" clip-rule="evenodd" fill="#FBCF9E" d="M158.463,220.65c1.913,0.274-15.145,100.443,64.463,89.467
		c37.486-5.174,27.99-91.182,26.417-91.032c-8.523,0.814-5.359,3.445-22.203,3.445c-10.098,0-57.748,0.024-66.506-3.979
		C159.218,217.897,159.339,220.771,158.463,220.65z"/>
	<path fill-rule="evenodd" clip-rule="evenodd" fill="#DA8000" d="M115.397,194.436c15.214,15.804,57.739,40.899,80.504,42.688
		c32.619,2.563,72.667-17.627,92.103-39.386c10.379-11.623,10.152-32.385,14.995-59.459c0.598-3.325,13.705-121-5.358-81.803
		c-0.957,1.969-8.08,22.397-8.023,23.099c-12.175,0-35.71-28.135-76.553-28.135c-20.46,0-57.828-4.048-74.414,5.209
		c-23.87,13.325,8.078-60.221-21.469-18.906C108.153,50.361,88.198,166.175,115.397,194.436z"/>
	<path fill-rule="evenodd" clip-rule="evenodd" fill="#FBCF9E" d="M227.099,121.325c-32.949,49.632,10.573,101.412,45.835,62.17
		C322.809,128.008,252.16,83.581,227.099,121.325z"/>
	<path fill-rule="evenodd" clip-rule="evenodd" fill="#FBCF9E" d="M178.327,119.88c22.396,51.215-35.274,91.973-53.826,55.42
		C90.74,108.782,160.17,78.367,178.327,119.88z"/>
	<path fill-rule="evenodd" clip-rule="evenodd" fill="#F4AFB3" d="M138.953,161.155c-7.607,11.855,13.615,19.548,19.442,10.863
		C168.923,156.325,145.106,151.575,138.953,161.155z"/>
	<path fill-rule="evenodd" clip-rule="evenodd" fill="#F4AFB3" d="M246.228,161.466c-7.607,11.856,13.615,19.548,19.442,10.863
		C276.203,156.627,252.377,151.878,246.228,161.466z"/>
	<path fill-rule="evenodd" clip-rule="evenodd" fill="#96BA34" d="M205.38,240.017c2.296,5.008,22.453,15.831,27.828,16.812
		c3.181,0.569,10.981,2.801,8.786-2.748c-2.559-6.473-22.175-9.822-28.817-12.106C212.426,241.708,205.255,239.759,205.38,240.017z"
		/>
	<path fill-rule="evenodd" clip-rule="evenodd" fill="#9FC243" d="M205.38,240.017c-0.307-3.459-0.113-10.153,1.142-13.176
		c1.546-3.725,1.724-5.045,7.345-6.134c3.479-0.674,26.344-4.682,27.845-1.663c2.442,4.896,3.895,24.718,3.039,31.065
		c-0.133,0.973-1.771,7.381-2.998,4.342c-0.957-2.364-13.144-8.53-16.364-8.914c-2.421-0.286-12.042-2.078-13.656-3.285
		C211.579,242.14,205.409,240.408,205.38,240.017z"/>
	<path fill-rule="evenodd" clip-rule="evenodd" fill="#96BA34" d="M196.369,242.595c-2.296,5.013-22.453,15.836-27.832,16.805
		c-3.172,0.576-10.977,2.801-8.781-2.736c2.559-6.473,22.175-9.822,28.817-12.115C189.323,244.294,196.494,242.337,196.369,242.595z
		"/>
	<path fill-rule="evenodd" clip-rule="evenodd" fill="#9FC243" d="M196.369,242.595c0.303-3.458,0.109-10.152-1.142-13.176
		c-1.55-3.732-1.72-5.048-7.353-6.138c-3.471-0.678-26.336-4.685-27.845-1.658c-2.438,4.895-3.891,24.713-3.026,31.069
		c0.129,0.969,1.759,7.381,2.985,4.334c0.969-2.361,13.152-8.527,16.372-8.902c2.418-0.299,12.042-2.082,13.652-3.293
		C190.167,244.714,196.341,242.982,196.369,242.595z"/>
	<path fill-rule="evenodd" clip-rule="evenodd" fill="#759D35" d="M209.302,228.681c1.4,3.745,0.8,9.843-1.92,13.14
		c-1.688,2.058-5.045,2.522-7.627,2.522c-2.753,0-6.021,0.649-8.071-1.105c-3.212-2.748-2.748-12.789-1.247-16.304
		C192.661,221.731,207.091,222.753,209.302,228.681z"/>
	<path fill-rule="evenodd" clip-rule="evenodd" fill="#31302F" d="M139.23,150.78c5.812,4.217,11.849-4.674,7.611-7.87
		C139.182,137.132,134.533,147.374,139.23,150.78z"/>
	<path fill-rule="evenodd" clip-rule="evenodd" fill="#31302F" d="M262.006,154.759c4.822,3.85,9.83-4.277,6.315-7.203
		C261.966,142.261,258.104,151.64,262.006,154.759z"/>
	<path fill-rule="evenodd" clip-rule="evenodd" fill="#FBBF04" d="M195.526,172.7c6.573,1.001,9.145,3.846-3.147,15.424
		C188.052,185.308,176.728,169.852,195.526,172.7z"/>
</g>
<rect x="-1075" y="-102" fill-rule="evenodd" clip-rule="evenodd" fill="none" stroke="#00A651" stroke-width="10" stroke-miterlimit="10" width="2843" height="1848"/>
</svg>
