<?xml version="1.0" encoding="utf-8"?>
<!-- Generator: Adobe Illustrator 16.0.0, SVG Export Plug-In . SVG Version: 6.00 Build 0)  -->
<!DOCTYPE svg PUBLIC "-//W3C//DTD SVG 1.1//EN" "http://www.w3.org/Graphics/SVG/1.1/DTD/svg11.dtd">
<svg version="1.1" id="Layer_1" xmlns="http://www.w3.org/2000/svg" xmlns:xlink="http://www.w3.org/1999/xlink" x="0px" y="0px"
	 width="400px" height="400px" viewBox="0 0 400 400" enable-background="new 0 0 400 400" xml:space="preserve">
<g>
	<path fill-rule="evenodd" clip-rule="evenodd" fill="#3B3A39" d="M168.02,319.236c4.988,28.54,20.328,30.574,12.787,22.546
		c-2.939-3.126,7.514,3.927-3.293-5.792c-1.775-1.599,0.467-11.223-3.758-15.754C172.82,319.236,169.434,319.762,168.02,319.236z"/>
	<path fill-rule="evenodd" clip-rule="evenodd" fill="#3B3A39" d="M224.244,318c-4.986,28.54-20.328,30.574-12.787,22.555
		c2.939-3.132-7.51,3.921,3.295-5.801c1.777-1.596-0.469-11.223,3.752-15.75C219.439,317.997,222.824,318.524,224.244,318z"/>
	<path fill-rule="evenodd" clip-rule="evenodd" fill="#3B3A39" d="M173.658,226.029c-8.486-26.991-2.426-64.369-20.229-87.336
		C96.205,64.856,9.07,121.716,27.516,121.716c8.949,0,18.576-2.233,6.049,6.575c-1.754,1.236-8.811,11.848-5.754,11.335
		c17.52-2.914,20.254,5.568,22.238,19.331c7.736-6.872,18.664,4.899,19.486,14.806c7.008,0.067,9.396-3.063,14.002,2.098
		c6.428,7.213,1.934,14.44,2.896,18.079c7.656,0.031,14.182-4.703,21.646,2.019c13.574,12.241,3.768,29.394,9.086,29.394
		c12.314,0,17.996,1.779,24.264,13.68c10.271,19.478-8.098,17.081,22.141-8.29C171.59,224.005,166.816,227.903,173.658,226.029z"/>
	<path fill-rule="evenodd" clip-rule="evenodd" fill="#3B3A39" d="M226.346,214.255c8.482-26.991,2.424-64.369,20.227-87.339
		c57.221-73.84,144.354-16.972,125.914-16.972c-8.949,0-18.574-2.233-6.051,6.575c1.762,1.233,8.814,11.839,5.756,11.332
		c-17.518-2.914-20.252,5.568-22.24,19.331c-7.736-6.875-18.66,4.902-19.486,14.802c-7.006,0.071-9.396-3.062-14.004,2.105
		c-6.424,7.212-1.928,14.437-2.891,18.072c-7.656,0.037-14.182-4.7-21.65,2.024c-13.574,12.231-3.766,29.394-9.09,29.394
		c-12.311,0-17.988,1.776-24.26,13.677c-10.268,19.478,8.096,17.075-22.139-8.296C228.41,212.233,233.188,216.126,226.346,214.255z"
		/>
	<path fill-rule="evenodd" clip-rule="evenodd" fill="#958B85" d="M178.818,328.087c121.029,38.241,84.488-234.927-23.244-129.506
		C128.76,224.82,116.373,308.355,178.818,328.087z"/>
	<path fill-rule="evenodd" clip-rule="evenodd" fill="#9C938F" d="M147.023,187.037c13.928,12.025,65.934,23.929,94.4,2.844
		c18.088-13.388,20.859-59.445,6.51-79.991C182.123,15.639,93.906,141.185,147.023,187.037z"/>
	<path fill-rule="evenodd" clip-rule="evenodd" fill="#9C938F" d="M159.232,98.37c-14.66-0.543-10.918-31.213-4.854-44.229
		c12.152,10.084,15.248,29.104,9.627,41.171C162.703,98.109,160.215,98.406,159.232,98.37z"/>
	<path fill-rule="evenodd" clip-rule="evenodd" fill="#9C938F" d="M230.965,100.621c-14.664-0.546-10.918-31.212-4.859-44.229
		c12.158,10.087,15.25,29.104,9.633,41.174C234.438,100.36,231.943,100.658,230.965,100.621z"/>
	<path fill-rule="evenodd" clip-rule="evenodd" fill="#F5B0B4" d="M151.039,159.144c-5.209,8.118,9.322,13.386,13.314,7.437
		C171.563,155.834,155.254,152.579,151.039,159.144z"/>
	<path fill-rule="evenodd" clip-rule="evenodd" fill="#F5B0B4" d="M224.492,159.358c-5.209,8.108,9.326,13.376,13.313,7.437
		C245.016,156.049,228.705,152.79,224.492,159.358z"/>
	<path fill-rule="evenodd" clip-rule="evenodd" fill="#3B3A39" d="M152.711,151.195c3.982,2.884,8.117-3.203,5.219-5.391
		C152.68,141.842,149.492,148.86,152.711,151.195z"/>
	<path fill-rule="evenodd" clip-rule="evenodd" fill="#3B3A39" d="M236.779,153.913c3.301,2.645,6.729-2.924,4.322-4.93
		C236.752,145.36,234.107,151.778,236.779,153.913z"/>
	<path fill-rule="evenodd" clip-rule="evenodd" fill="#3B3A39" d="M194.148,187.497c-0.107,1.639,0.246,0.973,1.818,0.973
		c0.037,0-0.779-5.482-0.715-6.249c0.035-0.436,0.449-4.759,0.107-4.743C193.402,177.604,194.311,185.102,194.148,187.497z"/>
	<path fill-rule="evenodd" clip-rule="evenodd" fill="#3B3A39" d="M195.529,189.497c1.635-0.129,4.85-1.298,4.826-2.868
		c0-0.034-3.66,1.427-5.412,1.613c-0.117,0.013-2.32-0.132-5.563-0.844C189.492,189.347,192.869,189.712,195.529,189.497z"/>
	<path fill-rule="evenodd" clip-rule="evenodd" fill="#3B3A39" d="M195.666,169.498c4.574,0.264,9.121,4.69-0.232,10.001
		C192.559,181.131,182.592,168.737,195.666,169.498z"/>
	<path fill-rule="evenodd" clip-rule="evenodd" fill="#6D4F33" d="M210.414,80.813c0.469,3.776-0.516,6.694-1.633,8.737
		c-0.387,0.705-0.775,1.288-1.121,1.736c0.168-0.089,0.352-0.188,0.561-0.288c2.441-1.209,4.77-3.427,5.805-5.977
		c0.766-1.905,1.355-1.35,1.168-0.884c-1.398,3.537-3.662,5.62-5.625,6.875c-0.559,0.354-1.078,0.639-1.531,0.854
		c0.172,0.019,0.357,0.052,0.561,0.089c2.686,0.466,5.873,0.046,8.217-1.402c1.736-1.083,1.889-0.291,1.465-0.024
		c-3.221,2.027-6.275,2.378-8.598,2.23c-1.193-0.074-2.15-0.267-2.744-0.467l-0.15,0.034c-3.107,1.871-6.049,2.193-8.301,2.049
		c-3.512-0.224-4.998-1.484-1.08-0.807c2.684,0.47,5.871,0.046,8.217-1.405c0.459-0.285,0.807-0.436,1.064-0.503
		c0.164-0.344,0.457-0.828,0.91-1.476c1.559-2.233,2.531-5.301,2.215-8.034C209.568,80.119,210.354,80.315,210.414,80.813z"/>
	<path fill-rule="evenodd" clip-rule="evenodd" fill="#E2000F" d="M212.525,77.272c1.021,0.656,1.152,2.291,0.156,3.436
		C207.586,86.559,206.365,73.354,212.525,77.272z"/>
	<path fill-rule="evenodd" clip-rule="evenodd" fill="#E2000F" d="M215.084,84.595c-1.338-0.681-0.869-3.656,1.145-4.685
		C220.695,77.625,220.602,87.387,215.084,84.595z"/>
	<path fill-rule="evenodd" clip-rule="evenodd" fill="#E2000F" d="M219.637,91.979c-5.637,0.57-2.844-7.688,2.066-5.657
		C221.945,86.421,223.867,91.55,219.637,91.979z"/>
	<path fill-rule="evenodd" clip-rule="evenodd" fill="#6D4F33" d="M173.814,84.245c0.855,3.7,2.783,6.105,4.535,7.64
		c0.607,0.527,1.172,0.944,1.652,1.245c-0.189-0.027-0.398-0.052-0.629-0.08c-2.705-0.291-5.66-1.576-7.5-3.62
		c-1.375-1.521-1.74-0.797-1.406-0.42c2.535,2.838,5.375,4.016,7.652,4.519c0.641,0.145,1.227,0.23,1.73,0.273
		c-0.156,0.083-0.322,0.175-0.5,0.279c-2.363,1.358-5.504,2.064-8.197,1.503c-2.004-0.414-1.875,0.381-1.385,0.488
		c3.723,0.797,6.713,0.073,8.842-0.865c1.092-0.481,1.928-0.988,2.414-1.381l0.154-0.019c3.563,0.688,6.434-0.021,8.5-0.93
		c3.219-1.414,4.182-3.113,0.736-1.129c-2.359,1.359-5.504,2.065-8.197,1.507c-0.527-0.107-0.908-0.135-1.174-0.107
		c-0.27-0.268-0.713-0.623-1.359-1.077c-2.234-1.559-4.199-4.104-4.838-6.78C174.369,83.298,173.705,83.758,173.814,84.245z"/>
	<path fill-rule="evenodd" clip-rule="evenodd" fill="#E2000F" d="M170.615,81.644c-0.73,0.964-0.295,2.547,1.033,3.28
		C178.447,88.666,175.055,75.846,170.615,81.644z"/>
	<path fill-rule="evenodd" clip-rule="evenodd" fill="#E2000F" d="M170.729,89.396c1.025-1.096-0.439-3.73-2.684-4.01
		C163.068,84.779,166.508,93.915,170.729,89.396z"/>
	<path fill-rule="evenodd" clip-rule="evenodd" fill="#E2000F" d="M168.994,97.897c5.486-1.402,0.029-8.2-3.889-4.605
		C164.908,93.477,164.871,98.949,168.994,97.897z"/>
	<path fill-rule="evenodd" clip-rule="evenodd" fill="#52BBC9" d="M187.574,86.936c-3.037-6.666,1.338-16.333,3.641-14.946
		c1.914,1.145,0.682,6.859,0.268,12.962c-0.248,3.706-0.383,1.35,0.979-0.991c2.791-4.811,11.002-10.133,6.693-2.718
		c-1.395,2.411-4.432,5.102-5.301,6.482c19.91-11.551,5.588,0.527,2.756,2.521c2.553,0.602,9.617,5.899,9.385,8.103
		c-0.283,2.619-5.762,1.536-12.232-4.627c7.287,14.44,4.611,19.344-2.951,4.276c-1.957,15.052-6.783,8.121-5.678,4.274
		c0.242-0.851,2.08-5.504,2.082-5.55c-5.041,2.791-10.482,3.813-10.666,3.099c-0.354-1.375,8.902-7.269,8.73-7.302
		c-6.199-1.307-9.154-8.136-8.207-8.492C180.561,82.696,186.184,83.896,187.574,86.936z"/>
	<path fill-rule="evenodd" clip-rule="evenodd" fill="#FBBF26" d="M192.541,92.888c0.074-0.059,1.898-5.348-2.709-3.669
		C187.107,90.212,187.105,96.986,192.541,92.888z"/>
	<path fill-rule="evenodd" clip-rule="evenodd" fill="#E95707" d="M204.42,92.326c1.268,2.785-0.559,6.811-1.516,6.237
		c-0.801-0.479-0.285-2.859-0.111-5.399c0.102-1.55,0.16-0.568-0.41,0.41c-1.162,2.004-4.586,4.222-2.793,1.13
		c0.584-1.001,1.848-2.123,2.213-2.703c-8.299,4.816-2.328-0.218-1.146-1.046c-1.066-0.255-4.014-2.461-3.912-3.375
		c0.117-1.099,2.398-0.645,5.098,1.927c-3.037-6.022-1.922-8.065,1.23-1.785c0.814-6.274,2.826-3.385,2.365-1.78
		c-0.102,0.354-0.865,2.295-0.867,2.311c2.102-1.166,4.371-1.586,4.447-1.292c0.148,0.571-3.711,3.028-3.641,3.041
		c2.582,0.549,3.813,3.393,3.424,3.546C207.344,94.1,205,93.603,204.42,92.326z"/>
	<path fill-rule="evenodd" clip-rule="evenodd" fill="#FBBF26" d="M202.35,89.851c-0.029,0.027-0.789,2.23,1.129,1.53
		C204.615,90.967,204.615,88.142,202.35,89.851z"/>
	<path fill-rule="evenodd" clip-rule="evenodd" fill="#D4D4D4" d="M181.43,319.378c86.176,22.81,60.16-140.115-16.555-77.239
		C145.781,257.788,136.967,307.606,181.43,319.378z"/>
	<path fill-rule="evenodd" clip-rule="evenodd" fill="#3B3A39" d="M236.533,215.243c-6.854,39.25-27.953,42.041-17.582,31.006
		c4.037-4.298-10.328,5.396,4.529-7.964c2.445-2.199-0.641-15.435,5.162-21.668C229.926,215.243,234.588,215.964,236.533,215.243z"
		/>
	<path fill-rule="evenodd" clip-rule="evenodd" fill="#3B3A39" d="M144.775,227.771c-29.986,26.233-21.42,45.721-17.375,31.127
		c1.58-5.688,0.746,11.63,4.459-8.008c0.609-3.233,13.525-7.467,15.838-15.661C148.207,233.417,145.17,229.812,144.775,227.771z"/>
</g>
<rect x="-1075" y="-942" fill-rule="evenodd" clip-rule="evenodd" fill="none" stroke="#00A651" stroke-width="10" stroke-miterlimit="10" width="2843" height="1848"/>
</svg>
